<svg width="80" height="73" viewBox="0 0 80 73" fill="none" xmlns="http://www.w3.org/2000/svg">
<ellipse cx="33" cy="67" rx="33" ry="6" fill="#223F6C"/>
<path d="M20 28.5704V40.6221C20 42.1031 21.2006 43.3036 22.6817 43.3036C24.1628 43.3036 25.3633 42.1031 25.3633 40.6221V28.5704L22.9867 27.2695L20 28.5704Z" fill="#FEB19E"/>
<path d="M36.5689 14.5957H30.7448L30.7205 14.6884C30.222 16.5911 31.6573 18.4509 33.6242 18.4509H33.6912C35.6979 18.4509 37.1396 16.5197 36.5689 14.5957Z" fill="#FFB69E"/>
<path d="M29.7396 69.2312C27.9624 69.2312 26.5217 67.7905 26.5217 66.0133V40.2921C26.5217 38.5149 27.9624 37.0742 29.7396 37.0742C31.5168 37.0742 32.9575 38.5149 32.9575 40.2921V66.0133C32.9574 67.7905 31.5168 69.2312 29.7396 69.2312Z" fill="#9AB3D9"/>
<path d="M38.7949 9.3914C39.9704 6.55528 38.6243 3.30317 35.7882 2.1276C32.9521 0.952035 29.6999 2.29817 28.5243 5.13429C27.3488 7.9704 28.6949 11.2225 31.531 12.3981C34.3671 13.5737 37.6193 12.2275 38.7949 9.3914Z" fill="#FEB19E"/>
<path d="M37.5666 69.2312C35.7893 69.2312 34.3486 67.7905 34.3486 66.0133V40.2921C34.3486 38.5149 35.7893 37.0742 37.5666 37.0742C39.3438 37.0742 40.7845 38.5149 40.7845 40.2921V66.0133C40.7843 67.7905 39.3437 69.2312 37.5666 69.2312Z" fill="#7496CF"/>
<path d="M47.764 27.1905L47.2967 24.0828V20.9214C47.2967 20.9169 47.2967 20.9125 47.2967 20.9079C47.2793 17.4263 44.3881 14.5938 40.8518 14.5938H36.5687L36.5688 14.5952C36.6392 16.1679 35.18 17.5073 33.6568 17.5073C32.0242 17.5073 30.8154 16.173 30.7448 14.5952V14.5938H26.4553C22.9133 14.5938 20.0175 17.4263 20 20.9079V20.9214V28.5704H25.3632V20.9301C25.3689 20.4201 25.8879 19.957 26.4553 19.957H26.5219V40.2924H40.784L40.7591 19.9571H40.8515C41.4133 19.9571 41.9276 20.4202 41.9332 20.9303V27.1906L47.764 27.1905Z" fill="#4766EA"/>
<path d="M54.8574 22.7273C54.1036 21.4524 52.4593 21.0302 51.1843 21.7839L47.2969 24.0827L43.8944 26.6058C43.8944 26.6053 41.9336 26.6058 41.9336 26.6058V28.7838C41.9336 30.8687 44.2041 32.1421 45.9802 31.092L53.9142 26.4004C55.1889 25.6465 55.6113 24.002 54.8574 22.7273Z" fill="#FEB19E"/>
<path d="M78.4505 1.75977H57.9626C57.1653 1.75977 56.5192 2.40608 56.5192 3.20324V30.0865C56.5192 30.8838 57.1655 31.53 57.9626 31.53H78.4505C79.2478 31.53 79.894 30.8837 79.894 30.0865V3.20324C79.894 2.40608 79.2477 1.75977 78.4505 1.75977Z" fill="#9AB3D9"/>
<path d="M68.5233 8.26703H61.2952C60.8564 8.26703 60.5006 7.91116 60.5006 7.47238C60.5006 7.0336 60.8564 6.67773 61.2952 6.67773H68.5233C68.9621 6.67773 69.318 7.0336 69.318 7.47238C69.318 7.91116 68.9621 8.26703 68.5233 8.26703Z" fill="white"/>
<path d="M75.1974 15.5971H61.2148C60.776 15.5971 60.4202 15.2414 60.4202 14.8025C60.4202 14.3635 60.776 14.0078 61.2148 14.0078H75.1974C75.6362 14.0078 75.9921 14.3635 75.9921 14.8025C75.9921 15.2414 75.6362 15.5971 75.1974 15.5971Z" fill="white"/>
<path d="M75.1974 20.5405H61.2148C60.776 20.5405 60.4202 20.1847 60.4202 19.7458C60.4202 19.3069 60.776 18.9512 61.2148 18.9512H75.1974C75.6362 18.9512 75.9921 19.3069 75.9921 19.7458C75.9921 20.1847 75.6362 20.5405 75.1974 20.5405Z" fill="white"/>
<path d="M75.1974 25.4858H61.2148C60.776 25.4858 60.4202 25.13 60.4202 24.6911C60.4202 24.2522 60.776 23.8965 61.2148 23.8965H75.1974C75.6362 23.8965 75.9921 24.2522 75.9921 24.6911C75.9921 25.13 75.6362 25.4858 75.1974 25.4858Z" fill="white"/>
<path d="M61.9267 13.7959C63.0051 10.7001 61.3639 7.30416 58.268 6.22582C55.1722 5.14749 51.7763 6.7887 50.698 9.88451C49.8488 12.3225 50.687 14.9459 52.5932 16.4776L50.6401 22.0843C50.2792 23.1204 50.8266 24.2529 51.8627 24.614C52.8987 24.9749 54.0313 24.4275 54.3923 23.3914L56.3454 17.7846C58.7908 17.7686 61.0775 16.2339 61.9267 13.7959ZM55.228 14.953C53.5116 14.3551 52.6015 12.4721 53.1994 10.7557C53.7972 9.03927 55.6803 8.12927 57.3967 8.72711C59.1133 9.32508 60.0233 11.208 59.4253 12.9244C58.8273 14.6409 56.9444 15.551 55.228 14.953Z" fill="#FFE080"/>
</svg>
