<svg width="67" height="72" viewBox="0 0 67 72" fill="none" xmlns="http://www.w3.org/2000/svg">
<ellipse cx="34" cy="66" rx="33" ry="6" fill="#223F6C"/>
<g clip-path="url(#clip0)">
<path d="M8.46835 38.5922V64.7596C8.47371 66.5508 9.94875 67.999 11.7124 67.999H11.7223C13.4904 67.9935 14.9194 66.5344 14.914 64.7399V38.5922L11.6911 37.9258L8.46835 38.5922Z" fill="#9AB3D9"/>
<path d="M16.3618 38.592L16.3637 64.75C16.3639 66.5445 17.7973 67.9991 19.5654 67.999C21.3335 67.9989 22.7766 66.5441 22.7765 64.7496V38.5922L19.5691 37.9258L16.3618 38.592Z" fill="#7496CF"/>
<path d="M19.0584 13.582H12.2091C10.1434 13.582 8.46835 15.2817 8.46835 17.3782V38.592H22.7768L22.7988 17.3782C22.7988 15.2815 21.1242 13.582 19.0584 13.582Z" fill="#4766EA"/>
<path d="M22.0265 6.87835C22.3518 3.5598 19.9649 0.60191 16.6951 0.271723C13.4254 -0.0584648 10.511 2.36408 10.1857 5.68264C9.86032 9.00119 12.2472 11.9591 15.517 12.2893C18.7867 12.6195 21.7011 10.1969 22.0265 6.87835Z" fill="#FEB19E"/>
<path d="M44.2017 38.3558V64.5233C44.207 66.3145 45.6821 67.7627 47.4457 67.7627H47.4557C49.2237 67.7572 50.6527 66.2981 50.6474 64.5036V38.3558L47.4245 37.6895L44.2017 38.3558Z" fill="#7496CF"/>
<path d="M52.0953 38.3557L52.0973 64.5136C52.0974 66.3081 53.5308 67.7628 55.2989 67.7626C57.067 67.7625 58.5102 66.3077 58.5101 64.5132V38.3558L55.3027 37.6895L52.0953 38.3557Z" fill="#9AB3D9"/>
<path d="M54.7919 13.3457H47.9426C45.8769 13.3457 44.2019 15.0453 44.2019 17.1419V38.3557H58.5103L58.5324 17.1419C58.5322 15.0453 56.8576 13.3457 54.7919 13.3457Z" fill="#FFE080"/>
<path d="M57.7768 6.64593C58.1021 3.32738 55.7152 0.369486 52.4454 0.039298C49.1757 -0.29089 46.2613 2.13166 45.936 5.45021C45.6106 8.76876 47.9976 11.7267 51.2673 12.0568C54.5371 12.387 57.4514 9.96448 57.7768 6.64593Z" fill="#FFD4CA"/>
<path d="M34.4729 22.984L24.8741 21.5953L22.0513 19.5645L19.2789 20.8388V24.2077L22.3153 26.3922C22.6616 26.6414 23.0614 26.8031 23.4816 26.8639L33.7197 28.345C35.1831 28.5567 36.5301 27.5223 36.7374 26.0466C36.9454 24.5661 35.9314 23.1949 34.4729 22.984Z" fill="#FEB19E"/>
<path d="M22.0513 19.5652L16.2908 15.4209C15.0887 14.5559 13.4236 14.844 12.5715 16.0639C11.7195 17.2838 12.0031 18.9739 13.2051 19.8388L19.2788 24.2084L22.0513 19.5652Z" fill="#3150BC"/>
<path d="M45.647 19.8086L43.1406 22.3368L33.899 25.3131C32.4946 25.7654 31.7174 27.2876 32.163 28.7129C32.6106 30.1446 34.1147 30.9251 35.5129 30.4748L45.3701 27.3002C45.7748 27.1699 46.1428 26.9436 46.4439 26.6398L49.3195 23.7391L48.394 20.7895L45.647 19.8086Z" fill="#FFD4CA"/>
<path d="M49.3194 23.7384L54.3642 18.6496C55.4093 17.5955 55.4145 15.8811 54.3758 14.8203C53.3373 13.7598 51.6482 13.7545 50.603 14.8087L45.6471 19.8078L49.3194 23.7384Z" fill="#FFCD4D"/>
</g>
<defs>
<clipPath id="clip0">
<rect width="67" height="68" fill="white"/>
</clipPath>
</defs>
</svg>
