<svg width="86" height="72" viewBox="0 0 86 72" fill="none" xmlns="http://www.w3.org/2000/svg">
<ellipse cx="33" cy="66" rx="33" ry="6" fill="#223F6C"/>
<path d="M30.2113 13.2285L30.1327 13.7682C29.8906 15.4308 31.1836 16.9207 32.8685 16.9207C34.5997 16.9207 35.905 15.3521 35.5854 13.6554L35.505 13.2286H30.2113V13.2285Z" fill="#FEB19E"/>
<path d="M41.0498 26.3063V39.3203C41.0498 40.8049 42.2567 42.0085 43.7456 42.0085C45.2344 42.0085 46.4413 40.805 46.4413 39.3203V26.3063L43.7456 25.5938L41.0498 26.3063Z" fill="#FEB19E"/>
<path d="M36.6588 67.9993C34.8722 67.9993 33.4238 66.5551 33.4238 64.7735V38.9895C33.4238 37.2079 34.8722 35.7637 36.6588 35.7637C38.4454 35.7637 39.8938 37.2079 39.8938 38.9895V64.7737C39.8938 66.5551 38.4454 67.9993 36.6588 67.9993Z" fill="#7496CF"/>
<path d="M28.7916 67.9993C27.005 67.9993 25.5566 66.5551 25.5566 64.7735V38.9895C25.5566 37.2079 27.005 35.7637 28.7916 35.7637C30.5782 35.7637 32.0266 37.2079 32.0266 38.9895V64.7737C32.0266 66.5551 30.5782 67.9993 28.7916 67.9993Z" fill="#9AB3D9"/>
<path d="M38.3053 6.17798C38.475 3.10413 36.1137 0.475101 33.0311 0.305876C29.9485 0.13665 27.312 2.49131 27.1423 5.56516C26.9725 8.63901 29.3339 11.268 32.4165 11.4373C35.4991 11.6065 38.1356 9.25183 38.3053 6.17798Z" fill="#FEB19E"/>
<path d="M19 26.3075V39.3215C19 40.8061 20.2069 42.0097 21.6958 42.0097C23.1846 42.0097 24.3915 40.8062 24.3915 39.3215V26.3075L22.1988 24.5977L19 26.3075Z" fill="#FEB19E"/>
<path d="M46.441 19.5582C46.4235 16.0679 43.517 13.2285 39.9619 13.2285H35.5048C35.5104 14.6163 34.21 15.781 32.8531 15.781C31.3989 15.781 30.3168 14.6203 30.211 13.2285H25.4895C21.9287 13.2285 19.0175 16.0679 19 19.5582V19.5717V26.3067H24.3917V19.5815C24.3967 19.0699 24.9189 18.605 25.4896 18.605H25.5566V38.9902H39.8942L39.8691 18.605H39.9621C40.5269 18.605 41.0439 19.0694 41.0495 19.5807V26.3068H46.4412V19.5718C46.4412 19.5672 46.4412 19.5627 46.441 19.5582Z" fill="#4766EA"/>
<path d="M83.9219 0.6875H50.8669C49.719 0.6875 48.7884 1.61551 48.7884 2.76016V5.24317L45.2687 8.3782C44.8482 8.75264 45.1139 9.44693 45.6776 9.44693H48.8239C49.0006 10.413 49.8471 11.1458 50.8669 11.1458H83.9219C85.0698 11.1458 86.0005 10.2178 86.0005 9.07315V2.76016C86.0005 1.61551 85.0698 0.6875 83.9219 0.6875Z" fill="#9AB3D9"/>
<path d="M55.1331 3.37768L55.591 4.30291C55.6599 4.4419 55.7927 4.53823 55.9465 4.56049L56.9705 4.70888C57.3579 4.76506 57.5124 5.23954 57.2322 5.51195L56.4913 6.23221C56.38 6.34033 56.3291 6.49628 56.3555 6.64892L56.5303 7.66584C56.5965 8.05048 56.1916 8.3437 55.8452 8.16218L54.9293 7.682C54.7918 7.60992 54.6274 7.60992 54.4899 7.682L53.574 8.16218C53.2276 8.34383 52.8227 8.05048 52.8889 7.66584L53.0637 6.64892C53.0901 6.49615 53.0393 6.34033 52.928 6.23221L52.187 5.51195C51.9068 5.23954 52.0615 4.76493 52.4487 4.70888L53.4727 4.56049C53.6265 4.53823 53.7595 4.4419 53.8283 4.30291L54.2862 3.37768C54.4595 3.02775 54.96 3.02775 55.1331 3.37768Z" fill="#FFE080"/>
<path d="M61.6532 3.37768L62.111 4.30291C62.1799 4.4419 62.3127 4.53823 62.4666 4.56049L63.4907 4.70888C63.878 4.76506 64.0325 5.23954 63.7523 5.51195L63.0114 6.23221C62.9002 6.34033 62.8493 6.49628 62.8756 6.64892L63.0505 7.66584C63.1166 8.05048 62.7118 8.3437 62.3654 8.16218L61.4495 7.682C61.3119 7.60992 61.1476 7.60992 61.01 7.682L60.0941 8.16218C59.7477 8.34383 59.3429 8.05048 59.409 7.66584L59.5839 6.64892C59.6102 6.49615 59.5594 6.34033 59.4481 6.23221L58.7072 5.51195C58.427 5.23954 58.5816 4.76493 58.9688 4.70888L59.9929 4.56049C60.1466 4.53823 60.2796 4.4419 60.3485 4.30291L60.8063 3.37768C60.9795 3.02775 61.4799 3.02775 61.6532 3.37768Z" fill="#FFE080"/>
<path d="M68.172 3.37768L68.6299 4.30291C68.6987 4.4419 68.8316 4.53823 68.9855 4.56049L70.0095 4.70888C70.3969 4.76506 70.5514 5.23954 70.2712 5.51195L69.5301 6.23221C69.4189 6.34033 69.368 6.49628 69.3943 6.64892L69.5692 7.66584C69.6354 8.05048 69.2305 8.3437 68.8841 8.16218L67.9682 7.682C67.8307 7.60992 67.6663 7.60992 67.5288 7.682L66.6129 8.16218C66.2665 8.34383 65.8616 8.05048 65.9278 7.66584L66.1026 6.64892C66.1289 6.49615 66.0782 6.34033 65.9668 6.23221L65.2259 5.51195C64.9457 5.23954 65.1004 4.76493 65.4876 4.70888L66.5116 4.56049C66.6654 4.53823 66.7984 4.4419 66.8671 4.30291L67.3249 3.37768C67.4985 3.02775 67.9989 3.02775 68.172 3.37768Z" fill="#FFE080"/>
<path d="M74.6926 3.37768L75.1505 4.30291C75.2194 4.4419 75.3522 4.53823 75.5061 4.56049L76.5302 4.70888C76.9175 4.76506 77.072 5.23954 76.7918 5.51195L76.0509 6.23221C75.9397 6.34033 75.8888 6.49628 75.9151 6.64892L76.09 7.66584C76.1561 8.05048 75.7513 8.3437 75.4048 8.16218L74.4889 7.682C74.3514 7.60992 74.1871 7.60992 74.0495 7.682L73.1336 8.16218C72.7872 8.34383 72.3823 8.05048 72.4485 7.66584L72.6234 6.64892C72.6497 6.49615 72.5989 6.34033 72.4876 6.23221L71.7467 5.51195C71.4664 5.23954 71.6211 4.76493 72.0083 4.70888L73.0324 4.56049C73.1861 4.53823 73.3191 4.4419 73.3879 4.30291L73.8458 3.37768C74.019 3.02775 74.5194 3.02775 74.6926 3.37768Z" fill="#FFE080"/>
<path d="M81.2116 3.37768L81.6695 4.30291C81.7384 4.4419 81.8712 4.53823 82.025 4.56049L83.049 4.70888C83.4364 4.76506 83.5909 5.23954 83.3107 5.51195L82.5698 6.23221C82.4585 6.34033 82.4076 6.49628 82.434 6.64892L82.6088 7.66584C82.675 8.05048 82.2701 8.3437 81.9237 8.16218L81.0078 7.682C80.8703 7.60992 80.7059 7.60992 80.5684 7.682L79.6525 8.16218C79.3061 8.34383 78.9012 8.05048 78.9674 7.66584L79.1423 6.64892C79.1686 6.49615 79.1178 6.34033 79.0065 6.23221L78.2654 5.51195C77.9852 5.23954 78.1398 4.76493 78.527 4.70888L79.5511 4.56049C79.7048 4.53823 79.8379 4.4419 79.9067 4.30291L80.3646 3.37768C80.5381 3.02775 81.0385 3.02775 81.2116 3.37768Z" fill="#FFE080"/>
</svg>
