<svg width="76" height="76" viewBox="0 0 76 76" fill="none" xmlns="http://www.w3.org/2000/svg">
<g clip-path="url(#clip0)">
<path d="M24.6941 49.8705C38.2092 49.8705 49.1655 38.9143 49.1655 25.3991C49.1655 11.884 38.2092 0.927734 24.6941 0.927734C11.1789 0.927734 0.222656 11.884 0.222656 25.3991C0.222656 38.9143 11.1789 49.8705 24.6941 49.8705Z" fill="#FFD93B"/>
<path d="M31.9025 48.7919C29.6232 49.4941 27.2034 49.8711 24.6936 49.8711C11.1781 49.8711 0.222656 38.9142 0.222656 25.3987C0.222656 11.8846 11.1781 0.927734 24.6936 0.927734C27.2034 0.927734 29.6232 1.30477 31.9025 2.00702C21.906 5.08488 14.6405 14.3946 14.6405 25.3987C14.6405 36.4044 21.906 45.7142 31.9025 48.7919Z" fill="#F4C534"/>
<path d="M28.9501 57.2476C28.0871 58.1106 26.689 58.1106 25.8261 57.2476L24.6948 56.1178L23.5651 57.2476C23.1336 57.6791 22.5679 57.894 22.0023 57.894C21.4383 57.894 20.8726 57.6791 20.4411 57.2476C19.5795 56.3862 19.5795 54.9864 20.4411 54.125L21.5723 52.9936L24.6948 49.8711L27.8189 52.9936L28.9486 54.125C29.8115 54.9864 29.8115 56.386 28.9501 57.2476Z" fill="#FFD93B"/>
<path d="M24.6949 56.1161L23.5651 57.2459C23.1336 57.6774 22.5679 57.8923 22.0023 57.8923C21.4383 57.8923 20.8726 57.6774 20.4411 57.2459C19.5795 56.3845 19.5795 54.9847 20.4411 54.1233L21.5723 52.992L23.867 50.6973C22.7128 53.2741 22.9277 56.1161 24.6949 56.1161Z" fill="#F4C534"/>
<path d="M51.5281 58.5834C65.0432 58.5834 75.9995 47.6272 75.9995 34.112C75.9995 20.5968 65.0432 9.64062 51.5281 9.64062C38.0129 9.64062 27.0566 20.5968 27.0566 34.112C27.0566 47.6272 38.0129 58.5834 51.5281 58.5834Z" fill="#5272F1"/>
<path d="M58.7365 57.5047C56.4572 58.207 54.0374 58.584 51.5276 58.584C38.0121 58.584 27.0566 47.6271 27.0566 34.1116C27.0566 20.5975 38.0121 9.64062 51.5276 9.64062C54.0374 9.64062 56.4572 10.0177 58.7365 10.7199C48.7398 13.7978 41.4744 23.1073 41.4744 34.1116C41.4744 45.1173 48.7398 54.4269 58.7365 57.5047Z" fill="#3F5DE5"/>
<path d="M55.7816 62.8379L54.6508 61.7071L51.5277 58.584L48.4046 61.7071L47.2738 62.8379C46.4113 63.7003 46.4113 65.0986 47.2738 65.961C48.1362 66.8234 49.5345 66.8234 50.3969 65.961L51.5277 64.8302L52.6585 65.961C53.5209 66.8234 54.9192 66.8234 55.7816 65.961C56.644 65.0986 56.644 63.7003 55.7816 62.8379Z" fill="#5272F1"/>
<path d="M1.14356 74.6209C0.511961 74.6209 0 74.1089 0 73.4773C0 72.8457 0.511961 72.3338 1.14356 72.3338C5.36201 72.3338 8.30374 71.4243 9.88727 69.6306C11.8355 67.4235 11.7079 63.9479 11.2793 60.521C10.963 57.9908 11.7641 55.5568 13.5958 53.4818C16.146 50.593 20.5026 48.7266 24.695 48.7266C25.3266 48.7266 25.8385 49.2385 25.8385 49.8701C25.8385 50.5017 25.3266 51.0137 24.695 51.0137C21.1293 51.0137 17.4457 52.5766 15.3104 54.9954C14.3447 56.0894 13.255 57.8869 13.5488 60.2373C14.0435 64.196 14.1503 68.2572 11.6019 71.1442C9.53666 73.4837 6.11562 74.6209 1.14356 74.6209Z" fill="#C5DBFC"/>
<path d="M51.5288 64.8308L50.3991 65.9606C49.9676 66.3921 49.4019 66.607 48.8363 66.607C48.2723 66.607 47.7066 66.3921 47.2751 65.9606C46.4135 65.0992 46.4135 63.6994 47.2751 62.838L48.4063 61.7068L50.701 59.4121C49.5467 61.9888 49.7617 64.8308 51.5288 64.8308Z" fill="#3F5DE5"/>
<path d="M31.9808 75.0691C31.3067 75.0691 30.5769 75.0174 29.7833 74.9158C29.1569 74.8354 28.7143 74.2625 28.7946 73.6361C28.875 73.0097 29.4475 72.5667 30.0744 72.6473C35.1643 73.3003 36.5104 71.7134 37.9676 66.6138C39.1635 62.4284 42.4869 57.4395 51.5285 57.4395C52.1601 57.4395 52.6721 57.9514 52.6721 58.583C52.6721 59.2146 52.1601 59.7266 51.5285 59.7266C45.4142 59.7266 41.5915 62.2552 40.1667 67.2421C39.0069 71.3014 37.9076 72.6549 36.8924 73.5127C35.6464 74.5654 34.0862 75.0691 31.9808 75.0691Z" fill="#C5DBFC"/>
<path d="M69.9425 19.3087L74.2565 17.8262C75.5522 17.3809 75.5522 15.5486 74.2565 15.1033L69.9425 13.6208C69.5229 13.4765 69.193 13.1469 69.0489 12.7272L67.5664 8.41319C67.1211 7.11748 65.2888 7.11748 64.8435 8.41319L63.3611 12.7272C63.2168 13.1469 62.8871 13.4767 62.4675 13.6208L58.1534 15.1033C56.8577 15.5486 56.8577 17.3809 58.1534 17.8262L62.4675 19.3087C62.8871 19.4529 63.2169 19.7826 63.3611 20.2022L64.8435 24.5163C65.2888 25.812 67.1211 25.812 67.5664 24.5163L69.0489 20.2022C69.193 19.7826 69.5227 19.4529 69.9425 19.3087Z" fill="#C5DBFC"/>
</g>
<defs>
<clipPath id="clip0">
<rect width="76" height="76" fill="white"/>
</clipPath>
</defs>
</svg>
