<svg width="46" height="45" viewBox="0 0 46 45" fill="none" xmlns="http://www.w3.org/2000/svg">
<g filter="url(#filter0_ddi)">
<ellipse cx="24.5" cy="23.8258" rx="12.5" ry="10.8297" fill="#F9FAFF"/>
</g>
<path fill-rule="evenodd" clip-rule="evenodd" d="M20.1989 28.4153C19.9337 28.1855 19.9337 27.8131 20.1989 27.5833L24.0391 24.2563L20.1989 20.9292C19.9338 20.6995 19.9338 20.327 20.1989 20.0973C20.4641 19.8676 20.894 19.8676 21.1591 20.0973L24.9993 23.4243L28.8409 20.0961C29.106 19.8664 29.5359 19.8664 29.8011 20.0961C30.0663 20.3258 30.0663 20.6983 29.8011 20.928L25.9596 24.2563L29.8012 27.5845C30.0663 27.8142 30.0663 28.1867 29.8012 28.4164C29.536 28.6462 29.1061 28.6462 28.8409 28.4164L24.9993 25.0882L21.1591 28.4153C20.8939 28.645 20.464 28.645 20.1989 28.4153Z" fill="#8CA2B7"/>
<defs>
<filter id="filter0_ddi" x="0" y="0.996094" width="46" height="43.6594" filterUnits="userSpaceOnUse" color-interpolation-filters="sRGB">
<feFlood flood-opacity="0" result="BackgroundImageFix"/>
<feColorMatrix in="SourceAlpha" type="matrix" values="0 0 0 0 0 0 0 0 0 0 0 0 0 0 0 0 0 0 127 0" result="hardAlpha"/>
<feOffset dx="-2" dy="-2"/>
<feGaussianBlur stdDeviation="5"/>
<feColorMatrix type="matrix" values="0 0 0 0 1 0 0 0 0 1 0 0 0 0 1 0 0 0 1 0"/>
<feBlend mode="normal" in2="BackgroundImageFix" result="effect1_dropShadow"/>
<feColorMatrix in="SourceAlpha" type="matrix" values="0 0 0 0 0 0 0 0 0 0 0 0 0 0 0 0 0 0 127 0" result="hardAlpha"/>
<feOffset dx="2" dy="3"/>
<feGaussianBlur stdDeviation="3.5"/>
<feColorMatrix type="matrix" values="0 0 0 0 0.534167 0 0 0 0 0.645967 0 0 0 0 0.749167 0 0 0 0.48 0"/>
<feBlend mode="normal" in2="effect1_dropShadow" result="effect2_dropShadow"/>
<feBlend mode="normal" in="SourceGraphic" in2="effect2_dropShadow" result="shape"/>
<feColorMatrix in="SourceAlpha" type="matrix" values="0 0 0 0 0 0 0 0 0 0 0 0 0 0 0 0 0 0 127 0" result="hardAlpha"/>
<feOffset dx="2" dy="1"/>
<feGaussianBlur stdDeviation="1"/>
<feComposite in2="hardAlpha" operator="arithmetic" k2="-1" k3="1"/>
<feColorMatrix type="matrix" values="0 0 0 0 1 0 0 0 0 1 0 0 0 0 1 0 0 0 0.4 0"/>
<feBlend mode="normal" in2="shape" result="effect3_innerShadow"/>
</filter>
</defs>
</svg>
