<svg width="78" height="77" viewBox="0 0 78 77" fill="none" xmlns="http://www.w3.org/2000/svg">
<g clip-path="url(#clip0)">
<path d="M68.6582 71.8124C68.6582 74.6771 55.381 76.9994 39.001 76.9994C22.621 76.9994 9.34375 74.6771 9.34375 71.8124C9.34375 69.3304 19.3189 67.2559 32.6449 66.7462C34.6915 66.6688 36.8196 66.627 39.001 66.627C41.1824 66.627 43.3106 66.6688 45.357 66.7462C58.683 67.2559 68.6582 69.3304 68.6582 71.8124Z" fill="#3F5DE5"/>
<path d="M45.3567 66.7462C43.7574 68.7649 42.436 70.3715 41.5792 71.3987C40.9419 72.161 40.002 72.5979 39.0006 72.5979C37.9993 72.5979 37.0593 72.161 36.4221 71.3987C35.5651 70.3715 34.2437 68.7649 32.6445 66.7462C34.6911 66.6688 36.8192 66.627 39.0006 66.627C41.182 66.627 43.3103 66.6688 45.3567 66.7462Z" fill="#3854D3"/>
<path d="M65.5821 26.2403C65.5821 38.9354 45.1842 64.1568 40.1258 70.2162C39.5427 70.9146 38.4594 70.9146 37.8764 70.2162C32.8178 64.1566 12.4199 38.9354 12.4199 26.2403C12.4199 11.7482 24.3207 0 39.001 0C53.6813 0 65.5821 11.7482 65.5821 26.2403Z" fill="#5272F1"/>
<path d="M39.0004 42.0743C29.2408 42.0743 21.3008 34.2361 21.3008 24.6016C21.3008 14.9671 29.2408 7.12891 39.0004 7.12891C48.76 7.12891 56.7 14.9671 56.7 24.6016C56.7 34.2361 48.76 42.0743 39.0004 42.0743Z" fill="#FFD93B"/>
<path d="M39.0019 40.2154C47.737 40.2154 54.8182 33.225 54.8182 24.6018C54.8182 15.9787 47.737 8.98828 39.0019 8.98828C30.2668 8.98828 23.1855 15.9787 23.1855 24.6018C23.1855 33.225 30.2668 40.2154 39.0019 40.2154Z" fill="#F4C534"/>
<path d="M39.0014 38.3564C31.3187 38.3564 25.0684 32.1861 25.0684 24.6019C25.0684 17.0177 31.3187 10.8477 39.0014 10.8477C46.6841 10.8477 52.9345 17.0179 52.9345 24.6019C52.9345 32.1863 46.6841 38.3564 39.0014 38.3564Z" fill="white"/>
<path d="M40.5108 53.8531H37.4895C36.8395 53.8531 36.3125 53.3329 36.3125 52.6912C36.3125 52.0495 36.8395 51.5293 37.4895 51.5293H40.5108C41.1608 51.5293 41.6878 52.0495 41.6878 52.6912C41.6878 53.3329 41.1608 53.8531 40.5108 53.8531Z" fill="#FFD93B"/>
<path d="M44.4518 49.6168H33.5501C32.9 49.6168 32.373 49.0966 32.373 48.4549C32.373 47.8132 32.9 47.293 33.5501 47.293H44.4518C45.1018 47.293 45.6288 47.8132 45.6288 48.4549C45.6289 49.0966 45.1018 49.6168 44.4518 49.6168Z" fill="#FFD93B"/>
</g>
<defs>
<clipPath id="clip0">
<rect width="78" height="77" fill="white"/>
</clipPath>
</defs>
</svg>
