<svg width="77" height="77" viewBox="0 0 77 77" fill="none" xmlns="http://www.w3.org/2000/svg">
<g clip-path="url(#clip0)">
<path d="M39.6632 72.6058C38.8918 72.6058 38.2644 71.9784 38.2644 71.2064V22.8388C38.2644 22.0675 38.8918 21.4401 39.6632 21.4401H51.8149V0.774864C51.8149 0.348366 51.4665 0 51.04 0H2.87975C2.45383 0 2.10547 0.348366 2.10547 0.774864V76.2257C2.10547 76.6516 2.45383 77 2.87975 77H51.04C51.4665 77 51.8149 76.6516 51.8149 76.2257V72.6058H39.6632Z" fill="#C5DBFC"/>
<path d="M5.34298 76.2257V0.774864C5.34298 0.348366 5.69193 0 6.11784 0H2.88033C2.45383 0 2.10547 0.348366 2.10547 0.774864V76.2257C2.10547 76.6516 2.45383 77 2.88033 77H6.11784C5.69193 77 5.34298 76.6516 5.34298 76.2257Z" fill="#3F5DE5"/>
<path d="M28.1003 24.5313H16.7041C16.0808 24.5313 15.5762 24.0266 15.5762 23.4033C15.5762 22.78 16.0808 22.2754 16.7041 22.2754H28.1003C28.723 22.2754 29.2282 22.78 29.2282 23.4033C29.2282 24.0266 28.723 24.5313 28.1003 24.5313Z" fill="#7496CF"/>
<path d="M28.1003 30.3516H16.7041C16.0808 30.3516 15.5762 29.8469 15.5762 29.2236C15.5762 28.6009 16.0808 28.0957 16.7041 28.0957H28.1003C28.723 28.0957 29.2282 28.6009 29.2282 29.2236C29.2282 29.8469 28.723 30.3516 28.1003 30.3516Z" fill="#7496CF"/>
<path d="M28.1003 36.1719H16.7041C16.0808 36.1719 15.5762 35.6672 15.5762 35.0439C15.5762 34.4212 16.0808 33.916 16.7041 33.916H28.1003C28.723 33.916 29.2282 34.4212 29.2282 35.0439C29.2282 35.6672 28.723 36.1719 28.1003 36.1719Z" fill="#7496CF"/>
<path d="M28.1003 41.9922H16.7041C16.0808 41.9922 15.5762 41.487 15.5762 40.8643C15.5762 40.241 16.0808 39.7363 16.7041 39.7363H28.1003C28.723 39.7363 29.2282 40.241 29.2282 40.8643C29.2282 41.487 28.723 41.9922 28.1003 41.9922Z" fill="#7496CF"/>
<path d="M28.1003 47.8125H16.7041C16.0808 47.8125 15.5762 47.3079 15.5762 46.6846C15.5762 46.0613 16.0808 45.5566 16.7041 45.5566H28.1003C28.723 45.5566 29.2282 46.0613 29.2282 46.6846C29.2282 47.3073 28.723 47.8125 28.1003 47.8125Z" fill="#7496CF"/>
<path d="M28.1003 53.6328H16.7041C16.0808 53.6328 15.5762 53.1282 15.5762 52.5049C15.5762 51.8816 16.0808 51.377 16.7041 51.377H28.1003C28.723 51.377 29.2282 51.8816 29.2282 52.5049C29.2282 53.1282 28.723 53.6328 28.1003 53.6328Z" fill="#7496CF"/>
<path d="M28.1003 59.4512H16.7041C16.0808 59.4512 15.5762 58.9465 15.5762 58.3232C15.5762 57.7005 16.0808 57.1953 16.7041 57.1953H28.1003C28.723 57.1953 29.2282 57.7005 29.2282 58.3232C29.2282 58.9465 28.723 59.4512 28.1003 59.4512Z" fill="#7496CF"/>
<path d="M28.1003 65.2715H16.7041C16.0808 65.2715 15.5762 64.7669 15.5762 64.1436C15.5762 63.5208 16.0808 63.0156 16.7041 63.0156H28.1003C28.723 63.0156 29.2282 63.5208 29.2282 64.1436C29.2282 64.7669 28.723 65.2715 28.1003 65.2715Z" fill="#7496CF"/>
<path d="M28.1003 71.0918H16.7041C16.0808 71.0918 15.5762 70.5872 15.5762 69.9639C15.5762 69.3412 16.0808 68.8359 16.7041 68.8359H28.1003C28.723 68.8359 29.2282 69.3412 29.2282 69.9639C29.2282 70.5872 28.723 71.0918 28.1003 71.0918Z" fill="#7496CF"/>
<path d="M11.1934 24.5313H9.2959C8.6726 24.5313 8.16797 24.0266 8.16797 23.4033C8.16797 22.78 8.6726 22.2754 9.2959 22.2754H11.1934C11.8167 22.2754 12.3213 22.78 12.3213 23.4033C12.3213 24.0266 11.8161 24.5313 11.1934 24.5313Z" fill="#7496CF"/>
<path d="M11.1934 30.3516H9.2959C8.6726 30.3516 8.16797 29.8469 8.16797 29.2236C8.16797 28.6009 8.6726 28.0957 9.2959 28.0957H11.1934C11.8167 28.0957 12.3213 28.6009 12.3213 29.2236C12.3213 29.8469 11.8161 30.3516 11.1934 30.3516Z" fill="#7496CF"/>
<path d="M11.1934 36.1719H9.2959C8.6726 36.1719 8.16797 35.6672 8.16797 35.0439C8.16797 34.4212 8.6726 33.916 9.2959 33.916H11.1934C11.8167 33.916 12.3213 34.4212 12.3213 35.0439C12.3213 35.6672 11.8161 36.1719 11.1934 36.1719Z" fill="#7496CF"/>
<path d="M11.1934 41.9922H9.2959C8.6726 41.9922 8.16797 41.487 8.16797 40.8643C8.16797 40.241 8.6726 39.7363 9.2959 39.7363H11.1934C11.8167 39.7363 12.3213 40.241 12.3213 40.8643C12.3213 41.487 11.8161 41.9922 11.1934 41.9922Z" fill="#7496CF"/>
<path d="M11.1934 47.8125H9.2959C8.6726 47.8125 8.16797 47.3079 8.16797 46.6846C8.16797 46.0613 8.6726 45.5566 9.2959 45.5566H11.1934C11.8167 45.5566 12.3213 46.0613 12.3213 46.6846C12.3213 47.3073 11.8161 47.8125 11.1934 47.8125Z" fill="#7496CF"/>
<path d="M11.1934 53.6328H9.2959C8.6726 53.6328 8.16797 53.1282 8.16797 52.5049C8.16797 51.8816 8.6726 51.377 9.2959 51.377H11.1934C11.8167 51.377 12.3213 51.8816 12.3213 52.5049C12.3213 53.1282 11.8161 53.6328 11.1934 53.6328Z" fill="#7496CF"/>
<path d="M11.1934 59.4512H9.2959C8.6726 59.4512 8.16797 58.9465 8.16797 58.3232C8.16797 57.7005 8.6726 57.1953 9.2959 57.1953H11.1934C11.8167 57.1953 12.3213 57.7005 12.3213 58.3232C12.3213 58.9465 11.8161 59.4512 11.1934 59.4512Z" fill="#7496CF"/>
<path d="M11.1934 65.2715H9.2959C8.6726 65.2715 8.16797 64.7669 8.16797 64.1436C8.16797 63.5208 8.6726 63.0156 9.2959 63.0156H11.1934C11.8167 63.0156 12.3213 63.5208 12.3213 64.1436C12.3213 64.7669 11.8161 65.2715 11.1934 65.2715Z" fill="#7496CF"/>
<path d="M11.1934 71.0918H9.2959C8.6726 71.0918 8.16797 70.5872 8.16797 69.9639C8.16797 69.3412 8.6726 68.8359 9.2959 68.8359H11.1934C11.8167 68.8359 12.3213 69.3412 12.3213 69.9639C12.3213 70.5872 11.8161 71.0918 11.1934 71.0918Z" fill="#7496CF"/>
<path d="M38.2639 22.8376C38.2639 22.6373 38.3067 22.4475 38.3825 22.2754H33.2275C32.6042 22.2754 32.0996 22.78 32.0996 23.4033C32.0996 24.0266 32.6042 24.5313 33.2275 24.5313H38.2639V22.8376Z" fill="#7496CF"/>
<path d="M38.2639 28.0957H33.2275C32.6048 28.0957 32.0996 28.6009 32.0996 29.2236C32.0996 29.8469 32.6048 30.3516 33.2275 30.3516H38.2639V28.0957Z" fill="#7496CF"/>
<path d="M38.2639 33.916H33.2275C32.6048 33.916 32.0996 34.4212 32.0996 35.0439C32.0996 35.6672 32.6048 36.1719 33.2275 36.1719H38.2639V33.916Z" fill="#7496CF"/>
<path d="M38.2639 39.7363H33.2275C32.6048 39.7363 32.0996 40.241 32.0996 40.8643C32.0996 41.487 32.6048 41.9922 33.2275 41.9922H38.2639V39.7363Z" fill="#7496CF"/>
<path d="M38.2639 45.5566H33.2275C32.6048 45.5566 32.0996 46.0613 32.0996 46.6846C32.0996 47.3079 32.6048 47.8125 33.2275 47.8125H38.2639V45.5566Z" fill="#7496CF"/>
<path d="M38.2639 51.377H33.2275C32.6048 51.377 32.0996 51.8816 32.0996 52.5049C32.0996 53.1282 32.6048 53.6328 33.2275 53.6328H38.2639V51.377Z" fill="#7496CF"/>
<path d="M38.2639 57.1953H33.2275C32.6048 57.1953 32.0996 57.7005 32.0996 58.3232C32.0996 58.9465 32.6048 59.4512 33.2275 59.4512H38.2639V57.1953Z" fill="#7496CF"/>
<path d="M38.2639 63.0156H33.2275C32.6048 63.0156 32.0996 63.5208 32.0996 64.1436C32.0996 64.7669 32.6048 65.2715 33.2275 65.2715H38.2639V63.0156Z" fill="#7496CF"/>
<path d="M38.2639 68.8359H33.2275C32.6048 68.8359 32.0996 69.3412 32.0996 69.9639C32.0996 70.5872 32.6048 71.0918 33.2275 71.0918H38.2639V68.8359Z" fill="#7496CF"/>
<path d="M74.8444 71.2058C74.8444 72.0582 74.1471 72.7556 73.2947 72.7556H39.6624C38.81 72.7556 38.1133 72.0582 38.1133 71.2058V22.8382C38.1133 21.9858 38.81 21.2891 39.6624 21.2891H73.2947C74.1471 21.2891 74.8444 21.9858 74.8444 22.8382V71.2058Z" fill="#5272F1"/>
<path d="M41.4054 71.2058V22.8382C41.4054 21.9858 42.1027 21.2891 42.9546 21.2891H39.6624C38.81 21.2891 38.1133 21.9858 38.1133 22.8382V71.2058C38.1133 72.0582 38.81 72.7556 39.6624 72.7556H42.9546C42.1027 72.7556 41.4054 72.0582 41.4054 71.2058Z" fill="#3F5DE5"/>
<path d="M70.2687 32.6063C70.2687 33.0328 69.9197 33.3812 69.4938 33.3812H43.4657C43.0398 33.3812 42.6914 33.0328 42.6914 32.6063V26.8803C42.6914 26.4544 43.0398 26.1055 43.4657 26.1055H69.4938C69.9197 26.1055 70.2687 26.4544 70.2687 26.8803V32.6063Z" fill="#C5DBFC"/>
<path d="M45.9105 32.6063V26.8803C45.9105 26.4544 46.2595 26.1055 46.6854 26.1055H43.4643C43.0384 26.1055 42.6895 26.4544 42.6895 26.8803V32.6063C42.6895 33.0328 43.0384 33.3812 43.4643 33.3812H46.6854C46.2595 33.3812 45.9105 33.0328 45.9105 32.6063Z" fill="#7496CF"/>
<path d="M49.2054 42.1056C49.2054 42.5316 48.857 42.8805 48.4305 42.8805H43.4794C43.0534 42.8805 42.7051 42.5316 42.7051 42.1056V39.2782C42.7051 38.8523 43.0534 38.5039 43.4794 38.5039H48.4305C48.857 38.5039 49.2054 38.8523 49.2054 39.2782V42.1056Z" fill="#F4C534"/>
<path d="M45.9179 42.1056V39.2782C45.9179 38.8523 46.2669 38.5039 46.6928 38.5039H43.4799C43.0534 38.5039 42.7051 38.8523 42.7051 39.2782V42.1056C42.7051 42.5316 43.0534 42.8805 43.4799 42.8805H46.6928C46.2669 42.8805 45.9179 42.5316 45.9179 42.1056Z" fill="#FFD93B"/>
<path d="M59.745 42.1056C59.745 42.5316 59.3966 42.8805 58.9701 42.8805H54.0184C53.5925 42.8805 53.2441 42.5316 53.2441 42.1056V39.2782C53.2441 38.8523 53.5925 38.5039 54.0184 38.5039H58.9701C59.3966 38.5039 59.745 38.8523 59.745 39.2782V42.1056Z" fill="#F4C534"/>
<path d="M56.4535 42.1056V39.2782C56.4535 38.8523 56.8024 38.5039 57.2283 38.5039H54.0184C53.5925 38.5039 53.2441 38.8523 53.2441 39.2782V42.1056C53.2441 42.5316 53.5925 42.8805 54.0184 42.8805H57.2283C56.8024 42.8805 56.4535 42.5316 56.4535 42.1056Z" fill="#FFD93B"/>
<path d="M70.2827 42.1056C70.2827 42.5316 69.9338 42.8805 69.5078 42.8805H64.5561C64.1302 42.8805 63.7812 42.5316 63.7812 42.1056V39.2782C63.7812 38.8523 64.1302 38.5039 64.5561 38.5039H69.5078C69.9338 38.5039 70.2827 38.8523 70.2827 39.2782V42.1056Z" fill="#F4C534"/>
<path d="M66.9882 42.1056V39.2782C66.9882 38.8523 67.3366 38.5039 67.7625 38.5039H64.5561C64.1302 38.5039 63.7812 38.8523 63.7812 39.2782V42.1056C63.7812 42.5316 64.1302 42.8805 64.5561 42.8805H67.7625C67.3366 42.8805 66.9882 42.5316 66.9882 42.1056Z" fill="#FFD93B"/>
<path d="M49.2054 50.3902C49.2054 50.8161 48.857 51.1651 48.4305 51.1651H43.4794C43.0534 51.1651 42.7051 50.8161 42.7051 50.3902V47.5633C42.7051 47.1374 43.0534 46.7891 43.4794 46.7891H48.4305C48.857 46.7891 49.2054 47.1374 49.2054 47.5633V50.3902Z" fill="#C5DBFC"/>
<path d="M45.9179 50.3902V47.5633C45.9179 47.1374 46.2669 46.7891 46.6928 46.7891H43.4799C43.0534 46.7891 42.7051 47.1374 42.7051 47.5633V50.3902C42.7051 50.8167 43.0534 51.1651 43.4799 51.1651H46.6928C46.2669 51.1651 45.9179 50.8161 45.9179 50.3902Z" fill="#7496CF"/>
<path d="M59.745 50.3902C59.745 50.8161 59.3966 51.1651 58.9701 51.1651H54.0184C53.5925 51.1651 53.2441 50.8161 53.2441 50.3902V47.5633C53.2441 47.1374 53.5925 46.7891 54.0184 46.7891H58.9701C59.3966 46.7891 59.745 47.1374 59.745 47.5633V50.3902Z" fill="#C5DBFC"/>
<path d="M56.4535 50.3902V47.5633C56.4535 47.1374 56.8024 46.7891 57.2283 46.7891H54.0184C53.5925 46.7891 53.2441 47.1374 53.2441 47.5633V50.3902C53.2441 50.8167 53.5925 51.1651 54.0184 51.1651H57.2283C56.8024 51.1651 56.4535 50.8161 56.4535 50.3902Z" fill="#7496CF"/>
<path d="M70.2827 50.3902C70.2827 50.8161 69.9338 51.1651 69.5078 51.1651H64.5561C64.1302 51.1651 63.7812 50.8161 63.7812 50.3902V47.5633C63.7812 47.1374 64.1302 46.7891 64.5561 46.7891H69.5078C69.9338 46.7891 70.2827 47.1374 70.2827 47.5633V50.3902Z" fill="#C5DBFC"/>
<path d="M66.9882 50.3902V47.5633C66.9882 47.1374 67.3366 46.7891 67.7625 46.7891H64.5561C64.1302 46.7891 63.7812 47.1374 63.7812 47.5633V50.3902C63.7812 50.8167 64.1302 51.1651 64.5561 51.1651H67.7625C67.3366 51.1651 66.9882 50.8161 66.9882 50.3902Z" fill="#7496CF"/>
<path d="M49.2054 58.676C49.2054 59.1019 48.857 59.4502 48.4305 59.4502H43.4794C43.0534 59.4502 42.7051 59.1019 42.7051 58.676V55.8485C42.7051 55.4226 43.0534 55.0742 43.4794 55.0742H48.4305C48.857 55.0742 49.2054 55.4226 49.2054 55.8485V58.676Z" fill="#C5DBFC"/>
<path d="M45.9179 58.676V55.8485C45.9179 55.4226 46.2669 55.0742 46.6928 55.0742H43.4799C43.0534 55.0742 42.7051 55.4226 42.7051 55.8485V58.676C42.7051 59.1019 43.0534 59.4502 43.4799 59.4502H46.6928C46.2669 59.4502 45.9179 59.1019 45.9179 58.676Z" fill="#7496CF"/>
<path d="M59.745 58.676C59.745 59.1019 59.3966 59.4502 58.9701 59.4502H54.0184C53.5925 59.4502 53.2441 59.1019 53.2441 58.676V55.8485C53.2441 55.4226 53.5925 55.0742 54.0184 55.0742H58.9701C59.3966 55.0742 59.745 55.4226 59.745 55.8485V58.676Z" fill="#C5DBFC"/>
<path d="M56.4535 58.676V55.8485C56.4535 55.4226 56.8024 55.0742 57.2283 55.0742H54.0184C53.5925 55.0742 53.2441 55.4226 53.2441 55.8485V58.676C53.2441 59.1019 53.5925 59.4502 54.0184 59.4502H57.2283C56.8024 59.4502 56.4535 59.1019 56.4535 58.676Z" fill="#7496CF"/>
<path d="M49.2054 66.9611C49.2054 67.387 48.857 67.7354 48.4305 67.7354H43.4794C43.0534 67.7354 42.7051 67.387 42.7051 66.9611V64.1337C42.7051 63.7077 43.0534 63.3594 43.4794 63.3594H48.4305C48.857 63.3594 49.2054 63.7077 49.2054 64.1337V66.9611Z" fill="#C5DBFC"/>
<path d="M45.9179 66.9611V64.1337C45.9179 63.7077 46.2669 63.3594 46.6928 63.3594H43.4799C43.0534 63.3594 42.7051 63.7077 42.7051 64.1337V66.9611C42.7051 67.387 43.0534 67.7354 43.4799 67.7354H46.6928C46.2669 67.7354 45.9179 67.387 45.9179 66.9611Z" fill="#7496CF"/>
<path d="M59.745 66.9611C59.745 67.387 59.3966 67.7354 58.9701 67.7354H54.0184C53.5925 67.7354 53.2441 67.387 53.2441 66.9611V64.1337C53.2441 63.7077 53.5925 63.3594 54.0184 63.3594H58.9701C59.3966 63.3594 59.745 63.7077 59.745 64.1337V66.9611Z" fill="#C5DBFC"/>
<path d="M56.4535 66.9611V64.1337C56.4535 63.7077 56.8024 63.3594 57.2283 63.3594H54.0184C53.5925 63.3594 53.2441 63.7077 53.2441 64.1337V66.9611C53.2441 67.387 53.5925 67.7354 54.0184 67.7354H57.2283C56.8024 67.7354 56.4535 67.387 56.4535 66.9611Z" fill="#7496CF"/>
<path d="M64.5561 55.0742C64.1302 55.0742 63.7812 55.4226 63.7812 55.8485V66.9615C63.7812 67.3875 64.1302 67.7358 64.5561 67.7358H69.5078C69.9338 67.7358 70.2827 67.3875 70.2827 66.9615V55.8485C70.2827 55.4226 69.9338 55.0742 69.5078 55.0742H64.5561Z" fill="#FFD93B"/>
<path d="M66.9882 66.9615V55.8485C66.9882 55.4226 67.3366 55.0742 67.7625 55.0742H64.5561C64.1302 55.0742 63.7812 55.4226 63.7812 55.8485V66.9615C63.7812 67.3875 64.1302 67.7358 64.5561 67.7358H67.7625C67.3366 67.7358 66.9882 67.3875 66.9882 66.9615Z" fill="#F4C534"/>
<g clip-path="url(#clip1)">
<path d="M35.2325 5.06903C35.2342 4.94248 35.1848 4.82062 35.0956 4.73084C35.0063 4.64116 34.8847 4.59112 34.7581 4.59218L32.4425 4.58984C32.3778 4.60206 32.319 4.63532 32.275 4.6843L27.1458 9.81336C25.2437 9.22527 23.1856 10.0097 22.1574 11.7147C21.1293 13.4197 21.396 15.6059 22.8039 17.0139C24.2117 18.4218 26.398 18.6884 28.103 17.6603C29.808 16.6321 30.5924 14.574 30.0042 12.6718L30.5141 12.162C30.5441 12.1312 30.5596 12.0891 30.5566 12.0463L30.4409 10.7906C30.4373 10.7476 30.4528 10.7053 30.4833 10.6748C30.5138 10.6443 30.5561 10.6288 30.5991 10.6324L31.7486 10.7387C31.7915 10.7419 31.8336 10.7263 31.864 10.6959C31.8944 10.6655 31.91 10.6234 31.9067 10.5805L31.8005 9.43097C31.7969 9.38805 31.8124 9.34565 31.8429 9.31516C31.8734 9.28477 31.9158 9.26926 31.9587 9.27287L33.1082 9.37912C33.151 9.38231 33.1932 9.36669 33.2236 9.3363C33.254 9.30592 33.2696 9.26374 33.2663 9.22092L33.1625 8.06673C33.1589 8.02434 33.1741 7.98259 33.2041 7.95252C33.2342 7.92255 33.276 7.90726 33.3183 7.91097L34.581 8.02424C34.6233 8.02785 34.665 8.01223 34.6944 7.98174L35.1711 7.49076C35.2135 7.44624 35.2372 7.38706 35.2372 7.32554L35.2325 5.06903ZM25.4582 15.9929C25.1278 16.3232 24.6311 16.422 24.1995 16.2432C23.7679 16.0645 23.4865 15.6433 23.4865 15.1762C23.4865 14.709 23.7679 14.2879 24.1995 14.1091C24.6311 13.9303 25.1278 14.0292 25.4582 14.3595C25.909 14.8107 25.909 15.5418 25.4582 15.9929Z" fill="#F4C534"/>
<path d="M35.2325 5.06903C35.2342 4.94248 35.1848 4.82062 35.0956 4.73084C35.0063 4.64116 34.8847 4.59112 34.7581 4.59218L32.4425 4.58984C32.3778 4.60206 32.319 4.63532 32.275 4.6843L27.1458 9.81336C25.2437 9.22527 23.1856 10.0097 22.1574 11.7147C21.1293 13.4197 21.396 15.6059 22.8039 17.0139C24.2117 18.4218 26.398 18.6884 28.103 17.6603C29.808 16.6321 30.5924 14.574 30.0042 12.6718L30.5141 12.162C30.5441 12.1312 30.5596 12.0891 30.5566 12.0463L30.4409 10.7906C30.4373 10.7476 30.4528 10.7053 30.4833 10.6748C30.5138 10.6443 30.5561 10.6288 30.5991 10.6324L31.7486 10.7387C31.7915 10.7419 31.8336 10.7263 31.864 10.6959C31.8944 10.6655 31.91 10.6234 31.9067 10.5805L31.8005 9.43097C31.7969 9.38805 31.8124 9.34565 31.8429 9.31516C31.8734 9.28477 31.9158 9.26926 31.9587 9.27287L33.1082 9.37912C33.151 9.38231 33.1932 9.36669 33.2236 9.3363C33.254 9.30592 33.2696 9.26374 33.2663 9.22092L33.1625 8.06673C33.1589 8.02434 33.1741 7.98259 33.2041 7.95252C33.2342 7.92255 33.276 7.90726 33.3183 7.91097L34.581 8.02424C34.6233 8.02785 34.665 8.01223 34.6944 7.98174L35.1711 7.49076C35.2135 7.44624 35.2372 7.38706 35.2372 7.32554L35.2325 5.06903ZM25.4582 15.9929C25.1278 16.3232 24.6311 16.422 24.1995 16.2432C23.7679 16.0645 23.4865 15.6433 23.4865 15.1762C23.4865 14.709 23.7679 14.2879 24.1995 14.1091C24.6311 13.9303 25.1278 14.0292 25.4582 14.3595C25.909 14.8107 25.909 15.5418 25.4582 15.9929Z" fill="#F4C534"/>
<path d="M35.0643 4.70077L25.4292 14.3358C24.9759 13.9082 24.2645 13.9185 23.8238 14.3592C23.3832 14.7999 23.3728 15.5112 23.8005 15.9645L22.7761 16.989C22.6699 16.8804 22.5684 16.7647 22.4692 16.642C21.2905 15.1536 21.2183 13.0712 22.291 11.5046C23.3636 9.9381 25.3313 9.25258 27.1452 9.81336L32.2743 4.6843C32.3183 4.63532 32.3772 4.60206 32.4419 4.58984L34.7575 4.59218C34.8692 4.59133 34.9779 4.62969 35.0643 4.70077Z" fill="#FFD93B"/>
<path d="M28.111 10.7181C28.0156 10.7181 27.9295 10.6605 27.893 10.5723C27.8564 10.4841 27.8766 10.3827 27.9441 10.3152L31.6192 6.64003C31.6785 6.57894 31.7662 6.5545 31.8486 6.57607C31.931 6.59774 31.9954 6.66202 32.0169 6.74447C32.0386 6.82682 32.0142 6.91447 31.953 6.97376L28.2779 10.6489C28.2337 10.6932 28.1736 10.7182 28.111 10.7181Z" fill="white"/>
<path d="M32.64 6.23403C32.64 6.10376 32.5344 5.99805 32.4041 5.99805C32.2737 5.99805 32.168 6.10376 32.168 6.23403C32.168 6.36439 32.2737 6.47011 32.4041 6.47011C32.5344 6.47011 32.64 6.36439 32.64 6.23403Z" fill="white"/>
</g>
</g>
<defs>
<clipPath id="clip0">
<rect width="77" height="77" fill="white"/>
</clipPath>
<clipPath id="clip1">
<rect width="13.7034" height="13.7034" fill="white" transform="translate(21.5332 4.56836)"/>
</clipPath>
</defs>
</svg>
