<svg width="22" height="23" viewBox="0 0 22 23" fill="none" xmlns="http://www.w3.org/2000/svg">
<path d="M18.9495 0.947266H2.75694C1.23769 0.947266 0.00166667 2.24414 0.00166667 3.8382V15.3058C0.00166667 16.8357 1.14019 18.0919 2.57499 18.1905C1.56339 20.1633 0.221809 21.4781 0.206759 21.4927C-0.2696 21.9529 0.143171 22.7815 0.775067 22.6348C0.98406 22.5862 5.79772 21.4355 8.33535 18.1967H18.9494C20.4687 18.1967 21.7047 16.8998 21.7047 15.3058V3.8382C21.7047 2.24414 20.4687 0.947266 18.9495 0.947266ZM5.15192 6.26223C5.50309 6.26223 5.78776 6.56094 5.78776 6.92937C5.78776 7.29781 5.50309 7.59651 5.15192 7.59651C4.80074 7.59651 4.51608 7.29781 4.51608 6.92937C4.51608 6.56094 4.80074 6.26223 5.15192 6.26223ZM13.9476 12.8892H5.15192C4.80074 12.8892 4.51608 12.5905 4.51608 12.222C4.51608 11.8536 4.80074 11.5549 5.15192 11.5549H13.9476C14.2988 11.5549 14.5834 11.8536 14.5834 12.222C14.5834 12.5905 14.2987 12.8892 13.9476 12.8892ZM16.5969 12.8892C16.2457 12.8892 15.961 12.5905 15.961 12.222C15.961 11.8536 16.2457 11.5549 16.5969 11.5549C16.9481 11.5549 17.2327 11.8536 17.2327 12.222C17.2327 12.5905 16.9481 12.8892 16.5969 12.8892ZM16.5969 10.2206H5.15192C4.80074 10.2206 4.51608 9.9219 4.51608 9.55346C4.51608 9.18502 4.80074 8.88632 5.15192 8.88632H16.5969C16.9481 8.88632 17.2327 9.18502 17.2327 9.55346C17.2327 9.9219 16.9481 10.2206 16.5969 10.2206ZM16.5969 7.55204H7.67403C7.32286 7.55204 7.0382 7.25334 7.0382 6.8849C7.0382 6.51646 7.32286 6.21776 7.67403 6.21776H16.5969C16.9481 6.21776 17.2327 6.51646 17.2327 6.8849C17.2327 7.25334 16.9481 7.55204 16.5969 7.55204Z" fill="#31456A"/>
</svg>
