<svg width="78" height="77" viewBox="0 0 78 77" fill="none" xmlns="http://www.w3.org/2000/svg">
<path d="M57.0027 42.8853H46.6285V37.9395C44.8105 38.9299 42.755 39.4627 40.6478 39.4627H37.3546C35.2473 39.4627 33.1913 38.9299 31.3739 37.9395V42.8859H20.999C17.1488 42.8859 14.0156 45.9624 14.0156 49.7451V76.2303C14.0156 76.6556 14.3649 77.0005 14.7952 77.0005H63.206C63.6368 77.0005 63.9862 76.6556 63.9862 76.2303V49.7451C63.9862 45.9624 60.8536 42.8853 57.0027 42.8853Z" fill="#C5DBFC"/>
<path d="M22.0053 43.2529V42.8828H20.999C17.1488 42.8828 14.0156 45.9599 14.0156 49.7426V76.2278C14.0156 76.6531 14.3649 76.998 14.7952 76.998H18.0599C17.629 76.998 17.2803 76.6531 17.2803 76.2278V49.7426C17.2803 46.736 19.2602 44.1776 22.0053 43.2529Z" fill="#7496CF"/>
<path d="M41.0117 48.6855C40.873 48.9064 40.6279 49.0551 40.3464 49.0551H37.597C37.3233 49.0551 37.0823 48.9152 36.9418 48.7043L35.707 49.2084V76.9978H42.2935V49.2084L41.0117 48.6855Z" fill="#7496CF"/>
<path d="M31.6956 42.9174L34.6062 44.1053V39.1559C33.4755 38.9021 32.3877 38.4903 31.373 37.9375V42.8258C31.4772 42.8428 31.5843 42.8722 31.6956 42.9174Z" fill="#7496CF"/>
<path d="M40.6476 39.4613H37.3544C36.5498 39.4613 35.7536 39.3814 34.9746 39.2305L39.001 43.6646L43.028 39.2305C42.2484 39.3814 41.4522 39.4613 40.6476 39.4613Z" fill="#F8D5AB"/>
<path d="M22.7278 21.0377H25.0171V19.1824C25.0171 15.6412 26.3876 12.9518 29.0894 11.1882C31.4531 9.64615 34.8808 8.83075 39.0018 8.83075C43.1228 8.83075 46.55 9.64615 48.9143 11.1882C51.616 12.9518 52.9859 15.6412 52.9859 19.1824V21.0377H55.2752C55.5341 21.0377 55.7828 21.0764 56.0173 21.1493V13.4094C56.0173 7.50602 51.1518 2.72172 45.1503 2.72172H33.4163C32.2927 1.07917 30.392 0 28.2354 0C26.2531 0 24.4863 0.911743 23.3419 2.33458C22.4933 3.38908 21.9863 4.72379 21.9863 6.176V21.1493C22.2202 21.0764 22.4695 21.0377 22.7278 21.0377Z" fill="#17050A"/>
<path d="M25.0165 27.3283V20.8867H22.7272C21.274 20.8867 20.0957 22.0452 20.0957 23.4745V26.6074C20.0957 28.0367 21.274 29.1958 22.7272 29.1958H25.1629C25.0671 28.5866 25.0165 27.9633 25.0165 27.3283Z" fill="#FF856A"/>
<path d="M55.2756 20.8867H52.9862V27.3283C52.9862 27.9633 52.9362 28.5866 52.8398 29.1958H55.2756C56.7294 29.1958 57.9077 28.0367 57.9077 26.6074V23.4745C57.9077 22.0452 56.7294 20.8867 55.2756 20.8867Z" fill="#FEB19E"/>
<path d="M39.0003 8.67969C31.1927 8.67969 24.8633 11.533 24.8633 19.1812V27.3281C24.8633 34.1122 30.4554 39.612 37.3537 39.612H40.6469C47.5452 39.612 53.1367 34.1122 53.1367 27.3281V19.1812C53.1367 11.533 46.8073 8.67969 39.0003 8.67969Z" fill="#FEB19E"/>
<path d="M28.1476 27.3281V19.7827C28.1214 19.761 28.0958 19.7387 28.0714 19.7146C27.6263 19.2728 27.6281 18.5591 28.075 18.1196C28.1167 18.0785 28.1601 18.0397 28.2029 18.0004C28.7814 11.7468 34.0122 9.08856 40.6422 8.72433C40.1036 8.69437 39.5555 8.67969 39.0003 8.67969C31.1927 8.67969 24.8633 11.533 24.8633 19.1818V27.3281C24.8633 34.1122 30.4554 39.612 37.3537 39.612H40.6374C33.7391 39.612 28.1476 34.1122 28.1476 27.3281Z" fill="#FF856A"/>
<path d="M36.9653 48.2833V45.4841C36.9653 45.3478 37.0111 45.2221 37.0873 45.1193L31.6963 42.9192C30.8989 42.5938 30.2461 43.0244 30.2461 43.8768V49.8906C30.2461 50.743 30.8983 51.1737 31.6963 50.8482L37.0873 48.6482C37.0111 48.5453 36.9653 48.4196 36.9653 48.2833Z" fill="#3F5DE5"/>
<path d="M46.3068 42.9192L40.873 45.1369C40.9409 45.2362 40.9808 45.356 40.9808 45.4841V48.2833C40.9808 48.4114 40.9409 48.5312 40.873 48.6305L46.3068 50.8482C47.1043 51.1737 47.7571 50.743 47.7571 49.8906V43.8768C47.7571 43.0244 47.1043 42.5938 46.3068 42.9192Z" fill="#3F5DE5"/>
<path d="M33.5078 49.8906V43.8767C33.5078 43.8027 33.5149 43.7328 33.5245 43.6652L31.6963 42.9191C30.8983 42.5937 30.2461 43.0249 30.2461 43.8767V49.8906C30.2461 50.743 30.8983 51.1736 31.6963 50.8481L33.5245 50.1021C33.5149 50.0345 33.5078 49.9646 33.5078 49.8906Z" fill="#5272F1"/>
<path d="M41.1317 48.2831C41.1317 48.709 40.7782 49.0574 40.3468 49.0574H37.5974C37.1654 49.0574 36.8125 48.709 36.8125 48.2831V45.4838C36.8125 45.0579 37.1654 44.709 37.5974 44.709H40.3468C40.7782 44.709 41.1317 45.0579 41.1317 45.4838V48.2831Z" fill="#5272F1"/>
<path d="M51.4082 42.8848H55.997V76.9999H51.4082V42.8848Z" fill="#FFD93B"/>
<path d="M51.4082 42.8848H53.4571V76.9999H51.4082V42.8848Z" fill="#F4C534"/>
<path d="M51.4082 69.8848H55.997V76.9995H51.4082V69.8848Z" fill="#FFD93B"/>
<path d="M51.4082 69.8848H53.4571V76.9995H51.4082V69.8848Z" fill="#F4C534"/>
<path d="M22.0059 42.8848H26.5946V76.9999H22.0059V42.8848Z" fill="#FFD93B"/>
<path d="M22.0059 42.8848H24.0548V76.9999H22.0059V42.8848Z" fill="#F4C534"/>
<path d="M22.0059 69.8848H26.5946V76.9995H22.0059V69.8848Z" fill="#FFD93B"/>
<path d="M22.0059 69.8848H24.0548V76.9995H22.0059V69.8848Z" fill="#F4C534"/>
<path d="M39.002 55.8965C38.702 55.8965 38.4063 55.7761 38.1944 55.5652C37.9814 55.3548 37.8594 55.0646 37.8594 54.7686C37.8594 54.4707 37.9814 54.1805 38.1944 53.9714C38.4063 53.7605 38.702 53.6406 39.002 53.6406C39.3019 53.6406 39.5976 53.7605 39.8095 53.9714C40.0225 54.1805 40.1445 54.4719 40.1445 54.7686C40.1445 55.0646 40.0225 55.3548 39.8095 55.5652C39.5976 55.7761 39.3019 55.8965 39.002 55.8965Z" fill="#FFD93B"/>
<path d="M39.002 63.7285C38.702 63.7285 38.4063 63.6081 38.1944 63.3989C37.9814 63.1886 37.8594 62.8984 37.8594 62.6006C37.8594 62.3045 37.9814 62.0143 38.1944 61.8034C38.4063 61.5931 38.702 61.4727 39.002 61.4727C39.3019 61.4727 39.5976 61.5931 39.8095 61.8034C40.0225 62.0143 40.1445 62.3045 40.1445 62.6006C40.1445 62.8984 40.0225 63.1886 39.8095 63.3989C39.5976 63.6081 39.3019 63.7285 39.002 63.7285Z" fill="#FFD93B"/>
<path d="M39.002 71.625C38.702 71.625 38.4063 71.5046 38.1944 71.2943C37.9814 71.0839 37.8594 70.7932 37.8594 70.4971C37.8594 70.1992 37.9814 69.909 38.1944 69.6987C38.4063 69.4896 38.702 69.3691 39.002 69.3691C39.3019 69.3691 39.5976 69.4896 39.8095 69.6987C40.0225 69.909 40.1445 70.1992 40.1445 70.4971C40.1445 70.7932 40.0225 71.0839 39.8095 71.2943C39.5976 71.5046 39.3019 71.625 39.002 71.625Z" fill="#FFD93B"/>
</svg>
