<svg width="487" height="421" viewBox="0 0 487 421" fill="none" xmlns="http://www.w3.org/2000/svg">
<path d="M462.755 63.1986C462.991 61.0962 463.114 58.9587 463.114 56.7944C463.114 55.652 463.078 54.5181 463.011 53.3924L452.427 49.9687C451.776 45.5064 450.495 41.2497 448.68 37.2875L455.698 28.6521C454.076 25.7954 452.214 23.0926 450.139 20.572L439.553 24.0259C436.467 20.8748 432.943 18.1569 429.075 15.9709L429.677 4.8501C426.723 3.50538 423.634 2.40484 420.438 1.57526L413.901 10.5953C411.354 10.1671 408.738 9.93966 406.069 9.93966C404.249 9.93966 402.455 10.0467 400.688 10.2491L394.639 0.894531C391.397 1.55351 388.255 2.48847 385.237 3.67263L385.251 14.8101C381.265 16.7904 377.602 19.3193 374.361 22.3015L363.976 18.294C361.77 20.7058 359.766 23.305 357.997 26.0697L364.55 35.0663C362.521 38.9349 361.016 43.1196 360.132 47.5301L349.385 50.3902C349.149 52.4926 349.025 54.6301 349.025 56.7944C349.025 57.9367 349.062 59.0707 349.129 60.1963L359.713 63.6201C360.365 68.0824 361.644 72.339 363.459 76.3013L356.441 84.9367C358.063 87.7934 359.925 90.4962 362.001 93.0167L372.586 89.5629C375.67 92.714 379.196 95.4336 383.065 97.6179L382.463 108.739C385.416 110.083 388.505 111.184 391.702 112.014L398.238 102.993C400.785 103.422 403.401 103.649 406.071 103.649C407.89 103.649 409.685 103.542 411.451 103.34L417.502 112.693C420.744 112.034 423.887 111.099 426.904 109.914L426.89 98.777C430.876 96.7967 434.539 94.2678 437.78 91.2856L448.165 95.2931C450.371 92.8813 452.375 90.2821 454.145 87.5174L447.592 78.5208C449.62 74.6522 451.126 70.4675 452.01 66.057L462.755 63.1986ZM406.069 79.168C393.712 79.168 383.694 69.1512 383.694 56.7944C383.694 44.4376 393.71 34.4191 406.069 34.4191C418.426 34.4191 428.444 44.4359 428.444 56.7944C428.444 69.1512 418.427 79.168 406.069 79.168Z" fill="#AFC8EC"/>
<path d="M436.586 82.3123C436.397 82.3123 436.208 82.2487 436.052 82.1183C435.698 81.8222 435.649 81.2954 435.944 80.9408C441.567 74.1787 444.664 65.6035 444.664 56.7942C444.664 52.5761 443.974 48.4332 442.614 44.4826C442.463 44.0461 442.696 43.5694 443.132 43.4189C443.569 43.2683 444.046 43.5008 444.196 43.9374C445.618 48.0635 446.339 52.3904 446.339 56.7942C446.339 65.9932 443.104 74.9497 437.232 82.0112C437.064 82.2086 436.827 82.3123 436.586 82.3123Z" fill="white"/>
<path d="M433.346 29.504C433.141 29.504 432.935 29.4287 432.773 29.2765C428.994 25.719 424.617 23.0212 419.764 21.26C419.329 21.1028 419.105 20.6228 419.262 20.1879C419.419 19.753 419.899 19.5289 420.334 19.6878C425.404 21.5276 429.975 24.3425 433.92 28.0572C434.256 28.3733 434.273 28.9035 433.955 29.2397C433.791 29.4153 433.569 29.504 433.346 29.504Z" fill="white"/>
<path d="M397.39 20.177C397.016 20.177 396.676 19.9245 396.581 19.5448C396.467 19.0966 396.74 18.6416 397.186 18.5296C400.336 17.7351 403.595 17.332 406.874 17.332C407.335 17.332 407.71 17.7067 407.71 18.1683C407.71 18.6299 407.335 19.0046 406.874 19.0046C403.733 19.0046 400.612 19.3909 397.596 20.1519C397.526 20.1687 397.457 20.177 397.39 20.177Z" fill="white"/>
<path d="M120.194 157.995C120.43 155.893 120.554 153.756 120.554 151.591C120.554 150.449 120.517 149.315 120.45 148.189L109.866 144.766C109.216 140.303 107.935 136.047 106.12 132.084L113.138 123.449C111.515 120.592 109.654 117.889 107.578 115.369L96.9928 118.823C93.9069 115.672 90.3829 112.954 86.5143 110.768L87.1164 99.647C84.1627 98.3023 81.0735 97.2017 77.8772 96.3721L71.3409 105.392C68.7936 104.964 66.1778 104.737 63.5084 104.737C61.6887 104.737 59.894 104.844 58.1278 105.046L52.0782 95.6914C48.8368 96.3504 45.6941 97.2853 42.6768 98.4695L42.6902 109.607C38.7045 111.587 35.0416 114.116 31.8002 117.098L21.4154 113.091C19.2093 115.503 17.2056 118.102 15.4361 120.867L21.9891 129.863C19.9603 133.732 18.455 137.917 17.5719 142.327L6.82411 145.187C6.58828 147.289 6.46451 149.427 6.46451 151.591C6.46451 152.734 6.5013 153.868 6.56821 154.993L17.1521 158.417C17.8044 162.879 19.0839 167.136 20.8986 171.098L13.8806 179.734C15.5029 182.59 17.3645 185.293 19.4401 187.814L30.0257 184.36C33.1098 187.511 36.6356 190.23 40.5042 192.415L39.9021 203.536C42.8558 204.88 45.945 205.981 49.1412 206.81L55.6775 197.79C58.2248 198.219 60.8407 198.446 63.5101 198.446C65.3298 198.446 67.1244 198.339 68.8906 198.137L74.9419 207.489C78.1833 206.83 81.326 205.896 84.3433 204.711L84.3299 193.574C88.3156 191.594 91.9785 189.065 95.2199 186.083L105.605 190.09C107.811 187.678 109.815 185.079 111.584 182.314L105.031 173.318C107.06 169.449 108.565 165.264 109.45 160.854L120.194 157.995ZM63.5084 173.965C51.1516 173.965 41.1331 163.948 41.1331 151.591C41.1331 139.234 51.1499 129.216 63.5084 129.216C75.8652 129.216 85.8837 139.233 85.8837 151.591C85.8837 163.948 75.8668 173.965 63.5084 173.965Z" fill="#7496CF"/>
<path d="M94.0244 177.109C93.8354 177.109 93.6464 177.046 93.4909 176.915C93.1363 176.619 93.0878 176.092 93.3821 175.738C99.0052 168.976 102.103 160.4 102.103 151.591C102.103 147.373 101.412 143.23 100.052 139.279C99.9017 138.843 100.134 138.366 100.571 138.216C101.007 138.065 101.484 138.298 101.634 138.734C103.056 142.86 103.777 147.187 103.777 151.591C103.777 160.79 100.542 169.747 94.67 176.808C94.5027 177.005 94.2652 177.109 94.0244 177.109Z" fill="white"/>
<path d="M90.7849 124.301C90.5792 124.301 90.3734 124.226 90.2112 124.073C86.4329 120.516 82.0559 117.818 77.2021 116.057C76.7673 115.9 76.5431 115.42 76.7004 114.985C76.8576 114.55 77.3376 114.326 77.7725 114.485C82.8419 116.324 87.413 119.139 91.3586 122.854C91.6948 123.17 91.7115 123.7 91.3937 124.037C91.2298 124.212 91.0073 124.301 90.7849 124.301Z" fill="white"/>
<path d="M54.8287 114.974C54.454 114.974 54.1145 114.721 54.0191 114.342C53.9054 113.893 54.178 113.439 54.6246 113.326C57.774 112.532 61.0338 112.129 64.312 112.129C64.7736 112.129 65.1483 112.504 65.1483 112.965C65.1483 113.427 64.7736 113.801 64.312 113.801C61.171 113.801 58.05 114.188 55.0344 114.949C54.9641 114.966 54.8956 114.974 54.8287 114.974Z" fill="white"/>
<path d="M480.577 151.173C480.577 150.742 480.564 150.312 480.542 149.886L486.035 145.475C485.605 143.274 484.931 141.162 484.039 139.166L476.948 138.629C475.335 136.085 473.248 133.873 470.81 132.115L470.786 125.048C468.811 124.013 466.705 123.192 464.497 122.623L459.65 127.84C458.814 127.749 457.966 127.703 457.106 127.703C454.971 127.703 452.902 127.99 450.935 128.524L445.377 124.12C443.279 125.032 441.307 126.177 439.498 127.529L440.55 134.535C438.478 136.597 436.79 139.044 435.599 141.76L428.685 143.363C428.101 145.497 427.75 147.728 427.663 150.028L433.753 153.548C434.062 156.633 434.97 159.539 436.357 162.154L433.308 168.539C434.616 170.327 436.119 171.965 437.788 173.415L444.318 170.858C446.885 172.528 449.799 173.711 452.928 174.273L456.006 180.61C456.372 180.624 456.74 180.634 457.111 180.634C458.956 180.634 460.761 180.463 462.512 180.139L464.588 173.427C467.612 172.411 470.358 170.796 472.691 168.723L479.554 170.266C480.962 168.613 482.19 166.803 483.21 164.865L479.232 159.023C480.102 156.567 480.577 153.926 480.577 151.173ZM456.849 161.515C451.39 161.515 446.962 157.089 446.962 151.628C446.962 146.169 451.388 141.742 456.849 141.742C462.308 141.742 466.735 146.167 466.735 151.628C466.735 157.088 462.31 161.515 456.849 161.515Z" fill="#AFC8EC"/>
<path d="M229.89 360.873H267.303V247.235H229.89V360.873Z" fill="#9AB3D9"/>
<path d="M106.172 302H391.829C400.757 302 408 294.477 408 285.204V85.7963C408 76.5225 400.757 69 391.829 69H106.172C97.2428 69 90.0001 76.5225 90.0001 85.7963V285.204C90.0001 294.477 97.2428 302 106.172 302Z" fill="#7496CF"/>
<path d="M99.7256 294.439L397.474 294.439V78.001L99.7256 78.001V294.439Z" fill="white"/>
<path d="M99.7188 104.142H397.467V78.0078H99.7188V104.142Z" fill="#4766EA"/>
<path d="M238.176 282.614C238.176 288.367 242.841 293.031 248.593 293.031C254.345 293.031 259.01 288.367 259.01 282.614C259.01 276.862 254.345 272.197 248.593 272.197C242.841 272.187 238.176 276.851 238.176 282.614Z" fill="#9AB3D9"/>
<path d="M177.555 117.759H253.275C254.897 117.759 256.215 116.44 256.215 114.818V114.659C256.215 113.038 254.897 111.719 253.275 111.719H177.555C175.934 111.719 174.615 113.038 174.615 114.659V114.818C174.606 116.448 175.925 117.759 177.555 117.759Z" fill="#E4E7F5"/>
<path d="M177.555 128.653H253.276C254.897 128.653 256.216 127.334 256.216 125.713V125.553C256.216 123.932 254.897 122.613 253.276 122.613H177.555C175.934 122.613 174.615 123.932 174.615 125.553V125.713C174.607 127.343 175.926 128.653 177.555 128.653Z" fill="#E4E7F5"/>
<path d="M177.555 139.55H253.276C254.897 139.55 256.216 138.231 256.216 136.609V136.45C256.216 134.829 254.897 133.51 253.276 133.51H177.555C175.934 133.51 174.615 134.829 174.615 136.45V136.609C174.607 138.239 175.926 139.55 177.555 139.55Z" fill="#E4E7F5"/>
<path d="M242 251.039H130.387C121.08 251.039 113.507 243.466 113.507 234.158V166.271C113.507 156.964 121.08 149.391 130.387 149.391H242C251.307 149.391 258.88 156.964 258.88 166.271V234.158C258.869 243.466 251.307 251.039 242 251.039ZM130.387 151.502C122.243 151.502 115.629 158.127 115.629 166.26V234.148C115.629 242.292 122.254 248.917 130.387 248.917H242C250.144 248.917 256.758 242.292 256.758 234.148V166.26C256.758 158.116 250.133 151.502 242 151.502H130.387Z" fill="#E4E7F5"/>
<path d="M139.211 174.975H233.167C237.282 174.975 240.622 171.636 240.622 167.521V166.099C240.622 161.984 237.282 158.645 233.167 158.645H139.211C135.096 158.645 131.756 161.984 131.756 166.099V167.521C131.756 171.636 135.096 174.975 139.211 174.975Z" fill="#E4E7F5"/>
<path d="M332.745 356.588H164.438V365.163H332.745V356.588Z" fill="#7496CF"/>
<path d="M347.335 158.752L347.325 158.756L347.315 158.759C347.199 158.804 347.071 158.841 346.916 158.885L346.915 158.885L346.904 158.889C344.679 159.585 342.316 159.954 339.857 159.954C336.068 159.954 332.482 159.068 329.308 157.486L329.307 157.486C321.499 153.603 316.13 145.542 316.13 136.227C316.13 123.124 326.754 112.5 339.857 112.5C352.96 112.5 363.584 123.124 363.584 136.227C363.584 144.962 358.869 152.589 351.831 156.715C350.417 157.538 348.908 158.224 347.335 158.752Z" stroke="#D6E4F0"/>
<path d="M334.072 133.664C334.072 133.664 332.413 122.956 341.279 123.161C350.144 123.355 350.026 128.655 349.864 133.901C349.703 139.158 346.31 138.759 350.144 146.063C353.979 153.367 346.827 153.367 346.827 153.367L341.279 145.74L334.072 133.664Z" fill="#3A210F"/>
<path d="M340.309 124.184C340.309 124.184 334.309 125.132 334.072 133.664C333.835 142.196 335.688 144.016 340.945 142.239C346.202 140.461 347.86 131.531 347.979 130.152C348.087 128.773 348.41 123.161 340.309 124.184Z" fill="#FEB19E"/>
<path d="M350.856 153.862C350.878 156.415 349.509 158.128 347.495 159.216C347.355 159.269 347.204 159.313 347.053 159.356C344.78 160.067 342.367 160.444 339.857 160.444C335.99 160.444 332.328 159.539 329.085 157.923C328.353 156.469 329.408 154.4 331.563 151.222C333.039 149.036 334.482 146.817 336.96 145.729C340.612 145.147 344.479 145.115 347.204 146.655C349.369 147.894 350.824 150.113 350.856 153.862Z" fill="#FFD93B"/>
<path d="M352.084 157.146C350.641 157.986 349.1 158.686 347.495 159.225C347.355 159.279 347.205 159.322 347.054 159.365C346.44 157.782 345.912 156.413 345.793 156.058C345.761 155.95 345.686 155.767 345.578 155.509C345.082 154.302 343.962 151.609 343.951 149.508C343.941 148.151 344.393 147.041 345.761 146.718C346.3 146.589 346.784 146.589 347.205 146.664C348.734 146.945 349.618 148.313 350.113 149.53C350.124 149.551 350.124 149.573 350.135 149.595C350.544 150.629 350.673 151.534 350.673 151.534C350.673 151.534 350.695 151.631 350.738 151.803C350.824 152.137 350.986 152.783 351.201 153.623C351.46 154.571 351.761 155.799 352.084 157.146Z" fill="#FEB19E"/>
<path d="M344.316 138.393C343.799 139.373 343.25 145.481 343.25 145.481C343.25 145.481 335.903 148.26 336.657 146.687C337.002 145.976 337.099 145.05 337.11 144.253C337.12 143.628 337.066 143.079 337.023 142.766C337.002 142.605 336.991 142.518 336.991 142.518C336.991 142.518 344.844 137.412 344.316 138.393Z" fill="#FEB19E"/>
<path d="M337.864 130.312C337.864 130.312 340.945 135.332 343.746 137.303C346.547 139.275 345.125 140.858 345.125 140.858C345.125 140.858 352.439 125.454 345.48 124.387C338.521 123.321 334.255 123.246 334.062 133.673C334.072 133.662 337.229 130.226 337.864 130.312Z" fill="#3A210F"/>
<path d="M341.215 142.141C340.084 143.8 337.111 144.252 337.111 144.252C337.122 143.627 337.068 143.078 337.025 142.765C338.942 143.132 341.215 142.141 341.215 142.141Z" fill="#FF9076"/>
<path d="M345.386 155.337C345.386 155.337 350.104 153.484 351.494 153.376C351.494 153.376 350.546 145.803 345.914 146.611C341.292 147.408 345.386 155.337 345.386 155.337Z" fill="#4766EA"/>
<path d="M336.961 145.739C336.961 145.739 333.503 151.06 334.666 151.524C335.84 151.987 342.174 150.899 344.878 145.847C344.878 145.847 340.849 143.778 336.961 145.739Z" fill="#FEB19E"/>
<path d="M296.5 126C296.5 133.974 290.038 140.5 282 140.5C273.987 140.5 267.5 134.003 267.5 126C267.5 117.992 273.992 111.5 282 111.5C290.008 111.5 296.5 117.992 296.5 126Z" stroke="#D6E4F0"/>
<path d="M291.772 134.278L290.665 138.246C288.691 139.646 286.364 140.579 283.842 140.886C283.396 140.943 282.95 140.973 282.493 140.989C282.329 140.994 282.165 140.999 282.001 140.999C281.514 140.999 281.038 140.973 280.561 140.932C280.033 140.881 279.51 140.804 279.002 140.702C276.731 140.24 274.645 139.266 272.871 137.903C272.661 136.59 272.43 135.139 272.23 133.781C273.333 133.371 276.844 132.176 279.059 131.428C279.09 131.418 279.12 131.407 279.151 131.397C279.197 131.382 279.248 131.366 279.295 131.346C279.423 131.3 279.551 131.259 279.669 131.218C279.792 131.177 279.905 131.136 280.012 131.1C280.469 130.946 280.786 130.838 280.899 130.802C280.93 130.792 280.945 130.787 280.945 130.787H280.971L283.949 131.013L284.447 131.049L284.6 131.059C284.6 131.059 284.621 131.064 284.667 131.074C284.847 131.12 285.369 131.259 286.062 131.469C286.062 131.469 286.062 131.469 286.067 131.469C287.83 132.012 290.691 133.038 291.772 134.278Z" fill="white"/>
<path d="M282.779 118.55C282.779 118.55 286.352 119.155 285.748 124.743C285.143 130.336 281.99 129.843 281.78 129.833C281.569 129.823 278.606 129.9 278.453 123.061C278.447 123.066 278.401 118.012 282.779 118.55Z" fill="#FEB19E"/>
<path d="M284.343 128.214C284.343 128.214 284.22 130.516 284.435 131.018C284.65 131.521 281.569 133.105 279.652 131.3C279.652 131.3 280.042 128.783 279.919 127.896C279.801 127.004 284.343 128.214 284.343 128.214Z" fill="#FEB19E"/>
<path d="M285.815 123.164C285.815 123.164 286.209 122.749 286.348 123.174C286.486 123.6 285.712 125.486 285.763 125.568C285.763 125.568 285.692 125.732 285.594 125.64C285.507 125.553 285.815 123.164 285.815 123.164Z" fill="#FEB19E"/>
<path d="M278.488 123.015C278.488 123.015 278.108 122.584 277.955 123.005C277.796 123.425 278.37 125.306 278.442 125.424C278.442 125.424 278.565 125.619 278.662 125.532C278.754 125.44 278.488 123.015 278.488 123.015Z" fill="#FEB19E"/>
<path d="M286.044 122.688C285.921 123.451 285.804 124.02 285.804 124.02L285.286 124.697C285.286 124.697 285.317 123.195 285.24 122.959C285.209 122.872 285.173 122.713 285.137 122.539C285.076 122.257 285.014 121.939 284.973 121.831C284.906 121.662 281.913 120.786 279.247 122.016C279.247 122.016 279.267 122.247 279.267 122.503C279.267 122.8 279.231 123.139 279.098 123.19C278.842 123.282 278.949 124.948 278.949 124.948L278.534 124.466C278.534 124.466 278.416 123.6 278.298 122.6C278.298 122.6 278.298 122.6 278.298 122.595C278.273 122.365 278.242 122.124 278.216 121.888C278.155 120.883 278.257 119.058 279.565 117.987C280.446 117.607 281.856 117.289 284.204 118.007C284.204 118.007 284.742 118.043 284.896 118.186C286.352 119.801 286.044 122.688 286.044 122.688Z" fill="#3A210F"/>
<path d="M280.165 129.09C280.165 129.09 280.734 129.879 282.061 129.854C283.384 129.823 283.963 129.131 283.963 129.131C283.963 129.131 283.338 130.443 282.056 130.428C280.775 130.412 280.165 129.09 280.165 129.09Z" fill="#FF9076"/>
<path d="M279.289 131.346C279.289 131.346 280.247 133.012 282.062 133.171C283.216 133.268 284.21 131.812 284.677 131.095C284.677 131.09 282.098 129.987 279.289 131.346Z" fill="#FEB19E"/>
<path d="M284.349 130.566C284.349 130.566 283.621 131.525 282.062 132.545L283.031 134.037L284.682 131.094L284.349 130.566Z" fill="#EEF0F7"/>
<path d="M279.725 130.787C279.725 130.787 280.652 131.951 282.062 132.545L281.001 134.083L279.145 131.397L279.725 130.787Z" fill="#EEF0F7"/>
<path d="M282.061 132.547L282.891 133.808C282.891 133.808 282.02 134.3 281.21 133.777L282.061 132.547Z" fill="#FFD93B"/>
<path d="M292.724 134.043C292.58 134.555 292.365 135.304 291.806 137.349C291.637 137.498 291.458 137.641 291.278 137.785C291.078 137.944 290.868 138.098 290.663 138.246C288.689 139.646 286.362 140.579 283.84 140.886C284.06 135.693 284.68 131.09 284.68 131.09C285.167 131.218 285.629 131.346 286.065 131.469C286.065 131.469 286.065 131.469 286.07 131.469C289.879 132.561 291.806 133.52 292.468 133.884C292.473 133.884 292.478 133.889 292.483 133.894C292.647 133.991 292.724 134.043 292.724 134.043Z" fill="#223F6C"/>
<path d="M278.996 140.701C276.725 140.239 274.639 139.265 272.865 137.902C272.332 137.492 271.824 137.046 271.353 136.569C271.261 136.477 271.168 136.379 271.081 136.287C270.82 135.169 270.645 134.441 270.63 134.395C270.63 134.395 272.486 133.175 279.053 131.422C279.053 131.422 279.053 131.422 279.053 131.427C279.053 131.576 279.058 135.79 278.996 140.701Z" fill="#223F6C"/>
<path d="M282.537 133.945C282.476 135.314 282.471 137.964 282.491 140.994C282.327 140.999 282.163 141.004 281.999 141.004C281.512 141.004 281.035 140.979 280.559 140.938C280.846 137.206 281.333 134.868 281.553 133.945C281.625 133.643 281.671 133.494 281.671 133.494L282.553 133.638C282.543 133.73 282.543 133.832 282.537 133.945Z" fill="#FFD93B"/>
<path d="M293.482 135.651C292.969 136.262 292.411 136.831 291.806 137.353C291.637 137.502 291.457 137.646 291.278 137.789L292.723 134.047C293.077 134.339 293.364 135.359 293.482 135.651Z" fill="#323657"/>
<path d="M271.352 136.57C271.26 136.478 271.168 136.38 271.081 136.288C270.742 135.934 270.425 135.56 270.127 135.176C270.296 134.771 270.466 134.499 270.63 134.396L271.352 136.57Z" fill="#323657"/>
<path d="M340.084 216.083C353.463 215.906 364.165 204.917 363.989 191.538C363.812 178.159 352.823 167.457 339.444 167.633C326.065 167.81 315.363 178.799 315.54 192.178C315.716 205.557 326.705 216.259 340.084 216.083Z" fill="#EEF0F7"/>
<path d="M339.76 201.539C339.082 201.539 338.543 200.99 338.543 200.322V183.442C338.543 182.763 339.092 182.225 339.76 182.225C340.439 182.225 340.978 182.774 340.978 183.442V200.322C340.978 200.99 340.439 201.539 339.76 201.539Z" fill="#7496CF"/>
<path d="M348.193 193.095H331.313C330.634 193.095 330.095 192.545 330.095 191.877C330.095 191.199 330.645 190.66 331.313 190.66H348.193C348.872 190.66 349.41 191.21 349.41 191.877C349.421 192.556 348.872 193.095 348.193 193.095Z" fill="#7496CF"/>
<path d="M288.007 173.166H274.8C272.172 173.166 270.05 171.033 270.05 168.416V155.198C270.05 152.569 272.183 150.447 274.8 150.447H288.018C290.647 150.447 292.769 152.58 292.769 155.198V168.416C292.769 171.044 290.636 173.166 288.007 173.166Z" fill="#FFD93B"/>
<path d="M280.683 166.811L274.941 161.802C274.467 161.393 274.424 160.682 274.833 160.208C275.243 159.734 275.954 159.691 276.428 160.1L280.489 163.644L286.284 157.181C286.705 156.718 287.416 156.674 287.879 157.095C288.342 157.515 288.385 158.226 287.965 158.689L280.683 166.811Z" fill="#F3F3F3"/>
<path d="M288.007 202.283H274.8C272.172 202.283 270.05 200.15 270.05 197.533V184.315C270.05 181.687 272.183 179.564 274.8 179.564H288.018C290.647 179.564 292.769 181.697 292.769 184.315V197.533C292.769 200.161 290.636 202.283 288.007 202.283Z" fill="#FFD93B"/>
<path d="M280.683 195.928L274.941 190.919C274.467 190.51 274.424 189.799 274.833 189.325C275.243 188.851 275.954 188.808 276.428 189.217L280.489 192.761L286.284 186.298C286.705 185.835 287.416 185.792 287.879 186.212C288.342 186.632 288.385 187.343 287.965 187.806L280.683 195.928Z" fill="#F3F3F3"/>
<path d="M288.007 231.403H274.8C272.172 231.403 270.05 229.27 270.05 226.652V213.434C270.05 210.806 272.183 208.684 274.8 208.684H288.018C290.647 208.684 292.769 210.817 292.769 213.434V226.652C292.769 229.28 290.636 231.403 288.007 231.403Z" fill="#FFD93B"/>
<path d="M134.655 243.273H130.346V419.94H134.655V243.273Z" fill="#706865"/>
<path d="M139.091 373.941H46.1792C40.459 373.941 35.8161 369.298 35.8161 363.578V187.633C35.8161 181.902 40.459 177.27 46.1792 177.27H139.102C144.833 177.27 149.475 181.912 149.475 187.633V363.578C149.465 369.298 144.822 373.941 139.091 373.941Z" fill="#7496CF"/>
<path d="M136.096 366.262H49.1633C43.5078 366.262 38.9188 361.673 38.9188 356.017V190.672C38.9188 185.017 43.5078 180.428 49.1633 180.428H136.096C141.752 180.428 146.341 185.017 146.341 190.672V356.017C146.341 361.673 141.763 366.262 136.096 366.262Z" fill="white"/>
<path d="M109.574 175.773H75.7056V183.422H109.574V175.773Z" fill="#FFD93B"/>
<path d="M125.666 358.829H56.9062C51.3369 358.829 46.8017 354.294 46.8017 348.725V309.589C46.8017 304.02 51.3369 299.484 56.9062 299.484H125.666C131.236 299.484 135.771 304.02 135.771 309.589V348.725C135.76 354.305 131.236 358.829 125.666 358.829ZM56.9062 300.788C52.0586 300.788 48.1052 304.741 48.1052 309.589V348.725C48.1052 353.572 52.0479 357.526 56.9062 357.526H125.666C130.514 357.526 134.467 353.583 134.467 348.725V309.589C134.467 304.741 130.514 300.788 125.666 300.788H56.9062Z" fill="#9AB3D9"/>
<path d="M63.9733 264.16H63.9625C64.027 264.192 64.0377 264.192 63.9733 264.16Z" fill="#323657"/>
<path d="M123.236 260.293C117.053 260.293 112.033 255.263 112.033 249.09C112.033 242.907 117.063 237.887 123.236 237.887C129.419 237.887 134.439 242.917 134.439 249.09C134.439 255.273 129.409 260.293 123.236 260.293ZM123.236 239.19C117.774 239.19 113.336 243.628 113.336 249.09C113.336 254.552 117.774 258.99 123.236 258.99C128.698 258.99 133.136 254.552 133.136 249.09C133.136 243.628 128.698 239.19 123.236 239.19Z" fill="#9AB3D9"/>
<path d="M123.236 286.147C117.053 286.147 112.033 281.116 112.033 274.943C112.033 268.76 117.063 263.74 123.236 263.74C129.419 263.74 134.439 268.771 134.439 274.943C134.439 281.127 129.409 286.147 123.236 286.147ZM123.236 265.044C117.774 265.044 113.336 269.482 113.336 274.943C113.336 280.405 117.774 284.843 123.236 284.843C128.698 284.843 133.136 280.405 133.136 274.943C133.136 269.482 128.698 265.044 123.236 265.044Z" fill="#9AB3D9"/>
<path d="M73.1848 249.23C72.2584 249.23 71.3212 249.187 70.4056 249.101C69.3822 249.004 68.3696 248.853 67.3893 248.648C63.1127 247.776 59.0084 245.912 55.5289 243.23C54.4948 242.443 53.5145 241.571 52.5988 240.655C52.4157 240.461 52.2326 240.278 52.071 240.106C51.4246 239.427 50.8106 238.705 50.2289 237.951C46.2539 232.824 44.1641 226.694 44.1641 220.199C44.1641 204.191 57.1879 191.178 73.1848 191.178V192.481C57.8988 192.481 45.4567 204.913 45.4567 220.209C45.4567 226.403 47.4604 232.274 51.2415 237.154C51.7909 237.876 52.3834 238.565 52.9974 239.212C53.159 239.384 53.3206 239.556 53.5037 239.74C54.3763 240.623 55.3135 241.452 56.3045 242.206C59.6224 244.759 63.5436 246.548 67.6371 247.377C68.5743 247.571 69.5438 247.711 70.5241 247.808C71.4074 247.894 72.3015 247.937 73.1848 247.937C73.508 247.937 73.8096 247.937 74.0897 247.927C74.93 247.894 75.7702 247.84 76.5889 247.733C81.1133 247.183 85.4761 245.492 89.1926 242.853C89.5804 242.573 89.9682 242.282 90.3344 242.002C90.6468 241.754 90.9808 241.485 91.304 241.194C92.4135 240.235 93.4584 239.179 94.4064 238.059C98.5969 233.071 100.902 226.748 100.902 220.22C100.902 218.863 100.805 217.484 100.601 216.148L101.893 215.954C102.098 217.355 102.206 218.787 102.206 220.209C102.206 227.039 99.7926 233.664 95.4082 238.878C94.4172 240.052 93.3292 241.162 92.1657 242.163C91.821 242.465 91.4763 242.745 91.1424 243.004C90.7653 243.305 90.356 243.607 89.9466 243.898C86.047 246.666 81.4796 248.433 76.7397 249.015C75.8887 249.122 75.0054 249.187 74.1328 249.219C73.8312 249.219 73.5188 249.23 73.1848 249.23Z" fill="#9AB3D9"/>
<path d="M93.4373 235.57C93.3403 235.441 93.2434 235.333 93.1572 235.258C93.1249 235.215 93.0818 235.182 93.0064 235.139C92.9956 235.128 92.9848 235.128 92.9848 235.118C87.5771 232.123 77.8066 229.688 77.8066 229.688C77.5265 229.042 77.548 226.78 77.5911 225.433C78.6037 224.259 79.5194 222.417 80.0364 219.552C80.198 219.67 80.3273 219.39 80.3273 219.39C80.2411 219.228 81.6954 215.663 81.4368 214.855C81.286 214.402 80.9844 214.456 80.7474 214.586C80.7797 214.381 80.8228 214.165 80.8551 213.939C80.8551 213.939 81.4368 208.478 78.6683 205.429C78.3883 205.149 77.3649 205.084 77.3649 205.084C72.9267 203.727 70.2551 204.33 68.5854 205.041C66.1078 207.066 65.9246 210.514 66.0323 212.42C66.0862 212.873 66.1293 213.325 66.1832 213.767C66.1832 213.778 66.1832 213.778 66.1832 213.778C66.2047 213.95 66.2263 214.122 66.2478 214.295C66.0216 214.155 65.7092 214.09 65.5476 214.532C65.2567 215.329 66.334 218.884 66.4632 219.099C66.4632 219.099 66.7002 219.465 66.8834 219.304C67.3897 222.428 68.3161 224.356 69.2856 225.541C69.1887 227.297 68.8763 229.494 68.7901 230.076C66.5171 230.787 55.1415 233.814 51.7051 236.076C51.3927 236.27 51.0695 236.787 50.7571 237.552C51.3173 238.285 51.9205 238.985 52.5561 239.664C52.7285 239.847 52.9008 240.019 53.0732 240.202C53.9673 241.107 54.926 241.947 55.9386 242.723C59.2888 245.298 63.2423 247.14 67.5405 248.012C68.51 248.206 69.4903 248.357 70.4921 248.454C71.3862 248.54 72.2911 248.583 73.2175 248.583C73.5299 248.583 73.8423 248.583 74.1439 248.572C75.0057 248.54 75.8567 248.475 76.697 248.378C81.4692 247.797 85.8643 246.03 89.6023 243.38C90.0009 243.1 90.3887 242.809 90.7657 242.507C91.0997 242.238 91.4336 241.969 91.7568 241.689C92.8986 240.698 93.9543 239.631 94.9238 238.479C94.3745 237.143 93.8681 236.141 93.4373 235.57Z" fill="#9AB3D9"/>
<path d="M379.711 301.156H403.076V298.302H379.711V301.156Z" fill="#CCBDB7"/>
<path d="M468.349 269.665C468.349 269.665 469.76 289.519 465.882 291.899C463.447 293.386 453.763 298.406 454.043 299.354C454.334 300.291 459.516 307.735 459.516 307.735C459.516 307.735 478.13 295.476 478.733 291.609C479.315 287.838 477.818 262.534 475.254 261.36C473.337 260.487 472.324 261.209 469.911 263.008C466.528 265.518 468.349 269.665 468.349 269.665Z" fill="#1F3961"/>
<path d="M434.415 275.33L432.777 274.727C432.777 274.727 434.824 269.923 435.718 270.041C436.752 270.181 438.034 270.515 438.034 270.515L434.415 275.33Z" fill="#EAD8CF"/>
<path d="M434.037 276.161C434.242 276.01 437.528 269.719 437.528 269.719L444.53 270.667L440.749 278.11L434.037 276.161Z" fill="#DA9B5B"/>
<path d="M445.435 384.424C445.435 384.424 446.017 388.442 446.092 389.045C446.168 389.649 452.534 388.69 452.534 388.69L453.051 383.907C453.041 383.907 446.233 383.864 445.435 384.424Z" fill="#424773"/>
<path d="M404.641 384.466C404.641 384.466 405.222 388.484 405.287 389.087C405.362 389.69 411.729 388.732 411.729 388.732L412.246 383.949C412.246 383.949 405.438 383.895 404.641 384.466Z" fill="#424773"/>
<path d="M410.361 281.482H410.372C410.307 281.504 410.297 281.515 410.361 281.482Z" fill="#323657"/>
<path d="M330.573 396.82H333.525V306.063H330.573V396.82Z" fill="#3A210F"/>
<path d="M388.924 282.57C388.924 283.928 390.023 285.037 391.391 285.037C392.748 285.037 393.858 283.938 393.858 282.57C393.858 281.213 392.759 280.104 391.391 280.104C390.034 280.104 388.924 281.202 388.924 282.57Z" fill="#3150BC"/>
<path d="M456.736 345.147C461.982 345.147 466.248 343.381 469.394 339.901C476.514 332.038 475.232 318.217 475.178 317.635C475.071 316.547 474.101 315.75 473.013 315.857C471.925 315.965 471.128 316.935 471.236 318.023C471.246 318.184 472.388 330.702 466.453 337.241C464.051 339.891 460.873 341.172 456.736 341.172C455.637 341.172 454.754 342.056 454.754 343.155C454.754 344.264 455.637 345.147 456.736 345.147Z" fill="#9AB3D9"/>
<path d="M244.243 380.603C244.243 380.603 242.95 378.481 241.173 377.662C239.395 376.833 235.754 379.72 235.431 381.325L231.208 387.487L232.005 388.036L234.257 384.751C232.727 388.445 230.53 392.862 232.07 395.092C234.138 398.076 238.824 401.092 240.063 400.564C241.302 400.047 241.054 391.365 241.054 391.365C239.729 383.706 244.243 380.603 244.243 380.603Z" fill="#1D3B54"/>
<path d="M244.241 380.603C244.241 380.603 242.701 383.565 241.914 385.86C241.128 388.154 240.977 394.521 240.481 394.963C239.986 395.404 236.054 393.422 235.526 391.041C234.998 388.661 236.593 383.91 238.112 381.411C239.63 378.912 241.171 377.662 241.171 377.662C241.171 377.662 243.842 378.179 244.241 380.603Z" fill="#DE9673"/>
<path d="M259.41 324.855C259.41 324.855 257.008 337.632 257.008 340.68C257.008 343.739 256.178 348.727 254.228 352.433C252.289 356.138 243.758 381.432 243.014 384.373C242.271 387.314 241.635 390.104 241.635 390.104C241.635 390.104 237.38 388.165 237.38 385.385C237.38 382.606 241.086 359.661 241.732 355.126C242.379 350.591 247.743 327.365 247.743 327.365L259.41 324.855Z" fill="#FF9076"/>
<path d="M245.805 324.027C245.805 324.027 246.634 334.67 246.548 337.449C246.451 340.228 245.158 346.52 245.158 348.189C245.158 349.859 245.158 384.374 246.537 388.532C247.916 392.701 242.659 389.835 242.659 389.835C242.659 389.835 233.503 367.127 233.503 357.658C233.503 348.189 234.612 343.471 233.966 337.449C233.32 331.438 230.443 323.51 230.443 323.51L245.805 324.027Z" fill="#FEB19E"/>
<path d="M231.94 273.029C231.94 273.029 227.017 279.062 225.714 287.12C224.421 295.167 227.244 310.356 228.256 314.751C229.14 318.607 230.831 330.942 230.917 332.234C230.917 332.234 247.474 334.109 260.067 330.134C260.067 330.134 261.22 312.898 261.963 305.594C262.706 298.28 259.087 273.589 259.087 273.589L231.94 273.029Z" fill="#4766EA"/>
<path d="M250.878 399.024C244.943 393.843 246.537 388.521 246.537 388.521C246.537 388.521 244.167 387.681 242.239 388.155C240.311 388.639 239.277 393.229 240.052 394.694L240.655 402.234L241.636 402.159L241.313 398.13C242.454 402.019 243.542 406.899 246.171 407.663C249.704 408.698 255.317 408.084 255.963 406.888C256.599 405.703 250.878 399.024 250.878 399.024Z" fill="#1D3B54"/>
<path d="M254.358 216.399C254.358 216.399 252.893 225.135 254.154 228.065C255.425 230.995 247.421 224.64 247.421 224.64C247.421 224.64 250.75 215.009 254.358 216.399Z" fill="#3A210F"/>
<path d="M251.407 192.13C251.407 192.13 238.555 189.189 236.961 202.913C235.356 216.637 241.141 218.361 237.23 227.668C233.32 236.975 246.785 224.641 246.785 224.641L251.407 192.13Z" fill="#3A210F"/>
<path d="M250.297 191.925C253.594 191.861 260.854 193.724 261.738 202.482C261.738 202.482 261.404 204.831 260.79 206.662C260.165 208.493 261.673 213.987 261.231 214.246C260.79 214.504 258.991 214.795 258.991 214.795C258.991 214.795 256.901 220.698 254.811 220.591C252.721 220.483 244.857 218.619 241.335 211.111C237.812 203.592 236.983 192.195 250.297 191.925Z" fill="#FEB19E"/>
<path d="M214.36 300.617C214.36 300.617 214.673 295.339 216.062 294.52C217.463 293.702 216.655 295.339 216.655 295.339C216.655 295.339 215.868 299.174 215.696 300.725C215.685 300.79 214.36 300.617 214.36 300.617Z" fill="#1D3B54"/>
<path d="M220.835 288.726C220.835 288.726 221.223 291.096 221.944 293.379C222.666 295.663 223.323 296.385 223.032 297.699C222.817 298.69 221.697 299.434 221.417 299.11C221.137 298.798 220.997 294.952 219.402 294.974C217.808 294.995 219.876 299.724 218.928 299.38C217.98 299.035 214.339 297.031 214.565 295.103C214.792 293.164 216.257 291.774 216.16 288.877C216.074 286.259 216.892 285.16 216.892 285.16L220.835 288.726Z" fill="#FEB19E"/>
<path d="M219.562 294.802C219.562 294.802 221.684 295.34 221.555 302.504L219.153 302.105C219.153 302.105 219.196 298.141 218.485 295.987C218.485 295.997 218.604 294.597 219.562 294.802Z" fill="#1D3B54"/>
<path d="M228.364 304.13L209.685 298.83L209.739 321.84L228.321 332.979L228.364 304.13Z" fill="#FFCD4D"/>
<path d="M228.321 332.979L225.984 333.409L207.908 322.163L208.123 298.938L209.685 298.83L228.321 332.979Z" fill="#FFE080"/>
<path d="M252.076 224.435C252.076 224.435 257.052 226.482 257.947 227.106C258.841 227.731 260.618 234.927 261.06 235.552C261.501 236.177 265.8 241.52 265.207 245.84C264.744 249.244 262.816 251.043 261.577 252.378C260.327 253.714 259.175 260.889 258.787 261.955C258.399 263.022 259.638 277.026 259.638 277.026C259.638 277.026 245.03 282.713 231.953 273.018C231.953 273.018 234.56 263.636 234.56 261.955C234.56 260.264 232.868 248.35 228.333 241.326C223.798 234.302 229.13 226.826 232.599 225.943C236.068 225.049 242.736 222.561 242.736 222.561L252.076 224.435Z" fill="#4766EA"/>
<path d="M236.131 224.889C236.131 224.889 228.816 224.436 225.154 228.702C221.491 232.968 221.685 238.042 220.748 240.239C219.811 242.437 217.678 251.906 217.215 253.446C216.751 254.976 216.288 263.605 215.631 270.542C214.963 277.48 215.103 290.428 215.103 290.428L222.105 289.157C222.105 289.157 222.385 276.812 222.568 269.648C222.752 262.484 228.569 249.838 230.766 244.301C232.953 238.774 241.711 228.358 236.131 224.889Z" fill="#4766EA"/>
<path d="M257.214 226.461C257.214 226.461 260.435 226.666 261.964 229.865C263.494 233.064 264.086 235.725 264.485 236.533C264.884 237.33 270.431 247.876 270.765 250.214C271.099 252.552 270.561 256.817 267.631 257.949C264.7 259.08 254.165 259.22 254.165 259.22C254.165 259.22 256.837 253.801 254.37 251C254.37 251 262.018 249.622 263.828 249.438C265.724 249.234 254.79 228.863 257.214 226.461Z" fill="#4766EA"/>
<path d="M239.695 235.51L253.947 268.786L271.711 260.426L258.569 228.465L239.695 235.51Z" fill="#1D3B54"/>
<path d="M247.872 251.863C247.872 251.863 245.944 252.38 245.33 252.466C244.716 252.553 245.47 253.683 246.224 253.716C246.978 253.748 247.872 251.863 247.872 251.863Z" fill="#FF8B70"/>
<path d="M249.167 261.331C249.167 261.331 250.061 261.288 250.449 261.072C250.449 261.072 251.117 260.631 251.602 260.35C251.763 260.264 251.893 260.189 251.99 260.146C252.388 259.984 253.293 259.747 254.133 259.101C254.974 258.455 257.699 255.858 257.699 255.858L255.9 253.144L254.51 250.979C254.51 250.979 248.65 251.14 247.81 251.657C247.724 251.711 247.648 251.765 247.573 251.819C246.894 252.325 246.603 252.982 246.28 253.295C246.162 253.413 245.052 254.609 245.128 255.094C245.225 255.761 245.559 256.192 245.979 256.397C245.979 256.397 246.216 257.7 246.894 258.282C246.894 258.282 247.077 259.499 248.133 259.973C248.112 259.984 248.435 261.191 249.167 261.331Z" fill="#FEB19E"/>
<path d="M254.359 251.227C254.359 251.227 263.031 249.676 265.433 249.428C265.433 249.428 265.595 246.38 265.164 243.805C264.722 241.23 262.611 237.762 262.611 237.762L267.049 241.823C267.049 241.823 270.701 248.814 270.776 250.441C270.862 252.078 271.293 254.599 269.128 257.152C266.973 259.705 256.783 258.542 256.783 258.542C256.783 258.542 257.634 255.407 254.359 251.227Z" fill="#4766EA"/>
<path d="M251.698 219.2C251.698 219.2 251.418 220.029 251.094 221.257C250.922 221.882 250.75 222.615 250.588 223.401C250.146 225.566 249.856 228.098 250.373 229.8C250.373 229.8 245.708 231.276 242.24 224.64C242.24 224.64 244.006 217.649 242.089 213.318C240.16 208.998 251.698 219.2 251.698 219.2Z" fill="#FEB19E"/>
<path d="M261.727 202.482C261.727 202.482 256.276 205.972 250.955 206.564C245.633 207.146 242.66 215.204 242.66 215.204C242.66 215.204 234.29 202.159 241.033 194.144C247.777 186.14 263.171 192.345 261.727 202.482Z" fill="#3A210F"/>
<path d="M248.756 206.262C248.756 205.239 247.658 203.666 245.934 205.013C244.21 206.37 246.333 211.315 247.733 210.873C249.123 210.442 248.756 207.318 248.756 206.262Z" fill="#FF9076"/>
<path d="M252.363 224.317C252.363 224.317 254.561 230.802 249.422 230.759C244.284 230.726 242.054 226.687 240.589 223.11C240.589 223.11 242.959 221.958 244.058 221.796C245.157 221.634 252.363 224.317 252.363 224.317Z" fill="#FEB19E"/>
<path d="M221.555 302.202L219.154 302.515V301.395L221.555 302.202Z" fill="#1D3B54"/>
<path d="M215.717 300.542L214.382 300.704C214.382 300.704 214.382 300.305 214.393 300.165C214.403 300.036 215.674 300.456 215.717 300.542Z" fill="#1D3B54"/>
<path d="M246.538 388.52C246.538 388.52 247.217 391.827 248.057 394.143C248.898 396.46 252.83 401.555 252.722 402.223C252.614 402.891 248.251 403.828 246.323 402.287C244.395 400.747 242.617 395.986 242.219 393.055C241.82 390.125 242.036 388.229 242.036 388.229C242.036 388.229 244.686 386.861 246.538 388.52Z" fill="#FEB19E"/>
<path d="M251.503 219.869C251.33 220.494 251.093 221.259 250.899 222.002C246.687 219.158 244.662 215.775 244.662 215.775C247.043 218.07 251.503 219.869 251.503 219.869Z" fill="#FF8B70"/>
<path d="M121.693 111.117H160.307C163.455 111.117 166 113.765 166 117.03V133.213C166 136.478 163.446 139.117 160.307 139.117H121.693C118.545 139.117 116 136.469 116 133.213V117.021C115.992 113.757 118.545 111.117 121.693 111.117Z" fill="#E4E7F5"/>
<path d="M80.0274 268.793H80.0166C80.0811 268.814 80.0811 268.814 80.0274 268.793Z" fill="#323657"/>
<path d="M49.7889 263.525H97.3166C98.6416 263.525 99.7081 262.448 99.7081 261.134V259.669C99.7081 258.344 98.6309 257.277 97.3166 257.277H49.7889C48.4639 257.277 47.3975 258.355 47.3975 259.669V261.134C47.3867 262.459 48.4639 263.525 49.7889 263.525Z" fill="#9AB3D9"/>
<path d="M49.7889 274.286H97.3166C98.6416 274.286 99.7081 273.209 99.7081 271.895V270.44C99.7081 269.115 98.6309 268.049 97.3166 268.049H49.7889C48.4639 268.049 47.3975 269.126 47.3975 270.44V271.895C47.3867 273.209 48.4639 274.286 49.7889 274.286Z" fill="#9AB3D9"/>
<path d="M49.4225 285.803H96.9502C98.2752 285.803 99.3417 284.725 99.3417 283.411V281.946C99.3417 280.621 98.2645 279.555 96.9502 279.555H49.4225C48.0975 279.555 47.0311 280.632 47.0311 281.946V283.411C47.0203 284.725 48.0975 285.803 49.4225 285.803Z" fill="#9AB3D9"/>
<path d="M129.363 232.877H118.008C115.542 232.877 113.549 230.874 113.549 228.417V193.321C113.549 190.854 115.552 188.861 118.008 188.861H129.363C131.829 188.861 133.822 190.865 133.822 193.321V228.417C133.822 230.884 131.829 232.877 129.363 232.877Z" fill="#9AB3D9"/>
<path d="M7.30179 311.677C7.30179 311.677 8.0774 312.949 8.17435 313.993C8.24976 314.823 8.94996 316.051 9.24082 316.73C9.54244 317.408 10.512 320.489 10.5443 321.297C10.555 321.62 9.82252 323.689 9.93025 324.356C10.038 325.014 10.415 326.328 9.82252 326.414C9.23004 326.5 8.55138 325.423 8.55138 325.423C8.55138 325.423 8.60524 326.037 8.10972 326.263C7.12943 326.716 6.61236 326.317 6.61236 326.317C6.61236 326.317 6.25687 326.985 5.80443 327.082C4.8026 327.276 4.31784 326.877 4.31784 326.877C4.31784 326.877 3.87617 327.254 3.18674 327.243C2.30341 327.222 1.93715 326.468 1.93715 326.468C1.93715 326.468 0.81682 326.694 0.493649 326.177C0.170478 325.66 0.22434 325.1 0.0950714 324.626C-0.0341971 324.152 0.0627543 319.897 1.50625 316.827C2.94975 313.756 1.13999 310.762 1.13999 310.762L7.30179 311.677Z" fill="#FEB19E"/>
<path d="M8.71309 325.025C8.71309 325.025 8.81004 321.201 7.80821 320.393C6.80638 319.574 6.68788 320.964 6.68788 320.964C6.68788 320.964 6.82792 319.596 5.72914 319.413C4.63036 319.23 4.58727 320.846 4.58727 320.846C4.58727 320.846 4.40414 319.79 3.25149 320.005C2.09885 320.221 2.36816 321.567 2.36816 321.567C2.36816 321.567 1.26938 320.253 0.547629 321.514C-0.658877 323.646 0.504539 326.167 0.504539 326.167C0.504539 326.167 0.849255 326.749 1.94804 326.458C1.94804 326.458 2.68056 327.945 4.32873 326.878C4.32873 326.878 6.00922 327.805 6.62325 326.318C6.62325 326.329 8.47609 327.201 8.71309 325.025Z" fill="#FF9076"/>
<path d="M20.2723 256.611C20.2723 256.611 13.7226 278.425 11.5143 286.472C10.8249 288.993 9.14439 313.09 8.84277 314.06C8.54114 315.029 0.246414 316.354 0.246414 316.354C0.246414 316.354 1.24824 286.203 1.3452 284.565C1.44215 282.917 10.5017 249.253 13.1409 248.058C15.1123 247.164 16.1572 247.907 18.6456 249.749C22.1466 252.345 20.2723 256.611 20.2723 256.611Z" fill="#4766EA"/>
<path d="M99.083 216.252L84.0995 226.053L84.8248 227.162L99.8083 217.361L99.083 216.252Z" fill="#4766EA"/>
<path d="M101.398 221.88C101.398 221.88 101.258 222.731 101.01 223.065C101.01 223.065 100.525 223.646 100.202 224.088C100.105 224.228 100.019 224.347 99.965 224.433C99.7711 224.788 99.4371 225.629 98.7261 226.361C98.0152 227.083 95.2359 229.388 95.2359 229.388L92.8552 227.363L90.3883 226.253C90.3883 226.253 91.778 220.242 92.3597 219.488C92.4135 219.413 92.4782 219.348 92.5428 219.284C93.103 218.691 93.7601 218.497 94.094 218.217C94.2125 218.12 95.4837 217.205 95.9361 217.323C96.5609 217.485 96.9379 217.851 97.078 218.271C97.078 218.271 98.2953 218.648 98.7692 219.359C98.7692 219.359 99.9003 219.671 100.245 220.727C100.234 220.738 101.355 221.18 101.398 221.88Z" fill="#FEB19E"/>
<path d="M14.9602 405.539C14.9602 405.539 14.3678 409.675 14.2924 410.3C14.217 410.925 7.65658 409.934 7.65658 409.934L7.12874 405C7.11796 405.011 14.1415 404.957 14.9602 405.539Z" fill="#424773"/>
<path d="M14.3587 409.782C14.3587 409.782 16.4378 412.281 18.4522 413.369C20.4667 414.457 23.623 414.888 24.8079 416.008C25.6697 416.816 27.9319 420.317 19.5833 420.253C11.2348 420.177 7.20588 420.748 6.31178 419.402C5.41767 418.055 7.60446 409.502 7.60446 409.502C7.60446 409.502 9.58658 410.213 14.3587 409.782Z" fill="#292C47"/>
<path d="M61.9827 405.539C61.9827 405.539 61.3902 409.675 61.3148 410.3C61.2394 410.925 54.679 409.934 54.679 409.934L54.1512 405C54.1404 405.011 61.164 404.957 61.9827 405.539Z" fill="#424773"/>
<path d="M61.379 409.782C61.379 409.782 63.4581 412.281 65.4725 413.369C67.487 414.457 74.8876 415.351 76.0726 416.472C76.9343 417.28 78.3563 420.554 66.6036 420.253C58.255 420.037 54.2262 420.748 53.3321 419.402C52.438 418.055 54.6248 409.502 54.6248 409.502C54.6248 409.502 56.4884 410.256 61.379 409.782Z" fill="#292C47"/>
<path d="M20.402 299.139C20.402 299.139 14.2402 308.931 14.6927 317.786C15.1559 326.641 12.452 336.314 11.5364 345.557C10.5022 355.866 6.27945 380.287 6.12864 385.802C5.97783 391.318 6.78576 408.931 6.78576 408.931L15.2421 409.125C15.2421 409.125 22.3518 366.444 24.1831 362.092C26.0252 357.74 35.1494 326.694 35.451 323.204C35.7527 319.725 20.402 299.139 20.402 299.139Z" fill="#223F6C"/>
<path d="M52.8597 300.465C52.8597 300.465 57.5026 324.735 58.1167 330.154C58.7307 335.572 59.14 356.384 59.4417 359.767C59.7433 363.149 62.3071 403.987 63.1258 409.126H52.3103C52.3103 409.126 44.0048 379.362 44.0048 365.282C44.0048 351.203 37.5953 334.667 33.4479 325.381C29.3113 316.096 19.8316 315.869 17.2894 298.634C17.2894 298.634 49.4126 295.003 52.8597 300.465Z" fill="#223F6C"/>
<path d="M30.6876 216.774C30.6876 216.774 38.9608 213.682 42.785 219.984C46.5984 226.286 46.2321 238.9 42.0632 240.452C37.8943 242.003 31.6248 241.195 29.4919 237.252C27.359 233.31 25.4307 227.611 25.5169 223.798C25.6031 219.995 28.5116 217.883 30.6876 216.774Z" fill="#FEB19E"/>
<path d="M41.1593 240.742C41.1593 240.742 40.8146 242.972 41.3856 244.081C41.9565 245.18 30.6671 245.213 30.6671 245.213C30.6671 245.213 29.7514 239.223 28.0171 234.171C26.2612 229.097 41.1593 240.742 41.1593 240.742Z" fill="#FEB19E"/>
<path d="M28.0072 234.16C28.0072 234.16 28.7828 235.442 31.9714 234.947C35.1493 234.451 39.0381 230.218 40.3631 229.754C41.6881 229.291 41.6989 228.505 41.6989 228.505L42.5283 229.722L43.9395 229.808C43.9395 229.808 42.6576 226.027 44.5966 224.476C46.5357 222.936 42.5822 212.217 32.3808 215.783C32.3808 215.783 24.5492 217.937 24.8293 222.397C25.1094 226.867 26.2513 231.941 28.0072 234.16Z" fill="#3A210F"/>
<path d="M42.0533 243.941C42.0533 243.941 42.0209 241.841 41.0622 241.636C40.1142 241.431 30.5376 240.516 29.3742 240.979V243.424C29.3634 243.424 31.6256 244.814 42.0533 243.941Z" fill="#E4E7F5"/>
<path d="M41.4832 226.878C41.3001 226.135 39.4041 223.991 38.6716 226.285C37.9391 228.569 39.7704 231.65 40.7938 231.381C41.8171 231.122 41.9356 228.774 41.4832 226.878Z" fill="#FEB19E"/>
<path d="M57.8769 247.13C51.3165 246.268 42.0523 243.941 42.0523 243.941L29.3732 243.424C29.3732 243.424 17.7391 245.988 13.15 248.056C12.7191 248.25 12.7084 258.441 11.5234 261.113L15.326 269.127C15.326 269.127 17.5236 285.006 17.976 292.072C18.1807 295.315 13.4516 322.472 13.4516 322.472C13.4516 322.472 18.5254 323.969 27.1864 324.917C35.8366 325.876 57.4676 324.573 57.5968 323.549C57.7369 322.526 53.4064 285.49 53.2232 283.562C52.9324 280.621 54.2358 264.969 54.2358 264.969C56.2287 263.418 73.7769 255.274 78.5706 251.03C79.8525 249.899 85.2603 244.631 86.8007 242.81C92.2408 236.379 96.7005 230.853 97.2499 229.668C97.864 228.989 91.3359 225.445 90.7434 225.241C90.2263 225.068 82.8688 234.602 80.0357 237.672C78.7753 239.04 73.5292 242.853 73.5292 242.853C73.5292 242.853 61.9812 247.356 57.8769 247.13Z" fill="#4766EA"/>
<path d="M28.3288 217.518C28.3288 217.518 17.7719 218.347 28.0056 234.15L28.3288 217.518Z" fill="#3A210F"/>
<path d="M99.8028 217.355L100.675 216.041L99.0812 216.246L99.8028 217.355Z" fill="#DFE1E8"/>
<path d="M397.815 300.861H431.436V298.868H397.815V300.861Z" fill="#E2D2CA"/>
<path d="M426.917 306.055H423.977V396.812H426.917V306.055Z" fill="#3A210F"/>
<path d="M386.974 300.863H395.818V273.986H386.974V300.863Z" fill="#3150BC"/>
<path d="M314.01 306.059H443.494V300.899H314.01V306.059Z" fill="#3A210F"/>
<path d="M446.018 388.539C446.018 388.539 444.003 390.963 442.054 392.018C440.104 393.074 437.034 393.494 435.881 394.582C435.052 395.369 432.843 398.762 440.955 398.697C449.056 398.633 452.966 399.182 453.839 397.878C454.711 396.575 452.578 388.27 452.578 388.27C452.578 388.27 450.661 388.959 446.018 388.539Z" fill="#292C47"/>
<path d="M405.223 388.582C405.223 388.582 403.208 391.006 401.259 392.061C399.309 393.117 392.124 393.99 390.971 395.078C390.142 395.864 388.752 399.042 400.16 398.74C408.261 398.525 412.171 399.225 413.044 397.921C413.916 396.618 411.783 388.312 411.783 388.312C411.783 388.312 409.973 389.045 405.223 388.582Z" fill="#292C47"/>
<path d="M465.978 315.018C465.978 315.018 442.828 318.939 437.604 319.757C432.379 320.576 404.026 327.632 400.482 329.786C397.66 331.499 401.958 372.596 402.971 388.27H414.142L414.949 341.238C428.35 341.571 437.916 338.103 447.665 339.589C457.425 341.076 465.558 343.177 471.763 334.86C471.752 334.849 471.978 316.827 465.978 315.018Z" fill="#3150BC"/>
<path d="M443.162 388.303L454.042 387.635L455.098 341.238C460.861 341.378 462.843 341.012 467.508 340.452L476.298 320.027C468.596 321.568 443.927 327.794 440.642 329.787C437.819 331.489 442.15 372.629 443.162 388.303Z" fill="#263E92"/>
<path d="M455.315 228.235C455.315 228.235 446.826 225.886 443.594 232.479C440.352 239.072 441.828 251.557 446.104 252.731C450.381 253.905 456.532 252.559 458.31 248.454C460.087 244.35 461.498 238.533 461.078 234.752C460.647 230.982 457.577 229.139 455.315 228.235Z" fill="#FEB19E"/>
<path d="M448.323 251.416C448.323 251.416 448.42 256.426 447.86 257.492C447.31 258.558 459.677 258.289 459.677 258.289C459.677 258.289 457.727 252.267 458.837 247.151C459.925 242.077 448.323 251.416 448.323 251.416Z" fill="#FEB19E"/>
<path d="M459.505 245.255C459.505 245.255 458.848 246.602 455.638 246.386C452.438 246.171 448.215 242.303 446.858 241.959C445.501 241.614 445.415 240.838 445.415 240.838L444.693 242.12L443.303 242.336C443.303 242.336 444.251 238.468 442.183 237.1C440.125 235.732 443.109 224.755 453.548 227.405C453.548 227.405 461.519 228.859 461.627 233.319C461.735 237.757 461.045 242.907 459.505 245.255Z" fill="#3A210F"/>
<path d="M447.214 257.374C447.214 257.374 447.246 255.338 448.173 255.133C449.099 254.939 457.9 253.733 459.031 254.175L459.516 256.868C459.516 256.868 457.329 258.214 447.214 257.374Z" fill="#E2D2CA"/>
<path d="M444.659 239.935C444.896 238.266 446.802 236.337 447.89 238.944C448.978 241.551 447.158 245.343 445.93 245.138C444.712 244.934 444.346 242.197 444.659 239.935Z" fill="#FEB19E"/>
<path d="M457.791 229.431C457.791 229.431 468.143 228.946 459.601 245.094L457.791 229.431Z" fill="#3A210F"/>
<path d="M480.856 393.807L480.08 395.972L447.559 385.9L449.121 381.516L480.856 393.807Z" fill="#918783"/>
<path d="M446.448 384.354H450.143V348.999H446.448V384.354Z" fill="#918783"/>
<path d="M437.387 349.195H459.19V347.116H437.387V349.195Z" fill="#5E5854"/>
<path d="M415.445 393.806L416.21 395.971L448.732 385.899L447.31 381.234L415.445 393.806Z" fill="#918783"/>
<path d="M438.359 395.745V398.255L448.733 385.899L447.311 381.234L438.359 395.745Z" fill="#918783"/>
<path d="M412.408 396.823C412.408 398.503 413.766 399.861 415.446 399.861C417.127 399.861 418.484 398.503 418.484 396.823C418.484 395.142 417.127 393.785 415.446 393.785C413.766 393.785 412.408 395.142 412.408 396.823Z" fill="#BFB2AC"/>
<path d="M438.099 396.823C438.099 398.503 439.456 399.861 441.136 399.861C442.817 399.861 444.174 398.503 444.174 396.823C444.174 395.142 442.817 393.785 441.136 393.785C439.456 393.785 438.099 395.142 438.099 396.823Z" fill="#BFB2AC"/>
<path d="M477.807 396.823C477.807 398.503 479.164 399.861 480.845 399.861C482.525 399.861 483.883 398.503 483.883 396.823C483.883 395.142 482.525 393.785 480.845 393.785C479.175 393.785 477.807 395.142 477.807 396.823Z" fill="#BFB2AC"/>
<path d="M426.216 347.119H470.071C472.225 347.119 473.97 345.374 473.97 343.219V343.122C473.97 340.968 472.225 339.223 470.071 339.223H426.216C424.062 339.223 422.317 340.968 422.317 343.122V343.219C422.317 345.374 424.062 347.119 426.216 347.119Z" fill="#9AB3D9"/>
<path d="M357.07 286.934H425.711C427.855 286.934 429.6 285.189 429.6 283.045V236.918C429.6 234.774 427.855 233.029 425.711 233.029H357.07C354.926 233.029 353.181 234.774 353.181 236.918V283.056C353.181 285.189 354.926 286.934 357.07 286.934Z" fill="#4766EA"/>
<path d="M356.175 278.488H426.605V235.948H356.175V278.488Z" fill="#F5F7FF"/>
<path d="M356.175 239.328H426.605V235.946H356.175V239.328Z" fill="#9AB3D9"/>
<path d="M361.186 275.87H364.87C366.195 275.87 367.272 274.792 367.272 273.467V244.285C367.272 242.96 366.195 241.883 364.87 241.883H361.186C359.861 241.883 358.784 242.96 358.784 244.285V273.467C358.784 274.792 359.861 275.87 361.186 275.87Z" fill="#9AB3D9"/>
<path d="M410.425 245.02H423.319C424.041 245.02 424.623 244.438 424.623 243.716V243.167C424.623 242.445 424.041 241.863 423.319 241.863H410.425C409.703 241.863 409.121 242.445 409.121 243.167V243.716C409.121 244.438 409.703 245.02 410.425 245.02Z" fill="#9AB3D9"/>
<path d="M411.803 276.731H421.929C423.416 276.731 424.612 275.525 424.612 274.049V249.811C424.612 248.325 423.405 247.129 421.929 247.129H411.803C410.317 247.129 409.121 248.335 409.121 249.811V274.049C409.121 275.536 410.328 276.731 411.803 276.731Z" fill="#9AB3D9"/>
<path d="M375.566 300.97V300.011C375.566 300.011 376.913 294.043 386.457 294.043C396.002 294.043 395.808 300.97 395.808 300.97H375.566Z" fill="#3150BC"/>
<path d="M395.924 294.926C395.924 294.926 393.856 294.765 393.091 294.302C392.337 293.849 387.791 290.79 386.725 291.275C385.658 291.759 378.559 293.935 378.807 294.98C379.055 296.014 379.712 295.917 380.208 295.734C380.703 295.551 385.863 294.463 386.315 294.646C386.315 294.646 381.252 296.499 381.231 297.846C381.209 299.192 382.287 299.526 382.771 300.032C383.256 300.539 383.827 301.81 385.13 301.907C386.434 302.004 392.8 299.785 394.115 299.688C395.429 299.591 397.853 299.774 398.014 299.559C398.187 299.343 395.924 294.926 395.924 294.926Z" fill="#FEB19E"/>
<path d="M433.65 260.197C440.254 259.033 447.213 257.364 447.213 257.364L459.515 256.857C459.515 256.857 470.804 259.346 475.253 261.349C475.673 261.543 475.673 271.422 476.837 274.018L473.153 281.795C473.153 281.795 471.02 297.211 470.578 304.062C470.373 307.207 471.149 334.472 471.149 334.472C471.149 334.472 470.039 335.022 461.648 335.948C453.245 336.875 432.261 335.614 432.131 334.623C432.002 333.632 436.193 297.685 436.387 295.821C436.667 292.966 435.557 279.759 435.557 279.759C433.974 281.882 429.945 291.48 425.733 296.047C423.255 298.73 411.007 300.378 408.702 300.453C403.682 300.626 394.514 301.617 394.245 301.132C394.03 300.841 393.448 292.999 394.019 292.805C394.525 292.632 411.545 291.652 415.908 289.347C417.503 288.496 422.275 278.101 422.275 278.101C422.275 278.101 429.999 261.834 433.65 260.197Z" fill="#223F6C"/>
<path d="M457.898 333.697H478.56C482.696 333.697 486.036 330.347 486.036 326.21V291.835C486.036 287.71 482.686 284.359 478.56 284.359H457.898C453.762 284.359 450.422 287.71 450.422 291.835V326.21C450.422 330.347 453.762 333.697 457.898 333.697Z" fill="#9AB3D9"/>
<path d="M382.489 255.959C382.461 255.874 381.754 251.817 381.669 250.239C381.584 248.66 384.205 248.435 384.205 248.435C384.205 248.435 386.346 247.28 387.896 247.872C389.446 248.464 390.501 249.459 391.205 250.699C391.909 251.939 390.585 255.803 390.585 255.803L382.489 255.959Z" fill="#3A210F"/>
<path d="M379.546 267.812C378.588 267.094 378.233 265.963 378.109 266.615C378.466 263.253 382.321 262.959 386.457 262.959C391.316 262.959 394.341 263.6 394.866 267.094C394.882 267.197 393.67 267.812 392.473 268.53C391.754 269.249 386.967 269.973 386.249 269.967C383.615 269.967 379.546 267.812 379.546 267.812Z" fill="#DBE4F3"/>
<path d="M387.291 265.568C386.809 266.278 386.456 266.308 385.934 265.568C385.518 264.979 384.13 263.636 384.13 262.958L384.7 256.191C384.7 255.512 385.255 254.957 385.934 254.957H387.291C387.97 254.957 388.525 255.512 388.525 256.191L388.79 262.958C388.79 263.636 387.723 264.931 387.291 265.568Z" fill="#FEB19E"/>
<path d="M387.292 254.959H385.935C385.256 254.959 384.701 255.514 384.701 256.193L384.207 262.196C385.73 262.681 387.788 261.695 388.698 260.608L388.525 256.193C388.526 255.514 387.971 254.959 387.292 254.959Z" fill="#FF8B70"/>
<path d="M381.938 263.638L384.097 267.848C384.097 267.848 385.252 266.845 385.363 267.042C385.475 267.239 385.158 269.721 385.158 269.721C385.158 269.721 387.729 269.757 387.841 269.64C387.953 269.521 387.319 266.944 387.58 266.944C387.841 266.944 388.626 267.691 388.626 267.691L391.035 263.638L390.506 263.502L386.558 265.744L382.336 263.551L381.938 263.638Z" fill="#9AB3D9"/>
<path d="M384.333 265.563L386.036 266.702L385.508 269.727H387.684L387.23 266.848L388.642 265.563L387.978 264.939H384.996L384.333 265.563Z" fill="#FFD93B"/>
<path d="M384.244 261.481L382.246 263.383C382.246 263.383 384.282 267.003 384.395 267.003C384.508 267.003 386.123 265.007 386.123 265.007L387.157 264.989L388.79 266.703L390.689 263.345L388.753 261.293C388.753 261.293 387.1 264.486 386.8 264.561C386.499 264.637 386.497 264.674 386.254 264.486C386.011 264.298 384.244 261.481 384.244 261.481Z" fill="#DBE4F3"/>
<path d="M386.612 260.616C388.877 260.616 390.714 258.114 390.714 255.027C390.714 251.94 388.877 249.438 386.612 249.438C384.346 249.438 382.51 251.94 382.51 255.027C382.51 258.114 384.346 260.616 386.612 260.616Z" fill="#FEB19E"/>
<path d="M382.93 254.941C383.314 255.748 383.188 256.611 382.65 256.866C382.112 257.122 381.364 256.674 380.981 255.867C380.598 255.059 380.723 254.197 381.261 253.941C381.799 253.685 382.547 254.133 382.93 254.941Z" fill="#FEB19E"/>
<path d="M390.11 254.941C389.726 255.748 389.852 256.611 390.39 256.866C390.928 257.122 391.676 256.674 392.059 255.867C392.443 255.059 392.317 254.197 391.779 253.941C391.241 253.685 390.493 254.133 390.11 254.941Z" fill="#FEB19E"/>
<path d="M388.432 257.32C388.432 257.32 387.618 258.639 386.613 258.639C385.608 258.639 384.794 257.32 384.794 257.32H388.432Z" fill="white"/>
<path d="M384.205 251.225C385.895 250.041 386.656 250.238 387.924 252.183C389.192 254.127 390.713 254.162 390.713 254.162L390.91 252.146C390.91 252.146 389.021 248.492 386.486 248.971C383.95 249.45 382.508 251.733 382.508 251.733C382.508 251.733 382.385 256.011 382.739 256.156C383.093 256.302 383.133 254.776 383.387 254.466C383.64 254.156 383.133 252.691 383.472 252.014C383.81 251.338 384.205 251.225 384.205 251.225Z" fill="#3A210F"/>
<path d="M389.644 253.424C390.234 254.07 390.01 256.635 390.32 256.607C390.63 256.579 390.743 254.156 390.658 253.902C390.573 253.649 389.644 253.424 389.644 253.424Z" fill="#2E2D3D"/>
<circle cx="386.728" cy="257.278" r="12.4268" stroke="#D6E4F0"/>
<path d="M117.396 93.9233C117.552 93.6046 117.714 93.2892 117.882 92.9738C116.736 93.1933 115.614 93.325 114.416 93.4648C114.386 93.468 114.357 93.4697 114.328 93.4697C113.952 93.4697 113.627 93.1884 113.582 92.8047C113.533 92.3918 113.829 92.0195 114.242 91.9707C115.856 91.7821 117.326 91.6098 118.899 91.2017C119.522 90.1937 120.206 89.2085 120.956 88.2428C122.368 86.4251 123.77 85.0351 125.161 84.0694C125.392 83.9084 125.616 83.7702 125.834 83.6483C124.737 83.1866 123.532 82.9297 122.266 82.9297C117.21 82.9297 113.11 87.0299 113.11 92.0861C113.11 94.5411 114.078 96.7668 115.65 98.4104C115.913 97.2642 116.497 95.7685 117.396 93.9233Z" fill="white"/>
<path d="M126.375 85.2465C125.798 85.7391 125.125 86.4366 124.356 87.3356C123.587 88.2363 122.824 89.2134 122.07 90.2653C123.345 89.732 124.45 89.0687 125.383 88.2737C126.316 87.4787 127.004 86.643 127.445 85.7667C127.75 85.1408 127.773 84.7653 127.518 84.6417C127.332 84.5523 126.952 84.7539 126.375 85.2465Z" fill="white"/>
<path d="M129.13 86.0273C129.08 86.1525 129.024 86.2793 128.961 86.411C127.908 88.5717 125.611 90.3389 122.075 91.7143C122.046 91.7306 122.016 91.7469 121.984 91.7599C121.569 91.9289 121.169 92.0769 120.779 92.2102C120.196 93.1515 119.721 93.9969 119.357 94.7464C118.841 95.8032 118.349 96.9039 117.877 98.0517C117.476 99.0288 117.307 99.6173 117.365 99.8205C117.416 99.853 117.466 99.8872 117.518 99.9181C117.812 99.9359 118.193 99.471 118.658 98.5183C119.048 97.7184 119.371 96.9185 119.628 96.117C119.885 95.3171 120.124 94.4554 120.345 93.5352C120.4 93.397 120.526 93.2491 120.724 93.0914C120.921 92.9337 121.129 92.8134 121.348 92.7288C121.566 92.6459 121.732 92.6313 121.846 92.6849C122.05 92.7857 122.291 92.9158 122.569 93.0751C122.657 93.1304 122.761 93.1873 122.884 93.2475C123.294 93.4474 123.767 93.6344 124.305 93.8067C124.391 93.836 124.484 93.8685 124.582 93.9043C124.679 93.9384 124.773 93.9791 124.866 94.0246C125.152 94.1644 125.191 94.4505 124.982 94.8814C124.586 95.691 123.753 95.7853 122.483 95.1659C122.237 95.0456 121.906 94.8277 121.49 94.5091C121.312 95.2098 121.078 95.969 120.789 96.7852C120.498 97.6013 120.231 98.2614 119.986 98.7638C119.612 99.5295 119.214 100.125 118.789 100.557C119.862 100.998 121.038 101.243 122.268 101.243C127.326 101.243 131.424 97.1428 131.424 92.0866C131.424 89.7634 130.556 87.6434 129.13 86.0273Z" fill="white"/>
<path d="M182.739 85.0612C182.588 84.9442 182.395 84.8967 182.207 84.9068C181.602 84.9425 181.132 85.2664 180.709 85.6752C179.608 86.7439 178.942 88.1365 178.354 89.5733C178.307 89.6886 178.268 89.8056 178.226 89.9227C178.169 90.0804 178.098 90.1483 177.944 90.1415C177.769 90.133 177.594 90.133 177.42 90.1415C176.947 90.167 176.542 90.7997 176.723 91.2593C176.762 91.3577 176.908 91.4425 177.02 91.4714C177.186 91.5155 177.366 91.5104 177.541 91.5121C177.669 91.5138 177.692 91.5647 177.666 91.6885C177.548 92.2313 177.439 92.7741 177.324 93.3169C177.313 93.3678 177.296 93.4289 177.262 93.4594C176.794 93.8648 176.323 94.2668 175.85 94.6655C175.766 94.7367 175.662 94.7859 175.565 94.8368C175.529 94.8554 175.482 94.8486 175.442 94.852C175.444 94.813 175.444 94.774 175.447 94.735C175.463 94.4602 175.533 94.1752 175.482 93.914C175.411 93.534 175.204 93.1761 175.066 92.8165C175.008 92.6656 174.93 92.5248 174.844 92.3908C174.647 92.082 174.648 91.7665 174.807 91.4697C174.943 91.2152 175.103 90.9761 175.246 90.7267C175.432 90.3993 175.285 90.1059 174.92 90.0923C174.336 90.0686 173.916 90.3094 173.6 90.8336C172.935 91.9412 172.263 93.0523 171.328 93.9428C170.683 94.5569 169.925 94.9691 169.051 95.0878C168.672 95.1387 168.296 95.0844 168.006 94.774C167.888 94.6468 167.933 94.4924 168.098 94.4483C168.861 94.238 169.605 93.9785 170.215 93.4289C170.787 92.9149 171.126 92.272 171.139 91.4731C171.15 90.8421 170.687 90.3213 170.087 90.2586C169.247 90.1703 168.52 90.4587 167.867 90.9863C167.355 91.3984 166.958 91.9141 166.68 92.5231C166.592 92.713 166.474 92.7843 166.289 92.7826C165.855 92.7792 165.423 92.7877 164.989 92.7758C164.778 92.7707 164.608 92.8386 164.467 92.9963C164.365 93.11 164.263 93.2236 164.167 93.3424C163.978 93.5815 163.903 93.8512 163.907 94.1684C163.925 95.4542 163.84 96.7315 163.555 97.985C163.487 98.287 163.375 98.5787 163.28 98.8722C163.262 98.9282 163.235 98.9926 163.192 99.0282C163.118 99.0927 163.029 99.1402 162.945 99.1945C162.916 99.1029 162.854 99.0096 162.864 98.9214C162.933 98.2344 162.998 97.5457 163.1 96.8638C163.299 95.5373 163.567 94.2261 163.968 92.9488C164.002 92.8403 164.065 92.7436 164.15 92.6706C165.35 91.619 166.49 90.5062 167.431 89.1882C168.108 88.2417 168.667 87.2256 168.89 86.0501C168.952 85.7278 168.968 85.392 168.96 85.0629C168.947 84.5523 168.733 84.1588 168.207 84.0146C168.1 84.0129 167.995 84.0095 167.888 84.0078C166.879 84.2487 166.239 84.99 165.654 85.794C164.589 87.2562 163.808 88.8863 163.18 90.5944C162.82 91.5749 162.53 92.5824 162.198 93.5748C162.166 93.6697 162.073 93.7936 161.992 93.8495C161.526 94.1651 161.051 94.467 160.578 94.7723C160.525 94.8062 160.465 94.83 160.408 94.8571C160.421 94.7944 160.424 94.7282 160.446 94.6671C160.862 93.5052 161.281 92.3433 161.698 91.1813C161.761 91.0032 161.821 90.8234 161.868 90.6402C161.928 90.4027 161.855 90.2823 161.628 90.2569C160.935 90.1754 160.627 90.4197 160.345 90.9625C159.909 91.8022 159.466 92.6367 158.989 93.4509C158.8 93.7749 158.528 94.0497 158.274 94.3296C158.173 94.4398 158.032 94.5874 157.867 94.489C157.692 94.3839 157.742 94.1786 157.796 94.0277C158.092 93.1812 158.4 92.3416 158.711 91.5019C158.815 91.2237 158.949 90.9574 159.048 90.6775C159.124 90.4655 159.009 90.2772 158.795 90.2552C158.168 90.1924 157.77 90.3552 157.48 90.8913C156.986 91.8039 156.597 92.7622 156.335 93.7766C156.301 93.9106 156.22 94.0599 156.118 94.143C155.812 94.3924 155.486 94.6129 155.164 94.8402C155.131 94.8622 155.081 94.8571 155.039 94.8656C155.039 94.8334 155.031 94.7978 155.041 94.7689C155.253 94.1226 155.031 93.5561 154.748 93.0014C154.655 92.8216 154.561 92.6435 154.464 92.4688C154.241 92.0702 154.26 91.6834 154.496 91.2984C154.641 91.0643 154.793 90.8353 154.918 90.5927C155.083 90.2721 155.002 90.1347 154.654 90.1025C154.037 90.0482 153.56 90.2467 153.206 90.8268C152.71 91.6359 152.187 92.4315 151.61 93.1795C151.199 93.7138 150.692 94.1701 150.209 94.64C150.063 94.7825 149.861 94.8741 149.67 94.947C149.471 95.0234 149.317 94.9012 149.331 94.6807C149.343 94.5145 149.378 94.3449 149.435 94.1888C149.73 93.3559 150.036 92.5282 150.334 91.6953C150.397 91.5172 150.457 91.3374 150.501 91.1542C150.559 90.9031 150.475 90.7454 150.235 90.7081C150.033 90.6758 149.822 90.686 149.616 90.6979C149.513 90.7047 149.43 90.6249 149.406 90.5198C149.365 90.3434 149.205 90.2246 149.03 90.2178C148.429 90.1992 147.88 90.3909 147.375 90.7064C146.154 91.468 145.323 92.557 144.902 93.9852C144.871 94.0904 144.777 94.2312 144.689 94.294C144.145 94.6841 143.562 94.9945 142.898 95.0827C142.506 95.1336 142.116 95.1065 141.811 94.7859C141.619 94.5823 141.636 94.5162 141.892 94.4466C142.453 94.2974 142.999 94.1023 143.501 93.7987C144.285 93.3237 144.795 92.6469 144.923 91.6851C145.025 90.9133 144.591 90.3281 143.855 90.2569C142.908 90.1636 142.116 90.5367 141.432 91.1864C140.697 91.8836 140.243 92.747 140.065 93.7579C140.049 93.8852 140.041 94.0175 140.041 94.1498V94.5179C140.041 94.7689 140.075 95.0234 140.167 95.2558C140.373 95.7714 140.765 96.1141 141.327 96.2956C141.821 96.455 142.326 96.4465 142.83 96.3872C143.499 96.3091 144.103 96.0309 144.673 95.6662C144.806 95.5814 144.866 95.5763 144.94 95.7324C145.099 96.0683 145.386 96.3244 145.739 96.3872C146.082 96.4482 146.427 96.4397 146.761 96.3074C147.164 96.148 147.493 95.8783 147.789 95.5577C147.96 95.3728 147.958 95.3711 148.036 95.612C148.212 96.165 148.56 96.4245 149.114 96.4126C149.505 96.4041 149.842 96.2294 150.162 96.0191C151.118 95.3898 151.887 94.5501 152.595 93.6409C152.922 93.2219 152.919 93.2118 153.159 93.6884C153.321 94.009 153.434 94.3449 153.418 94.7197C153.411 94.8622 153.356 94.9182 153.225 94.8944C153.18 94.886 153.136 94.8775 153.091 94.8707C152.691 94.8079 152.297 94.7995 151.96 95.081C151.672 95.3219 151.511 95.634 151.596 96.0259C151.732 96.6603 152.393 96.7654 153.058 96.6874C153.33 96.6552 153.586 96.5449 153.824 96.4024C153.957 96.3244 154.116 96.2684 154.268 96.2565C154.882 96.2057 155.455 96.0394 155.961 95.6646C156.108 95.556 156.155 95.5848 156.205 95.7273C156.341 96.109 156.668 96.3939 157.056 96.416C157.389 96.4364 157.665 96.2973 157.919 96.109C158.327 95.807 158.638 95.4101 158.891 94.9606C158.907 94.9335 158.931 94.9114 158.952 94.886C158.951 94.9182 158.954 94.9504 158.946 94.9793C158.905 95.1082 158.847 95.232 158.818 95.366C158.685 95.9699 158.327 96.3515 157.831 96.6857C156.824 97.3676 155.88 98.1445 155.094 99.108C154.649 99.6542 154.326 100.265 154.215 100.984C154.101 101.707 154.545 102.277 155.24 102.317C155.689 102.343 156.1 102.231 156.481 101.983C157.06 101.605 157.482 101.067 157.859 100.485C158.628 99.3013 159.195 98.0071 159.715 96.6874C159.752 96.5941 159.819 96.4906 159.898 96.4397C160.473 96.0734 161.056 95.7188 161.638 95.3626C161.68 95.3372 161.732 95.3287 161.78 95.3117C161.78 95.3626 161.785 95.4152 161.777 95.4661C161.654 96.3448 161.51 97.22 161.411 98.1004C161.346 98.6805 161.349 99.2674 161.54 99.8306C161.691 100.277 162.067 100.54 162.478 100.502C162.869 100.468 163.199 100.304 163.484 100.024C164.109 99.4099 164.388 98.611 164.572 97.7696C164.817 96.6552 164.913 95.5204 164.929 94.3788C164.93 94.2092 164.974 94.1684 165.155 94.2007C165.439 94.2533 165.726 94.2668 166.014 94.2668C166.173 94.2668 166.208 94.3177 166.223 94.4907C166.31 95.5882 166.838 96.1972 167.881 96.3702C168.542 96.4805 169.201 96.4313 169.835 96.187C171.028 95.7256 171.918 94.9131 172.805 93.7461C172.936 93.5748 173.016 93.4662 173.132 93.3542C173.178 93.3101 173.26 93.1761 173.354 93.3356C173.591 93.7427 173.817 94.1549 173.796 94.6587C173.787 94.8961 173.77 94.9148 173.544 94.8792C173.228 94.8283 172.914 94.8012 172.606 94.925C172.214 95.0827 171.931 95.5221 171.965 95.9207C171.997 96.3108 172.305 96.606 172.76 96.684C173.275 96.7722 173.753 96.6653 174.209 96.4041C174.354 96.321 174.511 96.2667 174.674 96.2532C175.392 96.1938 176.04 95.9495 176.602 95.4746C176.802 95.3049 177 95.1268 177.188 94.9419C177.298 94.8334 177.332 94.869 177.35 94.9996C177.355 95.0403 177.363 95.0793 177.371 95.1201C177.518 95.7952 177.875 96.2701 178.555 96.3838C179.345 96.5161 180.06 96.299 180.68 95.7697C180.934 95.5526 181.088 95.2642 181.14 94.9216C181.169 94.7299 181.192 94.5213 181.01 94.4059C180.839 94.2957 180.701 94.4551 180.55 94.5314C180.244 94.6858 179.938 94.8639 179.614 94.9521C179.204 95.0624 178.89 94.7808 178.845 94.3381C178.84 94.2838 178.838 94.2295 178.837 94.1752C178.824 93.3101 179.039 92.4841 179.229 91.6529C179.26 91.5172 179.353 91.5172 179.454 91.5172C179.843 91.5172 180.233 91.5375 180.62 91.5104C180.986 91.485 181.355 91.4425 181.71 91.3493C182.076 91.2526 182.309 90.9744 182.39 90.5741C182.437 90.34 182.293 90.1483 182.063 90.1432C181.72 90.1364 181.376 90.1432 181.033 90.1398C180.959 90.1398 180.884 90.1229 180.81 90.1144C180.861 90.0584 180.91 89.9956 180.967 89.9464C181.882 89.1695 182.594 88.24 182.943 87.0407C183.017 86.7829 183.067 86.5166 183.131 86.2554C183.126 86.0959 183.121 85.9449 183.116 85.7838C183.032 85.5226 182.983 85.2512 182.739 85.0612ZM164.686 90.7963C165.337 89.0966 166.006 87.4054 166.987 85.8754C167.07 85.7465 167.159 85.6159 167.271 85.5158C167.355 85.4395 167.507 85.3462 167.579 85.3801C167.666 85.4208 167.737 85.5022 167.716 85.7126C167.634 86.2978 167.499 86.8067 167.276 87.3121C166.676 88.6658 165.803 89.8107 164.776 90.8319C164.749 90.8607 164.705 90.8726 164.67 90.8913C164.674 90.859 164.674 90.8251 164.686 90.7963ZM141.7 93.2881C141.84 92.7419 142.075 92.2517 142.471 91.8581C142.647 91.6817 142.854 91.5613 143.105 91.5443C143.358 91.5274 143.527 91.68 143.53 91.9379C143.496 92.3093 143.311 92.6028 143.031 92.8335C142.675 93.1269 142.263 93.3034 141.829 93.4255C141.704 93.4611 141.664 93.4272 141.7 93.2881ZM148.86 91.5969C148.505 92.4688 148.16 93.3458 147.791 94.2109C147.662 94.5145 147.457 94.7774 147.176 94.9538C147.074 95.0183 146.955 95.0505 146.844 95.098C146.549 95.0726 146.392 94.9301 146.387 94.6298C146.385 94.4704 146.413 94.3058 146.455 94.1498C146.727 93.1134 147.237 92.2483 148.143 91.6936C148.327 91.5799 148.552 91.5358 148.76 91.4663C148.88 91.429 148.902 91.4934 148.86 91.5969ZM157.841 97.924C157.394 98.9163 156.984 99.9341 156.244 100.743C156.157 100.84 156.048 100.925 155.935 100.984C155.695 101.11 155.506 100.965 155.527 100.55C155.587 100.409 155.674 100.136 155.812 99.8967C156.22 99.1894 156.811 98.6585 157.425 98.1547C157.541 98.058 157.663 97.9664 157.783 97.8748C157.801 97.8612 157.828 97.8578 157.849 97.8493C157.848 97.8748 157.851 97.9036 157.841 97.924ZM167.898 93.3135C168.063 92.7029 168.309 92.1397 168.811 91.7513C168.96 91.6359 169.154 91.5833 169.244 91.5426C169.616 91.5443 169.775 91.7445 169.726 92.0278C169.668 92.3653 169.486 92.6231 169.239 92.8318C168.884 93.1286 168.473 93.3067 168.038 93.4255C167.951 93.4475 167.855 93.4713 167.898 93.3135ZM181.425 87.8855C181.04 88.6267 180.537 89.2679 179.894 89.7802C179.857 89.8107 179.809 89.8226 179.765 89.8447C179.771 89.8006 179.771 89.7514 179.786 89.7107C180.128 88.7438 180.487 87.7837 181.009 86.9033C181.124 86.7083 181.255 86.5183 181.406 86.3537C181.478 86.274 181.626 86.2045 181.718 86.2265C181.747 86.2333 181.77 86.2723 181.791 86.3215C181.843 86.447 181.857 86.5878 181.832 86.7218C181.749 87.1391 181.614 87.5225 181.425 87.8855Z" fill="white"/>
</svg>
