<svg width="427" height="353" viewBox="0 0 427 353" fill="none" xmlns="http://www.w3.org/2000/svg">
<path d="M29.131 91.1524C29.0774 90.7645 29.0526 90.2806 29.098 89.7328C33.046 87.5534 43.2357 79.3916 43.2357 53.1426H27.5634H11.8911C11.8911 79.3995 22.0848 87.5614 26.0287 89.7368C26.0617 90.1447 26.0617 90.6285 25.9874 91.1604C22.0106 93.3718 11.8911 101.566 11.8911 127.731H27.5634H43.2357C43.2316 101.55 33.0996 93.3598 29.131 91.1524Z" fill="#EEF0F7"/>
<path d="M12.4939 117.286C12.4939 117.286 15.5343 110.932 26.2727 113.536C37.0111 116.139 41.3592 110.316 41.3592 110.316L43.3724 127.996H12.4939V117.286Z" fill="#3150BC"/>
<path d="M16.6441 78.8329C16.6441 78.8329 18.6201 73.9222 25.7776 75.9497C32.9351 77.9771 36.7923 78.6329 39.8863 75.4618C39.8863 75.4618 36.7098 86.4069 27.9393 90.1658C27.9352 90.1618 21.479 89.618 16.6441 78.8329Z" fill="#3150BC"/>
<path d="M44.1018 128.57H11.0162V127.727C11.0162 116.314 12.918 107.004 16.6721 100.066C18.05 97.5187 19.6672 95.3193 21.4823 93.5317C22.9015 92.1321 24.2133 91.2124 25.1622 90.6485C25.1704 90.5086 25.1787 90.3686 25.1745 90.2286C23.1366 89.017 19.6713 86.3177 16.7051 80.8632C12.9304 73.917 11.0162 64.5915 11.0162 53.1426V52.2988H44.1018V53.1426C44.1018 64.5875 42.1876 73.913 38.4129 80.8591C35.4468 86.3137 31.9815 89.017 29.9394 90.2286C29.9394 90.3686 29.9394 90.5086 29.9517 90.6485C30.9006 91.2124 32.2083 92.1321 33.6275 93.5277C35.4426 95.3153 37.0598 97.5147 38.4377 100.058C42.1959 106.996 44.0977 116.306 44.0977 127.727V128.57H44.1018ZM12.7613 126.883H42.3609C42.2702 116.126 40.4344 107.368 36.9031 100.842C33.9369 95.3633 30.4922 92.8799 28.7018 91.8842L28.3264 91.6762L28.2727 91.2604C28.2026 90.7325 28.1902 90.1926 28.2356 89.6608L28.2727 89.2169L28.6687 88.997C30.4592 88.0092 33.908 85.5379 36.8783 80.0674C40.4261 73.5371 42.2702 64.7635 42.3609 53.9824H12.7613C12.852 64.7675 14.696 73.5451 18.248 80.0754C21.2224 85.5419 24.6671 88.0132 26.4575 89.001L26.8577 89.2209L26.8949 89.6688C26.9361 90.2007 26.9237 90.7405 26.8454 91.2724L26.7876 91.6842L26.4163 91.8922C24.6259 92.8879 21.177 95.3753 18.215 100.854C14.6837 107.376 12.852 116.13 12.7613 126.883Z" fill="#7496CF"/>
<path d="M44.9635 51H10.1534V53.1434H44.9635V51Z" fill="#2878BD"/>
<path d="M44.9635 125.584H10.1535V128.571H44.9635V125.584Z" fill="#2878BD"/>
<path d="M18.2325 127.906L29.0945 128.682C28.2034 128.078 26.7678 127.006 27.1432 126.598C27.6754 126.018 30.6332 127.622 31.8708 127.846C33.0053 128.05 34.9401 128.062 36.3509 128.694L39.6595 130.385L36.2767 132.953C36.2767 132.953 30.5342 133.288 28.8635 133.268C26.149 133.236 18.1458 129.453 18.0509 128.97C17.8694 128.094 18.2325 127.906 18.2325 127.906Z" fill="#FEB19E"/>
<path d="M39.6557 130.381C39.6557 130.381 43.7893 132.88 42.5517 140.638H36.5246C36.5246 140.638 37.5229 134.768 33.1666 133.112L39.6557 130.381Z" fill="#FF8F76"/>
<path d="M34.6262 135.665C34.6262 135.665 33.4133 156.979 37.4479 160.102C39.3126 161.546 43.7103 162.002 48.4586 162.006C50.0221 162.01 51.6269 161.962 53.1904 161.886C53.1945 161.886 53.1945 161.886 53.1945 161.886C59.4362 161.582 65.0384 160.814 65.0384 160.814C65.0384 160.814 81.2223 161.61 80.4302 151.877C80.4302 151.877 78.5449 148.929 76.1274 148.258C73.8956 147.638 63.7018 149.341 61.9361 149.417C59.989 149.501 46.1731 152.476 45.5832 152.264C44.9891 152.053 43.405 146.802 43.3059 143.283C43.1657 138.2 43.1863 133.518 43.1863 133.518L34.6262 135.665Z" fill="#3150BC"/>
<path d="M120.395 338.055C120.395 338.055 121.752 341.23 122.899 342.49C124.046 343.749 128.431 345.997 128.456 349.736C128.481 353.787 121.063 352.663 118.159 352.515C115.259 352.367 115.036 350.199 113.815 347.908C112.594 345.613 111.36 346.001 111.133 344.153C110.906 342.302 112.07 338.159 112.07 338.159L120.395 338.055Z" fill="#252840"/>
<path d="M62.2989 338.783C62.2989 338.783 58.256 342.897 54.1513 343.761C50.0466 344.625 47.1753 345.725 47.1464 348.084C47.1134 350.444 58.9573 351.999 63.652 349.62C70.661 346.069 71.3747 347.136 72.1502 345.361C72.9258 343.585 71.2179 338.835 71.2674 338.271C71.3334 337.575 62.2989 338.783 62.2989 338.783Z" fill="#252840"/>
<path d="M62.7837 219.965C62.7837 219.965 58.5387 249.861 56.8019 259.966C54.7723 271.783 54.0874 281.545 53.5223 287.663C52.8127 295.357 60.2507 336.738 59.7557 338.989C59.2565 341.237 73.1549 338.053 73.1549 338.053C73.1549 338.053 68.7902 288.811 70.9065 280.621C72.8784 272.991 79.9947 239.46 81.7933 241.543C83.592 243.627 94.8955 280.421 96.228 286.439C97.5604 292.454 110.415 339.557 110.415 339.557C110.415 339.557 120.023 341.557 122.465 339.673C122.465 339.673 114.083 296.401 113.233 285.12C112.911 280.821 110.283 233.869 102.783 214.851C98.8146 204.801 62.7837 219.965 62.7837 219.965Z" fill="#223F6C"/>
<path d="M118.633 219.471C118.633 219.471 113.361 221.022 111.154 220.63C108.943 220.238 110.061 193.981 109.974 188.519C109.908 184.088 107.404 172.387 107.404 172.387C107.404 172.387 107.404 172.395 107.4 172.407C107.396 172.411 107.396 172.415 107.396 172.419C107.396 172.427 107.392 172.431 107.392 172.439C107.144 173.315 103.77 185.456 103.65 191.29C103.526 197.344 104.463 220.502 104.463 220.502L95.16 221.382L68.4192 222.018L62.8418 221.382C62.8418 221.382 63.5101 211.481 63.7576 206.774C63.9102 203.783 64.5125 198.432 64.3557 193.218C64.3557 193.218 64.4547 187.723 63.8896 185.356C63.8277 174.911 63.1759 164.565 63.1759 164.565C62.8129 159.831 62.5612 155.4 62.421 151.269C63.6008 150.665 65.0158 149.957 66.1503 149.433C69.661 147.814 74.5496 145.63 77.689 144.235C79.5289 143.415 81.3276 142.819 81.3276 142.819C81.3276 142.819 93.8687 141.651 94.8877 141.715C95.2095 141.735 96.7771 142.263 98.8316 143.023C103.279 144.659 111.851 147.99 113.217 148.942C115.218 150.333 119.454 183.352 119.644 185.664C119.995 189.827 118.633 219.471 118.633 219.471Z" fill="#FFD93B"/>
<path d="M63.6526 217.238C63.6526 217.238 82.0064 218.754 98.083 217.238V222.353C98.083 222.353 73.9413 225.732 62.8481 221.377L63.6526 217.238Z" fill="#1D2033"/>
<path d="M65.8786 148.589C64.4719 148.997 63.1806 149.225 61.4315 149.453C61.5717 153.652 62.4834 159.894 62.8547 164.717C62.8547 164.717 63.2012 176.498 63.9026 187.675C64.1418 189.274 64.2615 190.91 64.1253 192.585C63.9521 194.769 63.7087 197.156 63.4117 199.647C63.4075 199.679 63.4034 199.711 63.3993 199.743C63.3291 200.335 63.2549 200.927 63.1806 201.527C63.1806 201.535 63.1765 201.543 63.1765 201.555C61.6171 214.004 58.9727 228.288 57.5948 232.611C57.3019 233.514 58.3086 234.346 59.0264 234.99L64.0469 238.057C64.0469 238.057 66.1179 219.59 66.8027 213.32C67.4669 207.269 69.5543 199.156 70.466 191.25V191.246C71.6253 181.216 73.2177 171.391 74.0799 165.557C76.32 150.361 79.3067 143.562 79.3067 143.562C75.7754 145.002 65.8786 148.589 65.8786 148.589Z" fill="#3150BC"/>
<path d="M80.2497 147.106C80.2497 147.106 79.9155 151.76 83.9748 151.868C88.0341 151.976 91.2601 148.197 91.2601 148.197L84.5193 149.881L80.4188 146.51L80.2497 147.106Z" fill="#CAC7D1"/>
<path d="M85.7287 111.463C85.7287 111.463 76.4176 112.987 77.9977 127.119C79.5777 141.251 87.7955 140.003 88.3483 139.983C88.897 139.963 96.6156 140.155 97.024 122.876C97.0199 122.876 97.1395 110.1 85.7287 111.463Z" fill="#FEB19E"/>
<path d="M81.6486 135.888C81.6486 135.888 81.6486 141.711 81.4011 142.97C81.1371 144.326 88.8805 148.241 93.8763 143.678C93.8763 143.678 92.8656 137.32 93.1791 135.076C93.4968 132.829 81.6486 135.888 81.6486 135.888Z" fill="#FEB19E"/>
<path d="M77.9599 123.829C77.9599 123.829 76.9285 122.781 76.5654 123.857C76.2023 124.932 77.8733 129.475 78.092 129.911C78.092 129.911 78.2817 130.323 78.5251 130.095C78.7644 129.859 77.9599 123.829 77.9599 123.829Z" fill="#EEA987"/>
<path d="M96.9158 122.744C96.9158 122.744 97.9059 121.656 98.3103 122.716C98.7187 123.776 97.2293 128.53 97.0436 128.826C97.0436 128.826 96.7218 129.314 96.4702 129.094C96.2185 128.874 96.9158 122.744 96.9158 122.744Z" fill="#EEA987"/>
<path d="M77.2131 121.924C77.5349 123.86 77.836 125.295 77.836 125.295L79.1933 127.011C79.1933 127.011 79.1149 123.216 79.3211 122.62C79.3995 122.392 79.4903 121.992 79.5852 121.56C79.7419 120.845 79.8987 120.037 80.0101 119.769C80.1834 119.341 87.9926 117.13 94.9438 120.233C94.9438 120.233 94.8861 120.817 94.8902 121.468C94.8902 122.224 94.9768 123.072 95.3357 123.2C96.004 123.436 95.7235 127.639 95.7235 127.639L96.8085 126.427C96.8085 126.427 97.122 124.232 97.4314 121.708C97.4314 121.708 97.4314 121.704 97.4356 121.688C97.5057 121.101 97.5758 120.497 97.646 119.893C97.8027 117.354 97.5428 112.743 94.1312 110.035C91.8292 109.08 88.1576 108.268 82.0315 110.087C82.0315 110.087 80.6289 110.179 80.2328 110.547C76.4128 114.618 77.2131 121.924 77.2131 121.924Z" fill="#3A210F"/>
<path d="M92.542 138.096C92.542 138.096 91.0568 140.095 87.6038 140.019C84.1509 139.943 82.6533 138.2 82.6533 138.2C82.6533 138.2 84.287 141.515 87.6204 141.479C90.9537 141.443 92.542 138.096 92.542 138.096Z" fill="#FF8B70"/>
<path d="M81.0408 147.389L84.5143 149.88C84.5143 149.88 81.6101 143.882 81.5482 141.479L81.0408 147.389Z" fill="#A09EA6"/>
<path d="M81.5534 141.479L79.1772 143.61L76.6896 150.796L81.0419 147.389L81.5534 141.479Z" fill="#EAE6F2"/>
<path d="M81.9854 143.623C81.9854 143.623 82.9466 146.894 84.5183 149.881C84.5183 149.881 88.1651 146.786 89.312 145.682C90.4588 144.575 81.9854 143.623 81.9854 143.623Z" fill="#FF8F76"/>
<path d="M88.3308 146.418L84.5148 149.881C84.5148 149.881 89.0239 149.589 89.8654 148.861L88.3308 146.418Z" fill="#A09EA6"/>
<path d="M93.3934 140.039C93.3934 140.039 90.3407 144.85 88.3317 146.417L91.7186 151.864L97.1475 142.306L93.3934 140.039Z" fill="#EAE6F2"/>
<path d="M109.592 188.766C109.98 193.837 107.769 221.889 109.976 222.285C112.183 222.677 120.298 220.95 120.298 220.95C120.298 220.95 121.316 190.694 120.991 187.523C120.751 185.215 116.96 150.588 114.959 149.197C113.804 148.393 105.236 145.45 101.032 143.842C100.265 143.546 97.8309 142.559 97.142 142.307C96.2509 143.266 88.4829 160.938 87.7445 174.718C87.5217 178.913 88.5324 187.77 89.3038 195.008C90.1289 202.73 91.0365 208.753 91.7048 215.211C93.0208 227.932 93.9408 238.053 93.9408 238.053L107.002 232.418C109.114 231.395 112.043 227.188 111.247 225.032C108.227 216.835 104.427 202.83 104.423 195.636C104.423 195.636 105.88 178.025 107.035 174.154C107.039 174.15 109.097 182.32 109.592 188.766Z" fill="#3150BC"/>
<path d="M120.331 235.358C120.331 235.358 120.773 234.31 120.736 233.763C120.736 233.763 120.591 232.767 120.529 232.055C120.513 231.827 120.5 231.631 120.509 231.503C120.537 230.967 120.764 229.8 120.459 228.492C120.154 227.188 118.603 222.686 118.603 222.686L114.407 223.289L110.765 222.81C110.765 222.81 108.05 230.495 108.186 231.743C108.203 231.863 108.219 231.983 108.244 232.095C108.467 233.139 109.085 233.827 109.267 234.362C109.337 234.558 110.146 236.466 110.752 236.65C111.594 236.906 112.287 236.75 112.753 236.378C112.753 236.378 114.424 236.806 115.484 236.338C115.484 236.338 117.014 236.782 118.161 235.834C118.161 235.834 119.766 236.114 120.331 235.358Z" fill="#FEB19E"/>
<path d="M109.25 202.947L109.382 225.241C109.382 225.241 113.973 225.041 120.298 222.778L120.735 191.338L109.25 202.947Z" fill="#3150BC"/>
<path d="M76.713 223.789H85.3641V217.555H76.713V223.789Z" fill="#3A4066"/>
<path d="M300.628 223.205C300.628 223.205 298.008 223.701 296.753 223.739C295.499 223.776 289.702 221.302 287.848 221.537C285.994 221.772 273.893 226.614 273.343 226.965C272.794 227.318 273.6 228.094 273.6 228.094L301.376 228.404L300.628 223.205Z" fill="#FEB19E"/>
<path d="M361.421 276.205H366.062V331.364H361.421V276.205Z" fill="#7496CF"/>
<path d="M305.475 324.862C305.475 324.862 305.428 327.299 304.59 330.14C303.975 332.223 302.736 340.284 301.156 341.413C299.577 342.54 294.477 345.531 295.229 348.6C295.977 351.669 296.613 353.813 302.114 351.993C307.619 350.175 311.298 349.134 312.353 344.585C313.412 340.039 316.423 335.898 316.423 335.898L320.403 345.214L322.499 344.421C322.499 344.421 319.326 334.36 319.6 333.461C319.871 332.563 318.147 324.57 311.49 322.589C304.832 320.606 305.475 324.862 305.475 324.862Z" fill="#252840"/>
<path d="M268.71 327.798C268.71 327.798 267.701 330.044 265.796 332.382C264.401 334.097 260.057 341.144 258.145 341.634C256.233 342.124 250.316 343.107 249.796 346.217C249.275 349.327 249.011 351.539 254.841 351.784C260.668 352.029 264.495 352.356 267.278 348.511C270.061 344.662 274.496 341.879 274.496 341.879V351.917H276.759C276.759 351.917 277.803 341.467 278.41 340.732C279.018 339.997 280.586 331.973 275.194 327.795C269.797 323.623 268.71 327.798 268.71 327.798Z" fill="#252840"/>
<path d="M327.957 191.365C327.957 191.365 326.663 187.041 326.537 186.479C326.41 185.914 325.185 184.795 323.66 183.624C322.134 182.454 319.514 181.518 319.192 181.61C318.867 181.705 318.495 181.657 317.96 182.307C317.425 182.954 317.353 183.777 317.353 183.777C317.353 183.777 316.294 184.284 316.286 185.305C316.286 185.305 315.314 185.826 315.506 186.986C315.506 186.986 314.573 187.517 314.786 188.351C314.786 188.351 316.012 189.473 316.341 190.015C316.666 190.556 319.387 192.727 322.337 194.435C322.333 194.438 326.099 197.058 327.957 191.365Z" fill="#FEB19E"/>
<path d="M373.356 198.8C371.523 196.009 369.084 194.754 361.327 199.804C353.571 204.853 355.393 203.863 353.538 205.466C351.681 207.065 343.545 211.07 343.545 211.07C343.545 211.07 338.792 206.619 336.511 203.461C333.942 199.899 328.578 190.385 328.578 190.385L321.056 195.656C321.056 195.656 335.666 220.594 338.716 222.435C341.767 224.279 350.961 221.197 355.747 219.298C360.532 217.399 365.6 214.942 367.786 214.432C369.977 213.918 378.127 206.078 373.356 198.8Z" fill="#FFE080"/>
<path d="M319.605 181.906C319.605 181.906 323.396 184.962 322.948 185.598C322.5 186.234 321.925 186.21 321.925 186.21L322.879 188.133C322.879 188.133 322.749 189.742 320.924 189.137C320.924 189.137 320.967 190.651 319.279 189.868C319.279 189.868 318.835 190.879 317.985 190.648C317.136 190.416 314.783 188.354 314.783 188.354C314.783 188.354 314.494 187.708 315.502 186.99C315.502 186.99 315.249 185.887 316.283 185.309C316.283 185.309 316.229 184.397 317.349 183.781C317.349 183.781 317.393 181.736 319.189 181.613C319.189 181.613 319.445 181.777 319.605 181.906Z" fill="#DB9C7C"/>
<path d="M337.205 213.945C337.205 213.945 335.676 208.735 337.476 204.703C337.476 204.703 336.793 208.878 338.734 211.849C340.14 213.999 337.205 213.945 337.205 213.945Z" fill="#FFCD4D"/>
<path d="M279.093 271.893C279.093 271.893 286.029 286.583 290.981 297.07C291.812 298.836 292.589 300.48 293.268 301.916C294.064 303.597 294.721 304.992 295.173 305.955C298.325 312.628 306.074 327.185 306.074 327.185C306.074 327.185 311.908 327.396 312.244 322.73C312.244 322.73 306.649 312.628 306.649 305.533C306.649 298.435 305.637 277.525 298.433 273.006C289.65 267.49 283.947 266.446 279.093 271.893Z" fill="#FEB19E"/>
<path d="M343.228 243.972C343.228 243.972 341.764 245.35 340.528 245.667C339.292 245.983 318.582 247.467 309.018 250.434C299.451 253.401 286.736 255.307 284.372 257.852C282.008 260.394 278.069 274.379 278.181 277.03C278.293 279.677 269.774 324.314 268.711 327.799C268.147 329.647 276.417 328.939 276.417 328.939C276.417 328.939 288.164 302.564 290.672 297.691C295.28 288.739 295.512 277.772 297.199 276.077C298.887 274.383 317.682 270.568 328.485 270.568C339.288 270.568 363.483 271.415 366.074 270.037C368.662 268.659 384.869 258.594 378.117 245.139C371.362 231.682 343.228 243.972 343.228 243.972Z" fill="#FEB19E"/>
<path d="M296.595 253.818L313.636 284.654C313.636 284.654 318.798 273.132 327.808 271.148C336.815 269.165 372.763 270.23 372.763 270.23C372.763 270.23 389.259 250.586 375.134 240.279C361.009 229.972 344.514 241.902 344.514 241.902C344.514 241.902 341.105 245.38 339.457 245.458C337.802 245.536 324.653 245.359 296.595 253.818Z" fill="#4766EA"/>
<path d="M258.145 341.634C258.145 341.634 263.364 342.862 265.363 341.634C267.362 340.405 274.164 329.585 276.416 328.938C276.416 328.938 274.233 324.77 268.71 327.798C268.71 327.798 259.623 339.834 258.145 341.634Z" fill="#FEB19E"/>
<path d="M301.156 341.408C301.156 341.408 306.483 340.714 307.853 338.873C309.223 337.033 311.244 324.606 313.076 323.211C313.076 323.211 309.4 320.107 305.475 324.858C305.475 324.861 301.814 339.217 301.156 341.408Z" fill="#FEB19E"/>
<path d="M352.483 176.812C352.483 176.812 352.804 177.795 353.169 179.252C353.357 179.997 353.553 180.865 353.726 181.787C354.2 184.346 354.478 187.333 353.773 189.324C353.773 189.324 359.549 191.209 364.114 183.522C364.114 183.522 362.155 175.24 364.699 170.217C367.251 165.198 352.483 176.812 352.483 176.812Z" fill="#FEB19E"/>
<path d="M353.036 178.893C353.224 179.639 353.556 180.864 353.726 181.789C359.093 178.58 360.9 173.184 360.9 173.184C357.835 175.793 353.036 178.893 353.036 178.893Z" fill="#FF8B70"/>
<path d="M337.509 208.631C338.727 213.936 341.926 214.215 341.73 218.135C341.535 222.055 340.292 222.392 342.446 228.571C342.844 229.714 343.169 230.96 343.429 232.232C343.458 232.382 343.491 232.532 343.52 232.685C343.66 233.399 343.78 234.117 343.885 234.825C344.076 236.139 344.213 237.418 344.311 238.589C344.564 241.637 342.179 243.992 342.179 243.992C342.179 243.992 363.243 255.874 377.704 254.207C377.704 254.207 373.96 239.392 371.899 234.301C369.839 229.214 370.461 205.694 371.975 200.648C374.213 193.199 369.742 182.035 363.626 180.582L354.146 184.716C354.146 184.716 344.597 195.452 342.453 197.072C340.314 198.695 336.273 203.251 337.509 208.631Z" fill="#FFE080"/>
<path d="M368.845 186.891C366.167 184.791 362.292 181.198 356.643 188.306C350.99 195.411 346.881 199.991 345.659 202.064C344.437 204.136 333.815 218.574 333.815 218.574C333.815 218.574 323.416 219.622 319.383 220.033C314.29 220.554 296.251 222.204 296.251 222.204L295.748 229.425C295.748 229.425 327.576 229.582 331.089 230.419C334.603 231.256 344.448 222.916 348.348 219.683C352.248 216.45 363.185 204.684 365.086 203.544C366.98 202.407 375.824 192.366 368.845 186.891Z" fill="#FFE080"/>
<path d="M327.804 270.234H400.811V277.799H327.804V270.234Z" fill="#7496CF"/>
<path d="M290.982 297.071C291.813 298.837 292.59 300.481 293.269 301.917C295.821 294.196 295.612 281.289 295.612 281.289C294.075 290.286 291.029 296.969 290.982 297.071Z" fill="#FF8B70"/>
<path d="M362.825 246.105C362.825 246.105 364.665 253.112 355.997 254.704C347.33 256.297 336.675 258.328 336.675 270.915H366.732L362.825 246.105Z" fill="#7496CF"/>
<path d="M400.811 277.798L426.335 176.808C426.335 176.808 380.194 170.023 374.697 189.528C369.2 209.036 360.157 266.981 349.162 270.564C338.167 274.147 400.811 277.798 400.811 277.798Z" fill="#7496CF"/>
<path d="M341.463 225.199C341.463 225.199 341.933 227.054 342.435 228.585L353.661 214.879L341.463 225.199Z" fill="#FFCD4D"/>
<path d="M353.6 185.329V183.144L363.449 178.629L366.857 182.334L353.6 185.329Z" fill="#FFCD4D"/>
<path d="M404.627 342.046L403.662 344.605L362.823 332.692L364.779 327.51L404.627 342.046Z" fill="#7496CF"/>
<path d="M322.499 342.045L323.464 344.604L364.303 332.691L362.51 327.182L322.499 342.045Z" fill="#7496CF"/>
<path d="M351.273 344.331V347.309L364.303 332.691L362.51 327.182L351.273 344.331Z" fill="#7496CF"/>
<path d="M350.948 345.605C350.948 347.589 352.658 349.198 354.765 349.198C356.872 349.198 358.582 347.589 358.582 345.605C358.582 343.621 356.872 342.012 354.765 342.012C352.658 342.012 350.948 343.621 350.948 345.605Z" fill="#3150BC"/>
<path d="M400.81 345.605C400.81 347.589 402.519 349.198 404.627 349.198C406.734 349.198 408.443 347.589 408.443 345.605C408.443 343.621 406.734 342.012 404.627 342.012C402.519 342.012 400.81 343.621 400.81 345.605Z" fill="#3150BC"/>
<path d="M315.545 176.186L313.163 185.604L311.699 191.392L318.715 194.033L321.892 188.891L327.064 180.524L315.545 176.186Z" fill="#FFE080"/>
<path d="M313.162 185.604L311.699 191.392L318.714 194.032L321.891 188.891L313.162 185.604Z" fill="#4766EA"/>
<path d="M316.906 174.173L327.568 178.186L326.728 180.163L316.066 176.151L316.906 174.173Z" fill="#4766EA"/>
<path d="M315.638 175.34L327.615 179.85L326.951 181.414L314.973 176.904L315.638 175.34Z" fill="#4766EA"/>
<path d="M326.482 186.526C326.482 186.526 323.941 184.362 322.004 183.756C321.566 183.62 321.114 183.562 320.814 183.893C320.514 184.223 320.641 185.053 321.689 186.043C322.737 187.033 323.612 188.765 323.612 188.765C323.612 188.765 325.011 189.483 326.482 186.526Z" fill="#FF8B70"/>
<path d="M358.426 146.949C362.774 147.861 360.182 158.137 363.095 172.507C366.008 186.877 375.207 189.123 375.207 189.123C375.207 189.123 371.123 182.749 371.567 176.09C371.918 170.884 378.615 156.684 371.994 147.402C366.88 140.229 357.865 146.742 357.865 146.742L358.426 146.949Z" fill="#37120B"/>
<path d="M351.197 147.787C347.283 148.032 338.879 150.815 338.742 160.666C338.742 160.666 339.374 163.249 340.3 165.233C341.225 167.217 340.014 173.491 340.56 173.736C341.106 173.981 343.264 174.131 343.264 174.131C343.264 174.131 346.347 180.508 348.808 180.181C351.269 179.854 360.399 177.02 363.789 168.302C367.187 159.584 366.995 146.793 351.197 147.787Z" fill="#FEB19E"/>
<path d="M338.741 160.665C338.741 160.665 345.554 164.034 351.923 164.17C358.291 164.306 363.514 173.919 363.514 173.919C363.514 173.919 371.227 157.63 362.394 149.364C353.589 141.126 335.991 149.504 338.741 160.665Z" fill="#37120B"/>
<path d="M353.41 164.113C353.305 162.966 354.444 161.105 356.623 162.449C358.803 163.793 356.797 169.516 355.102 169.162C353.406 168.805 353.522 165.297 353.41 164.113Z" fill="#FF8B70"/>
<path d="M295.937 231.841V234.111H181.001V231.841C181.001 229.725 182.511 228.01 184.377 228.01H292.561C294.426 228.01 295.937 229.725 295.937 231.841Z" fill="#2E5B9A"/>
<path d="M222.247 344.798H187.516V339.568H218.835C220.718 339.568 222.247 341.008 222.247 342.781V344.798Z" fill="#2E5B9A"/>
<path d="M194.31 344.799H189.72L189.72 234.108H194.31V344.799Z" fill="#2E5B9A"/>
<path d="M203.533 344.799H198.943L198.943 234.108H203.533V344.799Z" fill="#2E5B9A"/>
<path d="M233.405 164.344H236.105V220.717H233.405V164.344Z" fill="#223F6C"/>
<path d="M229.481 228.01H209.27V226.856H229.481C230.533 226.856 231.292 226.621 231.733 226.155C232.264 225.594 232.185 224.838 232.181 224.832L232.177 224.794V224.76V200.172H233.403V224.733C233.424 224.968 233.471 226.04 232.662 226.904C231.982 227.639 230.912 228.01 229.481 228.01Z" fill="#223F6C"/>
<path d="M256.472 225.988H235.689V228.006H258.442V227.839C258.442 226.819 257.56 225.988 256.472 225.988Z" fill="#223F6C"/>
<path d="M247.168 234.111H181V231.841C181 229.725 182.554 228.01 184.473 228.01H236.809L247.168 234.111Z" fill="#2E5B9A"/>
<path d="M318.682 345.605C318.682 347.589 320.391 349.198 322.499 349.198C324.606 349.198 326.315 347.589 326.315 345.605C326.315 343.621 324.606 342.012 322.499 342.012C320.391 342.012 318.682 343.621 318.682 345.605Z" fill="#3150BC"/>
<path d="M251.419 95H220V119.295V124.413L224.798 119.295H251.419V95Z" fill="#FFC655"/>
<path d="M308.681 126.043H285.284V141.503V144.761L288.856 141.503H308.681V126.043Z" fill="#FFC655"/>
<path d="M292.397 64H269V79.4604V82.7177L272.573 79.4604H292.397V64Z" fill="#FFC655"/>
<path d="M242.398 24H219.001V39.4604V42.7177L222.573 39.4604H242.398V24Z" fill="#FFC655"/>
<path d="M312.397 0H289V15.4604V18.7177L292.573 15.4604H312.397V0Z" fill="#FFC655"/>
<path d="M293.306 157.463H264.561V176.236V180.191L268.95 176.236H293.306V157.463Z" fill="#FFC655"/>
</svg>
