<svg width="567" height="364" viewBox="0 0 567 364" fill="none" xmlns="http://www.w3.org/2000/svg">
<path d="M566.421 212.266C566.575 233.758 565.13 253.459 562.431 270.885C562.242 272.193 562.028 273.502 561.804 274.775C560.395 283.264 558.678 291.175 556.736 298.485C556.393 299.735 556.049 300.973 555.706 302.187C548.235 328.195 537.615 345.774 526.285 352.27H50.5593C50.5593 352.27 10.0087 317.266 1.86312 267.254C1.65 265.98 1.46057 264.707 1.30665 263.422C-1.85451 238.533 3.23651 210.191 25.1397 180.704C35.1323 167.287 48.2624 157.938 63.346 151.501C64.5299 151.005 65.6902 150.534 66.8978 150.074C89.2628 141.361 115.535 138.626 141.913 138.213C143.251 138.19 144.577 138.178 145.915 138.178C161.626 138.06 177.29 138.708 192.149 139.298C193.558 139.369 194.955 139.428 196.34 139.487C220.327 140.489 241.946 141.232 257.633 138.367H257.657C259.101 138.095 260.475 137.801 261.813 137.459H261.836C279.205 133.226 287.765 123.405 281.608 102.301C269.674 61.3551 281.893 31.3381 308.484 14.7615C309.834 13.9127 311.243 13.0874 312.675 12.3092C327.723 4.1978 346.738 -0.0583452 368.238 0.000604136C369.742 0.000604136 371.269 0.0359738 372.809 0.0713434C391.089 0.625468 411.05 4.20959 431.781 11.0595C442.934 14.738 453.329 19.3006 462.955 24.5589C464.139 25.2074 465.323 25.8676 466.46 26.5514C485.332 37.4099 501.22 51.1215 514.374 66.6134C515.274 67.6391 516.126 68.6884 516.991 69.7495C551.172 111.71 566.078 165.872 566.421 212.266Z" fill="#E4EBF7"/>
<path d="M557.038 299.241C556.695 300.494 556.353 301.735 556.011 302.952C548.995 300.435 541.614 297.22 534.067 293.131C499.263 274.211 454.952 232.081 441.524 138.687C435.737 98.4239 443.118 60.0757 463.49 24.6582C464.672 25.3082 465.853 25.97 466.986 26.6554C449.106 57.7121 439.067 94.8432 445.291 138.131C458.495 229.871 501.732 271.186 535.697 289.681C542.996 293.663 550.188 296.807 557.038 299.241Z" fill="white"/>
<path d="M562.909 270.887C562.719 272.193 562.504 273.5 562.278 274.771C540.138 264.483 512.215 242.095 499.187 193.493C486.6 146.433 491.621 104.658 514.606 66.9316C515.51 67.9557 516.367 69.0033 517.235 70.0627C495.38 106.611 490.716 147.033 502.911 192.528C515.368 239.023 541.744 260.74 562.909 270.887Z" fill="white"/>
<path d="M354.334 79.8462C356.177 141.911 349.123 182.017 331.447 209.902C312.932 239.125 282.058 256.788 231.31 267.164C221.858 269.104 212.512 270.074 203.343 270.074C174.785 270.074 147.881 260.763 124.308 242.544C96.8963 221.343 75.9001 189.411 63.86 152.038C65.0415 151.541 66.1995 151.068 67.4047 150.606C79.1966 187.353 99.7675 218.752 126.648 239.539C156.86 262.916 192.803 271.162 230.554 263.449C324.925 244.117 354.074 199.515 350.529 79.9527C349.513 46.0101 355.433 19.2251 368.123 0C369.623 0 371.148 0.0354925 372.684 0.0709849C359.486 18.7519 353.318 45.4895 354.334 79.8462Z" fill="white"/>
<path d="M236.783 208.023C232.863 208.671 228.813 209.013 224.692 209.013C194.287 209.013 159.477 190.632 142.533 138.742C143.867 138.718 145.19 138.707 146.524 138.707C165.192 194.415 205.221 209.367 236.157 204.3C277.945 197.466 318.139 154.531 310.369 88.4187C307.028 60.058 306.874 35.8449 308.657 15.3668C310.003 14.5184 311.408 13.6937 312.837 12.916C310.759 33.7711 310.688 58.6206 314.148 87.9709C322.189 156.416 280.283 200.907 236.783 208.023Z" fill="white"/>
<path d="M262.305 137.385C260.82 144.06 258.221 150.876 253.766 156.594C247.85 164.238 239.539 168.775 229.06 170.039C227.802 170.192 226.569 170.263 225.359 170.263C218.856 170.263 212.904 168.078 207.623 163.695C200.641 157.906 195.551 148.927 191.851 139.216C193.276 139.287 194.689 139.346 196.09 139.405C199.527 148.006 204.078 155.779 210.114 160.788C215.515 165.254 221.743 167.109 228.593 166.27C238.006 165.124 245.431 161.096 250.712 154.303C254.377 149.589 256.688 143.93 258.101 138.283H258.125C259.562 138.035 260.952 137.727 262.305 137.385Z" fill="white"/>
<path d="M114.351 352.271H110.186C93.0497 313.624 68.3422 287.856 36.6568 275.644C25.1575 271.203 13.4802 268.889 2.18259 268.001C1.96898 266.739 1.77911 265.477 1.62483 264.203C13.5276 265.045 25.8695 267.464 38.0453 272.15C71.131 284.899 96.776 311.813 114.351 352.271Z" fill="white"/>
<path d="M333.905 120.742C334.162 118.45 334.297 116.121 334.297 113.761C334.297 112.516 334.257 111.28 334.184 110.053L322.647 106.321C321.938 101.457 320.541 96.817 318.563 92.498L326.213 83.0851C324.445 79.9711 322.416 77.0249 320.153 74.2775L308.614 78.0423C305.251 74.6074 301.409 71.6448 297.192 69.262L297.849 57.1399C294.629 55.6741 291.262 54.4744 287.778 53.5701L280.653 63.4024C277.876 62.9357 275.025 62.6877 272.115 62.6877C270.131 62.6877 268.175 62.8044 266.25 63.025L259.656 52.8281C256.122 53.5464 252.697 54.5656 249.408 55.8564L249.422 67.9967C245.078 70.1553 241.085 72.9119 237.552 76.1626L226.232 71.7943C223.827 74.4233 221.643 77.2565 219.714 80.2701L226.857 90.0768C224.646 94.2938 223.005 98.8553 222.042 103.663L210.327 106.781C210.07 109.072 209.935 111.402 209.935 113.761C209.935 115.007 209.975 116.243 210.048 117.47L221.585 121.202C222.296 126.066 223.69 130.706 225.668 135.025L218.018 144.438C219.787 147.552 221.816 150.498 224.079 153.245L235.617 149.48C238.979 152.915 242.822 155.88 247.039 158.261L246.383 170.383C249.603 171.849 252.97 173.048 256.454 173.953L263.579 164.12C266.356 164.587 269.207 164.835 272.117 164.835C274.1 164.835 276.057 164.718 277.982 164.498L284.578 174.693C288.111 173.974 291.537 172.955 294.826 171.665L294.811 159.524C299.156 157.366 303.149 154.609 306.682 151.358L318.002 155.727C320.406 153.098 322.591 150.264 324.519 147.251L317.376 137.444C319.588 133.227 321.229 128.666 322.193 123.858L333.905 120.742ZM272.115 138.15C258.646 138.15 247.725 127.231 247.725 113.761C247.725 100.292 258.644 89.3713 272.115 89.3713C285.584 89.3713 296.505 100.29 296.505 113.761C296.505 127.231 285.586 138.15 272.115 138.15Z" fill="#AFC8EC"/>
<path d="M305.381 141.576C305.175 141.576 304.969 141.507 304.8 141.365C304.413 141.042 304.36 140.468 304.681 140.081C310.811 132.71 314.187 123.363 314.187 113.761C314.187 109.163 313.434 104.647 311.952 100.34C311.788 99.8645 312.041 99.3449 312.517 99.1808C312.993 99.0167 313.513 99.2702 313.677 99.746C315.226 104.244 316.012 108.96 316.012 113.761C316.012 123.788 312.486 133.551 306.085 141.248C305.903 141.463 305.644 141.576 305.381 141.576Z" fill="white"/>
<path d="M301.85 84.0136C301.626 84.0136 301.402 83.9315 301.225 83.7656C297.106 79.8878 292.335 76.947 287.045 75.0273C286.57 74.8559 286.326 74.3326 286.498 73.8586C286.669 73.3846 287.192 73.1403 287.666 73.3135C293.192 75.319 298.175 78.3873 302.476 82.4365C302.842 82.7811 302.86 83.359 302.514 83.7255C302.335 83.9169 302.093 84.0136 301.85 84.0136Z" fill="white"/>
<path d="M262.656 73.8473C262.248 73.8473 261.878 73.572 261.774 73.1581C261.65 72.6695 261.947 72.1736 262.434 72.0515C265.867 71.1855 269.42 70.7461 272.994 70.7461C273.497 70.7461 273.905 71.1545 273.905 71.6577C273.905 72.1609 273.497 72.5692 272.994 72.5692C269.57 72.5692 266.168 72.9904 262.881 73.8199C262.804 73.8382 262.729 73.8473 262.656 73.8473Z" fill="white"/>
<path d="M137.883 275.17C138.059 273.582 138.154 271.971 138.154 270.335C138.154 269.473 138.125 268.616 138.076 267.766L130.085 265.181C129.593 261.812 128.626 258.598 127.255 255.608L132.553 249.088C131.328 246.931 129.923 244.891 128.357 242.988L120.366 245.595C118.036 243.216 115.374 241.163 112.455 239.515L112.909 231.119C110.679 230.104 108.348 229.272 105.934 228.647L100.998 235.457C99.075 235.132 97.1006 234.962 95.0842 234.962C93.7095 234.962 92.3549 235.043 91.0222 235.196L86.4534 228.135C84.0049 228.632 81.633 229.338 79.3559 230.231L79.3668 238.64C76.3586 240.135 73.5929 242.044 71.1444 244.295L63.3049 241.271C61.6385 243.092 60.1271 245.054 58.7889 247.141L63.737 253.932C62.2055 256.853 61.0697 260.013 60.4006 263.342L52.2858 265.5C52.1089 267.088 52.0141 268.702 52.0141 270.335C52.0141 271.198 52.0433 272.054 52.0925 272.904L60.0834 275.489C60.5756 278.858 61.5419 282.073 62.9129 285.063L57.6148 291.582C58.84 293.739 60.2456 295.779 61.8117 297.682L69.8026 295.075C72.1326 297.454 74.7944 299.507 77.7132 301.155L77.2593 309.551C79.489 310.567 81.8208 311.398 84.2346 312.023L89.1699 305.214C91.0933 305.538 93.0678 305.708 95.0842 305.708C96.4588 305.708 97.8134 305.626 99.1461 305.474L103.715 312.536C106.163 312.038 108.535 311.332 110.812 310.439L110.802 302.031C113.81 300.536 116.575 298.627 119.024 296.375L126.863 299.4C128.53 297.578 130.041 295.617 131.379 293.529L126.431 286.738C127.963 283.817 129.099 280.658 129.768 277.329L137.883 275.17ZM95.0842 287.227C85.7551 287.227 78.1909 279.664 78.1909 270.333C78.1909 261.002 85.7533 253.44 95.0842 253.44C104.413 253.44 111.977 261.002 111.977 270.333C111.977 279.664 104.415 287.227 95.0842 287.227Z" fill="#AFC8EC"/>
<path d="M118.126 289.88C117.92 289.88 117.714 289.811 117.544 289.669C117.158 289.346 117.105 288.772 117.426 288.385C121.63 283.33 123.945 276.92 123.945 270.333C123.945 267.178 123.429 264.081 122.412 261.127C122.248 260.652 122.502 260.132 122.977 259.968C123.453 259.804 123.973 260.057 124.137 260.533C125.22 263.678 125.769 266.974 125.769 270.331C125.769 277.343 123.304 284.167 118.828 289.548C118.647 289.769 118.387 289.88 118.126 289.88Z" fill="white"/>
<path d="M115.679 250.009C115.455 250.009 115.23 249.927 115.054 249.761C112.228 247.101 108.957 245.085 105.327 243.768C104.853 243.597 104.609 243.074 104.78 242.6C104.951 242.126 105.475 241.881 105.949 242.053C109.812 243.455 113.296 245.601 116.302 248.432C116.669 248.777 116.687 249.354 116.341 249.721C116.164 249.914 115.921 250.009 115.679 250.009Z" fill="white"/>
<path d="M88.5323 242.967C88.1239 242.967 87.7538 242.692 87.6499 242.278C87.5259 241.789 87.8231 241.293 88.3098 241.171C90.7109 240.566 93.1941 240.258 95.6936 240.258C96.1968 240.258 96.6052 240.666 96.6052 241.169C96.6052 241.673 96.1968 242.081 95.6936 242.081C93.3454 242.081 91.0117 242.369 88.7565 242.938C88.6818 242.96 88.607 242.967 88.5323 242.967Z" fill="white"/>
<path d="M371.142 167.189C371.142 166.719 371.128 166.251 371.104 165.786L377.091 160.978C376.623 158.579 375.888 156.276 374.916 154.101L367.186 153.516C365.429 150.743 363.153 148.331 360.495 146.415L360.47 138.712C358.316 137.583 356.021 136.688 353.615 136.068L348.331 141.755C347.42 141.656 346.495 141.605 345.558 141.605C343.23 141.605 340.975 141.919 338.831 142.5L332.772 137.7C330.486 138.694 328.337 139.943 326.364 141.416L327.511 149.053C325.252 151.301 323.412 153.968 322.114 156.929L314.577 158.675C313.941 161.002 313.558 163.434 313.463 165.941L320.101 169.778C320.439 173.14 321.429 176.309 322.94 179.158L319.617 186.119C321.042 188.068 322.681 189.853 324.501 191.434L331.618 188.646C334.417 190.467 337.593 191.756 341.004 192.369L344.358 199.277C344.758 199.291 345.159 199.302 345.564 199.302C347.575 199.302 349.542 199.116 351.451 198.763L353.713 191.446C357.009 190.34 360.003 188.579 362.546 186.32L370.027 188.001C371.562 186.199 372.9 184.227 374.012 182.114L369.677 175.746C370.625 173.069 371.142 170.19 371.142 167.189ZM345.277 178.462C339.327 178.462 334.501 173.638 334.501 167.685C334.501 161.735 339.325 156.909 345.277 156.909C351.228 156.909 356.054 161.733 356.054 167.685C356.054 173.636 351.23 178.462 345.277 178.462Z" fill="#AFC8EC"/>
<g opacity="0.8">
<path opacity="0.8" d="M470.758 105.108H461.497C457.92 105.108 455.01 102.198 455.01 98.6214V89.3598C455.01 85.7828 457.92 82.873 461.497 82.873H470.758C474.335 82.873 477.245 85.7828 477.245 89.3598V98.6214C477.245 102.198 474.335 105.108 470.758 105.108ZM461.497 85.4255C459.327 85.4255 457.562 87.1903 457.562 89.3598V98.6214C457.562 100.791 459.327 102.556 461.497 102.556H470.758C472.928 102.556 474.693 100.791 474.693 98.6214V89.3598C474.693 87.1903 472.928 85.4255 470.758 85.4255H461.497Z" fill="#9AB3D9"/>
</g>
<g opacity="0.8">
<path opacity="0.8" d="M427.18 105.108H417.919C414.342 105.108 411.432 102.198 411.432 98.6214V89.3598C411.432 85.7828 414.342 82.873 417.919 82.873H427.18C430.757 82.873 433.667 85.7828 433.667 89.3598V98.6214C433.665 102.198 430.755 105.108 427.18 105.108ZM417.917 85.4255C415.747 85.4255 413.982 87.1903 413.982 89.3598V98.6214C413.982 100.791 415.747 102.556 417.917 102.556H427.178C429.348 102.556 431.113 100.791 431.113 98.6214V89.3598C431.113 87.1903 429.348 85.4255 427.178 85.4255H417.917Z" fill="#9AB3D9"/>
</g>
<path d="M423.128 99.716C423.11 99.716 423.094 99.716 423.076 99.7142C422.755 99.6978 422.456 99.5428 422.261 99.2876L415.604 90.6039C415.236 90.1244 415.327 89.4371 415.807 89.0707C416.286 88.7042 416.972 88.7935 417.34 89.273L423.21 96.9302L438.538 80.5092C438.95 80.068 439.642 80.0442 440.084 80.4563C440.525 80.8683 440.549 81.5611 440.137 82.0023L423.929 99.3678C423.721 99.5902 423.431 99.716 423.128 99.716Z" fill="#FFE080"/>
<path d="M501.883 344.177C463.997 342.313 335.114 345.47 295.916 346.7C256.719 347.93 211.22 345.076 187.585 340.88C163.95 336.684 27.3352 341.238 33.5344 352.522C39.7337 363.806 94.403 357.57 156.399 362.105C218.395 366.64 357.825 361.539 389.275 362.105C420.726 362.671 449.566 360.971 490.097 358.704C530.628 356.437 523.846 345.256 501.883 344.177Z" fill="#9AB3D9"/>
<path d="M113.818 109.533H34.558V239.445H113.818V109.533Z" fill="#9AB3D9"/>
<path d="M111.212 112.18H38.7092V234.493H111.212V112.18Z" fill="white"/>
<path d="M84.3767 177.151H65.7733C64.5846 177.151 63.6111 176.177 63.6111 174.988C63.6111 173.798 64.5846 172.826 65.7733 172.826H84.3749C85.5636 172.826 86.5371 173.8 86.5371 174.988C86.539 176.177 85.5654 177.151 84.3767 177.151Z" fill="#9AB3D9"/>
<path d="M87.7819 183.797H62.3672C61.1785 183.797 60.205 182.824 60.205 181.635C60.205 180.444 61.1785 179.473 62.3672 179.473H87.7801C88.9688 179.473 89.9423 180.446 89.9423 181.635C89.9442 182.824 88.9706 183.797 87.7819 183.797Z" fill="#9AB3D9"/>
<path d="M105.984 207.696H44.1648C43.4739 207.696 42.9105 207.131 42.9105 206.442C42.9105 205.753 43.4757 205.188 44.1648 205.188H105.984C106.675 205.188 107.238 205.753 107.238 206.442C107.238 207.131 106.673 207.696 105.984 207.696Z" fill="#9AB3D9"/>
<path d="M105.984 213.53H44.1648C43.4739 213.53 42.9105 212.965 42.9105 212.276C42.9105 211.585 43.4757 211.021 44.1648 211.021H105.984C106.675 211.021 107.238 211.587 107.238 212.276C107.238 212.965 106.673 213.53 105.984 213.53Z" fill="#9AB3D9"/>
<path d="M105.984 219.366H44.1648C43.4739 219.366 42.9105 218.801 42.9105 218.112C42.9105 217.421 43.4757 216.857 44.1648 216.857H105.984C106.675 216.857 107.238 217.423 107.238 218.112C107.238 218.801 106.673 219.366 105.984 219.366Z" fill="#9AB3D9"/>
<path d="M59.2371 189.439L60.5261 192.052L63.4085 192.47L61.3228 194.504L61.815 197.374L59.2371 196.019L56.6592 197.374L57.1514 194.504L55.0657 192.47L57.9481 192.052L59.2371 189.439Z" fill="#9AB3D9"/>
<path d="M69.794 189.439L71.083 192.052L73.9654 192.47L71.8797 194.504L72.3719 197.374L69.794 196.019L67.2161 197.374L67.7083 194.504L65.6227 192.47L68.505 192.052L69.794 189.439Z" fill="#9AB3D9"/>
<path d="M80.3536 189.439L81.6426 192.052L84.525 192.47L82.4393 194.504L82.9316 197.374L80.3536 196.019L77.7757 197.374L78.268 194.504L76.1823 192.47L79.0647 192.052L80.3536 189.439Z" fill="#9AB3D9"/>
<path d="M90.9113 189.439L92.2002 192.052L95.0826 192.47L92.9969 194.504L93.4892 197.374L90.9113 196.019L88.3333 197.374L88.8256 194.504L86.7399 192.47L89.6223 192.052L90.9113 189.439Z" fill="#9AB3D9"/>
<path d="M290.52 109.533H211.26V239.445H290.52V109.533Z" fill="#9AB3D9"/>
<path d="M287.912 112.18H215.409V234.493H287.912V112.18Z" fill="white"/>
<path d="M240.541 138.572C240.541 144.392 244.045 153.779 252.31 153.478C260.574 153.178 262.402 144.228 262.722 141.703C263.042 139.178 240.541 138.572 240.541 138.572Z" fill="#3A210F"/>
<path d="M239.407 162.619C241.169 154.987 241.756 153.813 252.267 153.813C262.778 153.812 263.939 155.705 265.241 162.619C261.131 164.381 257.173 166.059 253.498 166.142C245.378 166.325 239.407 162.619 239.407 162.619Z" fill="#FFD93B"/>
<path d="M253.528 158.163C252.664 159.439 252.03 159.492 251.091 158.163C250.345 157.106 248.876 154.705 248.876 153.487V141.326C248.876 140.109 249.873 139.111 251.091 139.111H253.528C254.746 139.111 255.743 140.109 255.743 141.326V153.487C255.743 154.707 254.303 157.02 253.528 158.163Z" fill="#FEB19E"/>
<path d="M253.528 139.111H251.091C249.873 139.111 248.876 140.109 248.876 141.326V152.176C251.612 153.047 254.11 151.315 255.743 149.365V141.326C255.743 140.109 254.746 139.111 253.528 139.111Z" fill="#FF8B70"/>
<path d="M252.309 149.272C256.377 149.272 259.674 144.779 259.674 139.236C259.674 133.693 256.377 129.199 252.309 129.199C248.241 129.199 244.943 133.693 244.943 139.236C244.943 144.779 248.241 149.272 252.309 149.272Z" fill="#FEB19E"/>
<path d="M256.359 131.605C255.484 134.692 253.566 134.656 250.891 135.669C248.217 136.683 246.938 137.702 246.063 139.677C244.948 142.194 246.57 149.536 246.57 149.536C246.57 149.536 239.797 144.468 240.581 136.499C241.365 128.528 246.063 125.441 250.486 125.441C254.909 125.441 256.59 128.136 256.59 128.136C256.59 128.136 258.946 128.145 261.174 130.785C264.169 134.333 263.247 142.947 261.174 146.034C259.101 149.12 257.719 150.089 257.764 149.95C257.81 149.811 259.699 142.723 258.685 138.34C257.673 133.959 256.359 131.605 256.359 131.605Z" fill="#3A210F"/>
<path d="M255.079 144.68C255.079 144.68 253.839 146.288 252.31 146.288C250.78 146.288 249.54 144.68 249.54 144.68H255.079Z" fill="white"/>
<path d="M261.079 177.151H242.477C241.287 177.151 240.315 176.177 240.315 174.988C240.315 173.798 241.289 172.826 242.477 172.826H261.079C262.27 172.826 263.241 173.8 263.241 174.988C263.241 176.177 262.268 177.151 261.079 177.151Z" fill="#9AB3D9"/>
<path d="M264.484 183.797H239.071C237.881 183.797 236.909 182.824 236.909 181.635C236.909 180.444 237.883 179.473 239.071 179.473H264.484C265.675 179.473 266.646 180.446 266.646 181.635C266.646 182.824 265.675 183.797 264.484 183.797Z" fill="#9AB3D9"/>
<path d="M282.686 207.696H220.869C220.178 207.696 219.615 207.131 219.615 206.442C219.615 205.753 220.18 205.188 220.869 205.188H282.688C283.379 205.188 283.943 205.753 283.943 206.442C283.943 207.131 283.377 207.696 282.686 207.696Z" fill="#9AB3D9"/>
<path d="M282.686 213.53H220.869C220.178 213.53 219.615 212.965 219.615 212.276C219.615 211.585 220.18 211.021 220.869 211.021H282.688C283.379 211.021 283.943 211.587 283.943 212.276C283.943 212.965 283.377 213.53 282.686 213.53Z" fill="#9AB3D9"/>
<path d="M282.686 219.364H220.869C220.178 219.364 219.615 218.799 219.615 218.11C219.615 217.419 220.18 216.855 220.869 216.855H282.688C283.379 216.855 283.943 217.421 283.943 218.11C283.943 218.799 283.377 219.364 282.686 219.364Z" fill="#9AB3D9"/>
<path d="M235.938 189.439L237.227 192.052L240.11 192.47L238.024 194.504L238.516 197.374L235.938 196.019L233.36 197.374L233.853 194.504L231.767 192.47L234.649 192.052L235.938 189.439Z" fill="#9AB3D9"/>
<path d="M246.499 189.439L247.788 192.052L250.67 192.47L248.585 194.504L249.077 197.374L246.499 196.019L243.919 197.374L244.413 194.504L242.326 192.47L245.21 192.052L246.499 189.439Z" fill="#9AB3D9"/>
<path d="M257.057 189.439L258.346 192.052L261.228 192.47L259.142 194.504L259.635 197.374L257.057 196.019L254.479 197.374L254.971 194.504L252.885 192.47L255.768 192.052L257.057 189.439Z" fill="#9AB3D9"/>
<path d="M267.614 189.439L268.905 192.052L271.788 192.47L269.702 194.504L270.194 197.374L267.614 196.019L265.036 197.374L265.529 194.504L263.443 192.47L266.325 192.052L267.614 189.439Z" fill="#9AB3D9"/>
<path d="M216.48 85.7695H108.223V263.209H216.48V85.7695Z" fill="#9AB3D9"/>
<path d="M212.924 89.3848H113.894V256.447H212.924V89.3848Z" fill="white"/>
<path d="M186.671 178.126H140.458C138.833 178.126 137.504 176.797 137.504 175.172C137.504 173.548 138.833 172.219 140.458 172.219H186.671C188.295 172.219 189.625 173.548 189.625 175.172C189.626 176.795 188.297 178.126 186.671 178.126Z" fill="#9AB3D9"/>
<path d="M180.921 187.202H146.21C144.585 187.202 143.256 185.873 143.256 184.248C143.256 182.624 144.585 181.295 146.21 181.295H180.921C182.545 181.295 183.874 182.624 183.874 184.248C183.874 185.873 182.545 187.202 180.921 187.202Z" fill="#9AB3D9"/>
<path d="M205.783 219.845H121.347C120.405 219.845 119.634 219.074 119.634 218.132C119.634 217.189 120.405 216.418 121.347 216.418H205.783C206.725 216.418 207.496 217.189 207.496 218.132C207.496 219.074 206.725 219.845 205.783 219.845Z" fill="#9AB3D9"/>
<path d="M205.783 227.814H121.347C120.405 227.814 119.634 227.043 119.634 226.1C119.634 225.158 120.405 224.387 121.347 224.387H205.783C206.725 224.387 207.496 225.158 207.496 226.1C207.496 227.043 206.725 227.814 205.783 227.814Z" fill="#9AB3D9"/>
<path d="M205.783 235.781H121.347C120.405 235.781 119.634 235.01 119.634 234.067C119.634 233.125 120.405 232.354 121.347 232.354H205.783C206.725 232.354 207.496 233.125 207.496 234.067C207.496 235.01 206.725 235.781 205.783 235.781Z" fill="#9AB3D9"/>
<path d="M134.607 194.91L136.368 198.478L140.305 199.049L137.457 201.827L138.13 205.747L134.607 203.896L131.087 205.747L131.758 201.827L128.91 199.049L132.846 198.478L134.607 194.91Z" fill="#FFD93B"/>
<path d="M149.027 194.91L150.789 198.478L154.727 199.049L151.877 201.827L152.55 205.747L149.027 203.896L145.507 205.747L146.18 201.827L143.33 199.049L147.268 198.478L149.027 194.91Z" fill="#FFD93B"/>
<path d="M163.448 194.91L165.209 198.478L169.147 199.049L166.298 201.827L166.97 205.747L163.448 203.896L159.928 205.747L160.6 201.827L157.751 199.049L161.689 198.478L163.448 194.91Z" fill="#FFD93B"/>
<path d="M177.871 194.91L179.631 198.478L183.569 199.049L180.719 201.827L181.392 205.747L177.871 203.896L174.349 205.747L175.022 201.827L172.172 199.049L176.11 198.478L177.871 194.91Z" fill="#FFD93B"/>
<path d="M192.523 194.91L194.282 198.478L198.22 199.049L195.371 201.827L196.044 205.747L192.523 203.896L189.001 205.747L189.673 201.827L186.824 199.049L190.762 198.478L192.523 194.91Z" fill="#FFD93B"/>
<path d="M389.97 258.318H252.063C251.234 258.318 250.563 257.568 250.563 256.641V254.125C250.563 253.198 251.234 252.447 252.063 252.447H389.97C390.799 252.447 391.471 253.198 391.471 254.125V256.641C391.471 257.568 390.799 258.318 389.97 258.318Z" fill="#2E5B9A"/>
<path d="M426.116 181.331C427.998 187.967 423.401 194.805 418.337 196.242C413.272 197.679 409.659 193.17 407.777 186.534C405.896 179.898 408.474 173.354 413.538 171.918C418.603 170.481 424.233 174.696 426.116 181.331Z" fill="#FEB19E"/>
<path d="M397.723 309.918C397.723 309.918 410.702 330.077 412.454 330.953C414.206 331.83 418.589 332.049 416.946 335.336C415.303 338.623 414.645 351.551 413.112 352.208C411.578 352.866 398.432 354.399 400.403 352.208C402.375 350.016 403.588 351.112 404.583 347.169C405.579 343.225 406.977 335.774 405.114 334.241C403.25 332.707 391.858 318.902 391.858 318.902L397.723 309.918Z" fill="#FEB19E"/>
<path d="M332.399 318.574C332.399 318.574 316.622 344.578 313.701 346.915C310.779 349.252 301.138 352.758 309.027 353.343C316.915 353.927 320.713 350.714 325.679 349.252C330.646 347.79 336.782 346.915 334.445 343.117C332.108 339.32 333.079 331.028 338.117 325.768C343.156 320.509 332.399 318.574 332.399 318.574Z" fill="#FEB19E"/>
<path d="M412.912 258.277C412.912 258.277 373.857 257.256 358.373 269.964C349.316 283.696 327.405 324.212 325.702 328.676C326.871 329.845 333.445 331.954 336.366 331.661C344.984 321.384 356.377 312.5 360.907 304.438C366.491 294.503 368.211 289.537 377.268 288.66C386.325 287.783 406.778 284.863 412.912 284.863C419.047 284.863 412.912 258.277 412.912 258.277Z" fill="#3150BC"/>
<path d="M446.971 353.415H444.923L430.243 292.164H434.746L446.971 353.415Z" fill="#2E5B9A"/>
<path d="M385.643 353.412H387.69L404.536 289.996H400.033L385.643 353.412Z" fill="#2E5B9A"/>
<path d="M435.161 255.604L412.454 259.523C412.454 259.523 382.279 259.8 368.487 262.369C355.938 264.706 354.089 278.965 368.487 298.597C376.665 309.749 383.581 318.646 397.723 328.677C401.32 326.035 402.696 325.036 403.69 318.683C402.667 317.279 400.016 308.497 399.194 306.777C391.373 290.427 380.932 284.48 380.788 282.872C382.542 280.025 427.22 297.72 436.104 287.31C444.587 277.372 435.161 255.604 435.161 255.604Z" fill="#4766EA"/>
<path d="M436.103 204.198C430.123 203.359 424.032 204.495 418.336 208.619C413.359 213.693 407.726 222.061 408.072 235.862C408.509 253.392 405.359 254.516 408.646 259.337C422.354 264.998 445.8 289.319 440.278 263.244C436.28 244.363 449.045 230.291 438.748 209.348C437.91 207.645 436.861 205.992 436.103 204.198Z" fill="#FFE080"/>
<path d="M408.07 242.459C407.804 251.596 406.513 254.289 407.5 257.153C413.088 257.724 423.31 259.961 425.864 263.536C428.787 267.625 431.707 268.211 430.344 265.191C428.98 262.172 425.377 257.888 430.929 243.182C436.48 228.477 439.109 218.543 433.656 208.318L408.07 242.459Z" fill="#FFCD4D"/>
<path d="M436.104 204.198C432.422 195.48 431.517 185.686 431.517 185.686L421.876 188.533C421.876 188.533 427.355 200.803 422.095 205.186C420.978 206.118 419.681 207.248 418.336 208.619C424.035 204.495 430.124 203.357 436.104 204.198Z" fill="#FEB19E"/>
<path d="M431.808 188.006C431.237 187.497 430.522 186.863 429.771 186.201L421.908 188.524C421.903 188.538 421.897 188.553 421.892 188.566C422.081 189 424.085 193.674 424.347 198.17C426.69 196.748 429.257 194.431 432.191 190.382C432.032 189.483 431.906 188.681 431.808 188.006Z" fill="#FF8B70"/>
<path d="M429.327 206.938C419.398 210.411 420.499 220.872 411.359 236.3C406.63 244.283 402.236 244.165 402.236 244.165C402.236 244.165 391.144 244.254 377.728 242.613C369.327 241.587 368.793 244.087 374.636 246.176C386.421 250.389 398.648 254.923 408.508 253.828C418.368 252.732 435.232 227.574 436.101 221.026C437.306 211.97 434.327 205.19 429.327 206.938Z" fill="#F09959"/>
<path d="M424.213 294.716C423.594 294.716 422.964 294.709 422.315 294.693C414.222 294.492 408.714 293.373 404.287 292.474C399.119 291.424 396.273 290.846 392.958 292.428C391.686 293.035 390.163 292.498 389.554 291.225C388.946 289.952 389.485 288.43 390.758 287.821C395.613 285.5 399.678 286.326 405.303 287.471C409.533 288.332 414.798 289.4 422.44 289.59C430.995 289.803 436.211 288.534 438.854 285.602C441.21 282.99 441.899 278.601 441.024 271.792C440.725 269.462 440.424 267.522 440.16 265.812C439.414 260.986 438.92 257.799 439.531 252.871C440.098 248.295 441.613 242.199 445.122 230.379C445.523 229.028 446.943 228.259 448.296 228.658C449.647 229.059 450.418 230.48 450.017 231.832C443.478 253.858 443.81 256.004 445.204 265.032C445.474 266.773 445.779 268.746 446.087 271.141C447.166 279.54 446.074 285.221 442.646 289.023C439.115 292.933 433.387 294.716 424.213 294.716Z" fill="#2E5B9A"/>
<path d="M333.471 340.49C323.003 345.61 317.369 348.543 314.013 348.264C313.22 348.199 312.564 348.116 312.013 348.031C308.279 350.237 302.321 352.844 309.025 353.342C316.914 353.925 320.711 350.713 325.678 349.25C330.644 347.788 336.78 346.913 334.443 343.116C333.997 342.388 333.672 341.495 333.471 340.49Z" fill="#FFE080"/>
<path d="M413.598 331.381C413.342 339.669 412.203 347.882 407.133 349.434C405.789 349.846 404.564 349.904 403.481 349.76C402.684 350.746 401.711 350.757 400.405 352.207C398.433 354.398 411.579 352.865 413.114 352.207C414.649 351.549 415.306 338.622 416.948 335.335C418.298 332.635 415.581 332.004 413.598 331.381Z" fill="#FFE080"/>
<path d="M373.273 252.94H340.017C339.024 252.94 338.121 252.364 337.702 251.464L324.262 222.539C323.667 221.261 324.223 219.743 325.501 219.148C326.781 218.554 328.298 219.11 328.892 220.388L341.645 247.836H373.273C374.682 247.836 375.826 248.979 375.826 250.388C375.826 251.797 374.684 252.94 373.273 252.94Z" fill="#75A1DE"/>
<path d="M380.232 242.903C373.512 242.806 366.849 238.801 363.536 239.384C360.225 239.969 349.414 247.468 350.778 247.76C352.141 248.051 360.712 243.61 361.004 243.543C361.295 243.475 363.146 246.618 367.724 247.774C372.302 248.928 367.757 244.343 381.944 248.629C391.171 251.415 380.232 242.903 380.232 242.903Z" fill="#FEB19E"/>
<path d="M435.116 196.242L436.104 204.198C436.104 204.198 427.407 204.716 423.081 207.15C418.755 209.584 412.368 216.62 412.368 216.62L417.586 207.637L418.337 201.89L435.116 196.242Z" fill="#F2E5DE"/>
<path d="M431.414 205.982C424.954 204.771 421.968 210.559 417.78 220.005C413.592 229.453 406.444 240.926 405.022 242.404C403.6 243.883 381.064 242.404 381.064 242.404C381.064 242.404 380.382 248.929 381.064 249.708C381.746 250.486 385.642 250.39 385.642 250.39C385.642 250.39 387.2 251.633 388.661 252.619C390.121 253.604 402.489 255.454 408.236 255.163C413.982 254.871 419.24 254.384 420.019 253.507C420.797 252.63 436.478 228.479 437.452 219.81C438.425 211.143 434.71 206.6 431.414 205.982Z" fill="#4766EA"/>
<path d="M412.367 166.246C400.152 166.831 402.069 185.206 402.069 185.206C402.069 185.206 405.241 186.185 411.888 185.09C411.378 183.117 411.596 178.078 411.596 178.078C411.596 178.078 412.369 182.169 413.35 184.652C414.756 185.296 416.346 184.725 419.047 184.072C420.435 189.912 424.357 192.379 427.042 193.223C430.008 194.156 433.15 195.268 436.655 193.514C440.161 191.76 438.234 173.843 436.371 170.238C433.576 164.829 428.933 159.988 420.898 162.545C416.867 163.828 412.367 166.246 412.367 166.246Z" fill="#37120B"/>
<path d="M433.612 188.07L438.606 195.365C438.606 195.365 433.071 209.193 449.169 215.46C461.776 220.366 460.29 229.013 454.595 237.707C448.897 246.402 458.004 253.995 458.004 253.995C458.004 253.995 459.393 244.364 471.641 242.546C488.343 240.067 493.072 217.644 480.598 206.431C470.276 197.153 467.134 204.836 460.146 196.51C453.158 188.184 439.968 193.808 439.968 193.808L435.133 186.758L433.612 188.07Z" fill="#37120B"/>
<path d="M486.343 229.018C486.27 229.018 486.197 229 486.129 228.963C485.914 228.845 485.836 228.575 485.952 228.36C490.153 220.685 486.725 211.386 485.002 208.869C484.82 208.603 484.647 208.331 484.463 208.045C482.769 205.401 480.662 202.112 469.416 200.087C466.707 199.6 464.516 197.99 462.193 196.285C457.398 192.765 451.962 188.774 440.153 194.211C439.929 194.313 439.666 194.216 439.564 193.994C439.462 193.771 439.559 193.507 439.781 193.405C452.065 187.751 457.726 191.904 462.718 195.571C464.955 197.212 467.066 198.763 469.573 199.215C481.201 201.308 483.424 204.779 485.21 207.567C485.391 207.848 485.56 208.112 485.735 208.369C487.54 211.007 491.132 220.75 486.733 228.79C486.651 228.936 486.499 229.018 486.343 229.018Z" fill="#303C60"/>
<path d="M430.944 195.547C430.146 195.547 429.28 195.477 428.35 195.337C424.077 194.697 418.343 192.269 417.894 178.63C417.887 178.385 418.078 178.179 418.323 178.172C418.573 178.167 418.773 178.356 418.78 178.6C418.966 184.221 420.08 188.382 422.095 190.963C423.624 192.925 425.654 194.035 428.481 194.458C432.436 195.051 435.057 194.32 436.272 192.287C436.397 192.077 436.671 192.008 436.881 192.134C437.09 192.259 437.16 192.533 437.034 192.743C435.922 194.608 433.878 195.547 430.944 195.547Z" fill="#303C60"/>
<path d="M264.654 353.431H267.775L279.919 254.795H273.052L264.654 353.431Z" fill="#2E5B9A"/>
<path d="M376.206 353.431H373.084L360.941 254.795H367.809L376.206 353.431Z" fill="#2E5B9A"/>
<path d="M504.882 271.035C510.559 276.22 508.09 281.403 503.893 291.031C499.697 300.659 498.956 336.211 498.956 336.211L502.413 335.717C502.413 335.717 501.919 299.179 506.61 289.303C511.301 279.427 513.275 274.49 517.472 277.701C521.669 280.911 504.882 271.035 504.882 271.035Z" fill="#7496CF"/>
<path d="M501.761 264.322C502.451 261.25 506.547 257.924 512.022 255.104C511.207 259.636 508.596 267.045 511.298 268.564C514.943 270.613 511.654 260.269 513.059 254.582C518.203 252.072 524.387 250.019 530.084 248.998C530.077 249.02 530.069 249.04 530.06 249.06C526.852 257.208 522.655 260.416 524.383 261.651C525.683 262.579 529.918 253.168 535.51 248.344C539.707 248.119 543.258 248.688 545.358 250.353C548.605 252.923 550.784 255.204 547.519 263.031C545.654 264.364 543.236 265.319 540.429 265.6C533.023 266.34 529.566 266.588 534.749 269.056C537.289 270.265 541.544 268.987 544.994 268.21C543.874 270.272 542.498 272.608 540.826 275.266C539.765 276.952 538.598 278.416 537.357 279.682C534.97 280.139 532.888 280.145 531.787 279.673C528.33 278.19 519.442 273.501 517.222 275.476C515.047 277.408 533.681 278.633 532.39 283.545C523.358 288.748 513.023 286.272 511.196 281.494C508.744 275.08 499.685 273.57 501.761 264.322Z" fill="#9AB3D9"/>
<path d="M520.434 299.426C510.558 292.018 500.436 298.932 495.253 306.831C490.068 314.731 493.771 332.507 493.771 332.507C493.771 332.507 495.745 332.507 495.745 331.767C495.745 331.026 490.314 310.782 503.151 301.646C511.182 295.933 516.976 298.684 517.716 301.4C518.456 304.117 514.507 309.054 514.507 309.054L520.434 299.426Z" fill="#7496CF"/>
<path d="M497.721 284.201C507.597 284.201 510.806 299.508 508.089 308.396C505.373 317.284 501.67 333.825 501.67 333.825L499.202 331.357C499.202 331.357 508.583 308.15 506.361 297.782C504.139 287.414 498.707 285.685 497.719 285.685C496.733 285.682 497.721 284.201 497.721 284.201Z" fill="#9AB3D9"/>
<path d="M506.005 308.463C506.7 307.543 507.558 306.782 508.605 306.279C508.468 307.014 508.297 307.723 508.092 308.394C506.854 312.443 505.412 318.081 504.209 323.019C504.1 322.387 503.932 321.413 503.671 319.909C503.609 319.554 503.562 319.169 503.527 318.761C504.494 315.472 505.407 311.889 506.005 308.463Z" fill="#7496CF"/>
<path d="M508.703 308.539C527.465 300.639 517.58 289.799 534.121 296.956C535.286 297.461 536.706 298.732 538.129 300.486C536.655 300.904 534.871 301.204 532.887 300.907C527.95 300.167 529.678 304.116 537.824 305.104C539.359 305.29 540.606 305.547 541.642 305.91C545.523 313.365 547.272 323.173 539.058 326.583C537.439 327.255 535.439 327.638 533.213 327.782C530.679 325.768 533.831 314.11 529.924 315.72C526.172 317.264 531.1 325.713 530.426 327.842C526.723 327.775 522.623 327.17 518.705 326.2C517.155 325.33 515.97 324.165 515.605 322.634C514.371 317.449 522.519 314.24 522.765 309.795C522.993 305.709 519.779 318.783 511.266 320.707C503.569 317.111 499.932 312.231 508.703 308.539Z" fill="#9AB3D9"/>
<path d="M495.335 294.57C497.309 290.373 492.126 289.385 492.372 292.595C492.591 295.439 492.615 302.353 489.698 304.234C484.668 303.689 477.824 301.662 472.65 298.573C472.584 298.156 472.648 297.726 472.867 297.286C475.089 292.841 489.408 289.139 484.963 287.658C481.424 286.479 475.222 293.441 470.225 296.949C467.224 294.672 465.213 291.957 465.213 288.927C465.213 284.825 470.196 280.183 476.64 277.965C479.541 278.256 482.236 279.842 486.443 282.227C492.66 285.749 491.222 280.054 485.344 276.674C490.418 276.936 495.477 279.104 499.209 284.284C499.209 284.284 498.856 286.497 501.2 289.923C507.592 299.266 500.216 304.719 491.397 304.366C491.898 301.901 493.969 297.47 495.335 294.57Z" fill="#9AB3D9"/>
<path d="M519.84 299.008C524.668 302.738 530.032 307.101 536.615 310.063C543.198 313.026 541.882 322.681 541.882 322.681C541.882 322.681 542.87 314.342 537.383 311.489C531.897 308.636 528.274 305.234 524.105 304.576C519.935 303.917 517.631 303.259 517.631 303.259C517.631 303.259 518.947 300.625 518.179 299.639C517.412 298.652 519.84 299.008 519.84 299.008Z" fill="#7496CF"/>
<path d="M543.638 255.197C525.971 259.916 513.023 271.217 510.609 273.961C508.196 276.705 508.196 277.472 508.196 277.472L510.061 280.984L510.938 280.544C510.938 280.544 509.512 277.582 513.242 273.74C519.676 267.117 527.506 261.89 532.883 259.586C538.261 257.283 543.638 255.197 543.638 255.197Z" fill="#7496CF"/>
<path d="M494.872 352.986H501.621C506.421 352.986 510.312 349.095 510.312 344.295V328.787H486.183V344.295C486.181 349.095 490.071 352.986 494.872 352.986Z" fill="#75A1DE"/>
<path d="M510.311 331.559H486.182V333.258H510.311V331.559Z" fill="white"/>
<path d="M510.311 334.656H486.182V335.655H510.311V334.656Z" fill="white"/>
<path d="M60.3361 161.444C63.1155 152.924 67.8183 153.812 75.5418 153.812C84.7375 153.812 87.7514 154.53 89.1049 161.444C82.6466 166.141 79.6061 166.083 75.5418 166.141C65.834 166.279 60.3361 161.444 60.3361 161.444Z" fill="#FFD93B"/>
<path d="M72.1156 124.926C68.2925 126 68.4602 128.147 67.1858 130.14C65.9114 132.135 63.1421 133.464 62.8103 134.793C62.4784 136.122 63.6635 138.891 62.256 140.443C60.8504 141.994 60.3727 142.769 60.9269 144.319C61.4812 145.87 62.699 148.306 62.8103 148.638C62.9215 148.97 64.4711 151.296 66.3545 151.628C68.2378 151.96 71.782 152.514 73.5541 153.289C75.3262 154.063 81.0253 152.297 84.1885 152.406C87.3516 152.517 89.5048 150.187 89.2842 148.636C89.0636 147.084 91.616 143.983 91.6105 141.325C91.6032 138.47 88.2869 136.341 87.4009 134.457C86.5148 132.574 87.5121 129.25 84.1885 127.283C82.0882 126.04 80.6443 126.149 78.9816 125.597C77.3207 125.044 74.5513 124.24 72.1156 124.926Z" fill="#3A384D"/>
<path d="M76.7654 158.163C75.9013 159.439 75.2668 159.492 74.3279 158.163C73.5822 157.106 72.1128 154.705 72.1128 153.487V141.326C72.1128 140.109 73.11 139.111 74.3279 139.111H76.7654C77.9833 139.111 78.9806 140.109 78.9806 141.326V153.487C78.9806 154.707 77.5421 157.02 76.7654 158.163Z" fill="#FEB19E"/>
<path d="M76.7654 139.111H74.3279C73.11 139.111 72.1128 140.109 72.1128 141.326V152.176C74.8493 153.047 77.347 151.315 78.9806 149.365V141.326C78.9806 140.109 77.9851 139.111 76.7654 139.111Z" fill="#FF8B70"/>
<path d="M75.5491 149.272C79.6169 149.272 82.9146 144.779 82.9146 139.236C82.9146 133.693 79.6169 129.199 75.5491 129.199C71.4812 129.199 68.1835 133.693 68.1835 139.236C68.1835 144.779 71.4812 149.272 75.5491 149.272Z" fill="#FEB19E"/>
<path d="M78.981 131.248C74.3284 139.113 67.4606 138.337 67.4606 138.337C67.4606 138.337 67.6265 127.925 73.0813 127.371C78.5362 126.816 81.7486 129.006 82.857 132.619C83.9655 136.233 82.857 138.614 82.857 138.614C82.857 138.614 81.0849 137.23 80.1989 135.013C79.3147 132.798 78.981 131.248 78.981 131.248Z" fill="#3A384D"/>
<path d="M68.4316 142.539C69.3985 142.08 69.6237 140.532 68.9347 139.081C68.2458 137.63 66.9035 136.827 65.9366 137.286C64.9698 137.745 64.7446 139.293 65.4335 140.744C66.1225 142.195 67.4648 142.998 68.4316 142.539Z" fill="#FEB19E"/>
<path d="M81.8273 139.082C81.1382 140.533 81.3643 142.081 82.3305 142.54C83.2968 143 84.6405 142.196 85.3296 140.746C86.0188 139.295 85.7927 137.747 84.8264 137.288C83.8601 136.828 82.5165 137.63 81.8273 139.082Z" fill="#FEB19E"/>
<path d="M78.3183 144.68C78.3183 144.68 77.0785 146.288 75.5489 146.288C74.0193 146.288 72.7795 144.68 72.7795 144.68H78.3183Z" fill="white"/>
<circle cx="75.0145" cy="142.658" r="23.5718" stroke="#D6E4F0"/>
<circle cx="252.324" cy="142.658" r="23.5718" stroke="#D6E4F0"/>
<path d="M154.451 129.437C154.381 129.229 152.647 119.279 152.44 115.408C152.232 111.537 158.658 110.985 158.658 110.985C158.658 110.985 163.911 108.152 167.712 109.603C171.513 111.054 174.1 113.496 175.827 116.537C177.555 119.578 174.306 129.054 174.306 129.054L154.451 129.437Z" fill="#3A210F"/>
<path d="M147.229 158.507C144.881 156.745 144.011 153.972 143.707 155.571C144.582 147.325 154.036 146.604 164.18 146.604C176.098 146.604 183.516 148.175 184.805 156.745C184.843 156.997 181.869 158.507 178.934 160.268C177.172 162.029 165.43 163.807 163.669 163.791C157.21 163.791 147.229 158.507 147.229 158.507Z" fill="#DBE4F3"/>
<path d="M166.225 153.006C165.043 154.749 164.177 154.822 162.896 153.006C161.876 151.562 158.473 148.269 158.473 146.605L159.869 130.009C159.869 128.344 161.231 126.982 162.896 126.982H166.225C167.889 126.982 169.251 128.344 169.251 130.009L169.9 146.605C169.9 148.269 167.284 151.444 166.225 153.006Z" fill="#FEB19E"/>
<path d="M166.225 126.984H162.896C161.232 126.984 159.87 128.346 159.87 130.011L158.657 144.733C162.395 145.923 167.441 143.504 169.673 140.84L169.25 130.011C169.252 128.346 167.89 126.984 166.225 126.984Z" fill="#FF8B70"/>
<path d="M153.1 148.273L158.393 158.599C158.393 158.599 161.227 156.139 161.5 156.622C161.775 157.105 160.997 163.191 160.997 163.191C160.997 163.191 167.303 163.281 167.577 162.993C167.852 162.703 166.297 156.381 166.937 156.381C167.577 156.381 169.501 158.214 169.501 158.214L175.411 148.273L174.113 147.939L164.431 153.438L154.075 148.06L153.1 148.273Z" fill="#9AB3D9"/>
<path d="M158.972 152.99L163.148 155.785L161.853 163.203H167.191L166.078 156.143L169.54 152.99L167.913 151.461H160.597L158.972 152.99Z" fill="#FFD93B"/>
<path d="M158.75 142.981L153.85 147.644C153.85 147.644 158.843 156.525 159.12 156.525C159.397 156.525 163.357 151.628 163.357 151.628L165.893 151.584L169.901 155.788L174.557 147.551L169.809 142.52C169.809 142.52 165.755 150.352 165.018 150.536C164.282 150.72 164.276 150.813 163.68 150.352C163.084 149.891 158.75 142.981 158.75 142.981Z" fill="#DBE4F3"/>
<path d="M164.56 140.862C170.116 140.862 174.62 134.724 174.62 127.154C174.62 119.583 170.116 113.445 164.56 113.445C159.004 113.445 154.5 119.583 154.5 127.154C154.5 134.724 159.004 140.862 164.56 140.862Z" fill="#FEB19E"/>
<path d="M155.53 126.941C156.471 128.923 156.163 131.038 154.843 131.665C153.523 132.292 151.689 131.195 150.748 129.213C149.808 127.231 150.116 125.116 151.436 124.489C152.756 123.862 154.59 124.959 155.53 126.941Z" fill="#FEB19E"/>
<path d="M173.139 126.941C172.198 128.923 172.506 131.038 173.826 131.665C175.146 132.292 176.98 131.195 177.921 129.213C178.862 127.231 178.554 125.116 177.234 124.489C175.914 123.862 174.08 124.959 173.139 126.941Z" fill="#FEB19E"/>
<path d="M169.023 132.777C169.023 132.777 167.025 136.013 164.56 136.013C162.096 136.013 160.097 132.777 160.097 132.777H169.023Z" fill="white"/>
<path d="M158.66 117.827C162.805 114.925 164.672 115.408 167.781 120.177C170.891 124.945 174.623 125.03 174.623 125.03L175.106 120.086C175.106 120.086 170.474 111.125 164.255 112.299C158.036 113.474 154.499 119.072 154.499 119.072C154.499 119.072 154.196 129.565 155.064 129.922C155.932 130.279 156.032 126.536 156.654 125.776C157.276 125.016 156.032 121.422 156.862 119.763C157.691 118.104 158.66 117.827 158.66 117.827Z" fill="#3A210F"/>
<path d="M171.997 123.219C173.444 124.803 172.895 131.097 173.656 131.027C174.416 130.958 174.693 125.015 174.485 124.393C174.277 123.771 171.997 123.219 171.997 123.219Z" fill="#2E2D3D"/>
<circle cx="164.844" cy="132.675" r="31.2043" stroke="#D6E4F0"/>
</svg>
