<svg width="762" height="368" viewBox="0 0 762 368" fill="none" xmlns="http://www.w3.org/2000/svg">
<path d="M677.123 214.195C677.278 235.884 675.823 255.764 673.106 273.348C672.915 274.668 672.701 275.989 672.474 277.274C671.056 285.839 669.327 293.822 667.373 301.199C667.027 302.46 666.681 303.709 666.336 304.934C658.815 331.179 648.123 348.918 636.716 355.473H157.787C157.787 355.473 116.964 320.151 108.763 269.683C108.549 268.398 108.358 267.113 108.203 265.817C105.021 240.702 110.146 212.101 132.197 182.347C142.257 168.808 155.475 159.374 170.66 152.878C171.852 152.378 173.02 151.902 174.236 151.438C196.752 142.646 223.2 139.886 249.757 139.47C251.104 139.446 252.438 139.434 253.785 139.434C269.602 139.315 285.371 139.97 300.33 140.564C301.749 140.636 303.155 140.695 304.55 140.755C328.698 141.766 350.463 142.516 366.256 139.625H366.28C367.734 139.351 369.116 139.053 370.463 138.708H370.487C387.973 134.437 396.59 124.527 390.392 103.231C378.378 61.9129 390.678 31.623 417.449 14.8957C418.808 14.0391 420.226 13.2063 421.668 12.4211C436.818 4.23596 455.96 -0.0588757 477.606 0.000609629C479.119 0.000609629 480.657 0.0363008 482.207 0.071992C500.61 0.631154 520.706 4.24786 541.577 11.1601C552.804 14.8719 563.27 19.4761 572.96 24.7822C574.152 25.4365 575.344 26.1028 576.488 26.7928C595.487 37.75 611.483 51.5863 624.725 67.219C625.631 68.2541 626.49 69.3129 627.36 70.3836C661.771 112.725 676.777 167.38 677.123 214.195Z" fill="#E4EBF7"/>
<path d="M667.372 301.209C667.027 302.471 666.681 303.72 666.335 304.945C659.255 302.411 651.806 299.175 644.189 295.059C609.063 276.011 564.342 233.598 550.79 139.576C544.949 99.0427 552.399 60.4367 572.96 24.7812C574.152 25.4356 575.344 26.1018 576.488 26.7919C558.442 58.0573 548.311 95.4379 554.592 139.017C567.918 231.374 611.554 272.966 645.834 291.585C653.2 295.594 660.459 298.759 667.372 301.209Z" fill="white"/>
<path d="M673.106 273.359C672.915 274.68 672.7 276 672.474 277.285C650.292 266.887 622.318 244.259 609.266 195.136C596.655 147.572 601.685 105.349 624.713 67.2188C625.619 68.2538 626.477 69.3126 627.348 70.3834C605.452 107.324 600.779 148.178 612.997 194.16C625.476 241.154 651.901 263.104 673.106 273.359Z" fill="white"/>
<path d="M463.696 80.2933C465.556 142.705 458.44 183.036 440.608 211.078C421.931 240.463 390.786 258.226 339.592 268.66C330.057 270.611 320.629 271.586 311.379 271.586C282.571 271.586 255.43 262.223 231.651 243.902C203.999 222.582 182.818 190.472 170.672 152.889C171.864 152.389 173.032 151.914 174.248 151.45C186.144 188.402 206.895 219.977 234.011 240.88C264.489 264.388 300.747 272.681 338.83 264.924C434.029 245.484 463.434 200.632 459.858 80.4004C458.833 46.2677 464.805 19.3327 477.606 0C479.12 0 480.657 0.0356912 482.207 0.0713824C468.893 18.8568 462.671 45.7442 463.696 80.2933Z" fill="white"/>
<path d="M344.908 209.449C340.951 210.103 336.863 210.448 332.703 210.448C302.011 210.448 266.873 191.889 249.768 139.494C251.115 139.47 252.45 139.458 253.797 139.458C272.641 195.708 313.048 210.805 344.276 205.689C386.459 198.789 427.032 155.436 419.189 88.6817C415.816 60.0455 415.661 35.597 417.461 14.9199C418.82 14.0633 420.238 13.2305 421.68 12.4453C419.582 33.5031 419.511 58.594 423.003 88.2296C431.12 157.34 388.819 202.263 344.908 209.449Z" fill="white"/>
<path d="M370.475 138.721C368.997 145.443 366.411 152.307 361.977 158.065C356.089 165.763 347.817 170.331 337.387 171.604C336.136 171.759 334.908 171.83 333.704 171.83C327.232 171.83 321.308 169.629 316.052 165.215C309.103 159.386 304.037 150.344 300.354 140.565C301.773 140.636 303.179 140.696 304.574 140.755C307.995 149.416 312.524 157.244 318.531 162.289C323.907 166.786 330.105 168.654 336.923 167.809C346.291 166.655 353.681 162.598 358.938 155.757C362.585 151.01 364.885 145.312 366.292 139.625H366.316C367.746 139.375 369.129 139.066 370.475 138.721Z" fill="white"/>
<path d="M221.436 355.484H217.253C200.041 316.141 175.225 289.908 143.401 277.475C131.851 272.954 120.122 270.599 108.775 269.695C108.561 268.41 108.37 267.125 108.215 265.828C120.17 266.685 132.566 269.147 144.795 273.918C178.026 286.898 203.784 314.297 221.436 355.484Z" fill="white"/>
<path d="M138.359 236.894L126.499 249.1L121.553 241.843L119.908 239.416C114.628 240.736 106.833 230.434 103.71 224.937C100.599 219.417 113.078 210.911 113.078 210.911C111.04 204.819 102.863 200.988 102.637 199.299C102.41 197.633 104.437 195.837 111.874 199.299C119.324 202.785 125.784 215.098 125.784 215.098C127.107 211.517 121.231 201.821 122.316 200.727C123.388 199.656 129.145 200.976 133.579 210.304C138.037 219.655 135.379 230.672 135.379 230.672L135.439 230.767L138.359 236.894Z" fill="#98B2D8"/>
<path d="M112.626 209.828C112.626 209.828 121.434 219.893 120.492 223.843C119.551 227.793 115.105 223.213 115.105 223.213C115.105 223.213 119.181 227.912 117.858 229.47C116.535 231.029 111.624 227.079 111.624 227.079C111.624 227.079 117.501 234.384 111.624 233.301C105.748 232.219 98.3582 221.154 104.032 220.048C104.032 220.048 103.34 211.994 108.501 214.742C108.501 214.742 106.189 208.02 112.626 209.828Z" fill="#B1C3E8"/>
<path d="M219.709 355.554C219.709 355.554 229.625 326.62 224.417 298.103C224.417 298.103 224.393 298.044 224.381 297.913C224.381 297.853 224.357 297.782 224.345 297.687C224.19 296.937 224.035 296.188 223.88 295.45C223.88 295.45 218.123 300.471 210.173 305.456C200.638 311.452 187.908 317.412 178.134 314.616C160.208 309.501 133.985 274.714 121.816 247.243C121.816 247.243 127.894 238.142 140.052 235.346C140.052 235.346 164.367 267.682 185.81 275.344C185.81 275.344 197.324 261.603 206.276 241.497C211.997 228.66 220.579 220.534 231.401 216.168C237.54 213.658 244.417 212.373 251.879 212.147L270.664 203.391C270.664 203.391 273.715 203.414 278.459 204.021C287.267 205.175 301.916 208.387 313.752 217.393C331.988 231.265 358.223 355.578 358.223 355.578H219.709V355.554Z" fill="#B7CAE5"/>
<path d="M224.381 297.913C224.226 297.092 224.059 296.272 223.88 295.439C223.88 295.439 218.123 300.459 210.173 305.444L215.715 258.082C221.365 279.77 224.071 295.974 224.381 297.913Z" fill="#97B3D1"/>
<path d="M278.459 203.998C275.562 222.391 257.111 239.38 243.797 239.154C233.082 238.963 231.508 223.64 231.401 216.145C237.54 213.634 244.417 212.349 251.879 212.123L270.663 203.367C270.675 203.367 273.727 203.391 278.459 203.998Z" fill="#CED9EA"/>
<path d="M246.575 336.758C246.575 336.758 288.888 292.798 290.736 246.59L303.215 285.541L298.412 326.098L246.575 336.758Z" fill="#97B3D1"/>
<path d="M245.347 355.543H197.967C197.967 355.543 198.087 349.083 205.405 346.918C212.724 344.764 217.396 335.663 239.351 336.865L245.347 355.543Z" fill="#98B2D8"/>
<path d="M293.823 312.084C293.823 312.084 271.498 324.897 236.348 333.998C236.348 333.998 231.473 345.729 240.031 355.556H308.042L293.823 312.084Z" fill="#B6C5DD"/>
<path d="M210.709 177.754C210.709 177.754 200.602 163.834 201.853 154.459C203.105 145.084 211.794 147.285 211.794 147.285C211.794 147.285 211.389 124.502 232.509 130.332C232.509 130.332 232.045 123.372 236.657 123.562C241.27 123.741 248.505 134.329 248.505 134.329C248.505 134.329 250.305 126.489 253.428 128.333C256.551 130.189 257.516 138.279 264.036 142.181C270.556 146.084 274.597 151.128 269.471 166.927C264.346 182.727 268.196 183.845 266.36 191.959C264.62 199.668 263.237 204.355 258.446 204.784C253.654 205.212 235.311 185.903 235.311 185.903L210.709 177.754Z" fill="#5D7CA0"/>
<path d="M270.675 203.368C270.675 203.368 258.911 231.85 246.551 229.708C240.412 228.637 239.041 224.902 238.994 220.571C238.934 214.92 241.139 208.293 237.802 205.509L252.617 184.499L255.883 179.859C255.871 179.859 259.864 191.4 270.675 203.368Z" fill="#98B2D8"/>
<path d="M238.982 220.572C238.922 214.921 241.127 208.294 237.79 205.51L252.606 184.5C253.869 185.975 254.775 188.604 255.144 192.721C257.099 214.421 245.609 219.465 238.982 220.572Z" fill="#799CBF"/>
<path d="M209.267 166.677C209.267 166.677 213.272 203.367 228.278 211.636C241.318 218.81 257.147 197.098 256.837 186.367C256.837 186.367 262.522 182.036 261.569 175.029C260.615 168.021 253.19 170.341 252.308 181.643C252.308 181.643 246.265 181.215 245.156 167.093C241.366 170.222 237.277 169.259 232.975 165.452C232.975 165.452 230.841 173.315 219.863 164.131C219.851 164.107 215.703 169.723 209.267 166.677Z" fill="#98B2D8"/>
<path d="M563.115 308.848C563.115 308.848 582.484 341.101 589.182 356.745H520.897C520.897 356.745 517.011 337.888 510.169 319.781L563.115 308.848Z" fill="#5D7CA0"/>
<path d="M536.487 316.034C532.744 328.396 527.047 338.948 518.596 346.955L520.908 356.734L438.284 355.723L447.486 299.271L536.487 316.034Z" fill="#799CBF"/>
<path d="M666.108 140.04C666.108 140.04 668.838 122.944 674.285 116.877C679.72 110.809 694.596 101.839 696.36 105.027C698.124 108.216 683.248 118.233 683.248 118.233C683.248 118.233 689.971 116.639 695.728 126.537C701.485 136.436 682.927 144.097 682.927 144.097L679.244 152.401L664.523 143.146L666.108 140.04Z" fill="#799CBF"/>
<path d="M685.132 118.555C685.132 118.555 676.837 126.966 678.052 129.369C679.268 131.772 683.833 128.001 683.833 128.001C683.833 128.001 680.103 133.664 682.999 135.127C685.895 136.591 690.365 131.689 690.365 131.689C690.365 131.689 686.634 136.841 688.78 137.792C690.925 138.732 702.392 130.666 700.341 128.774C698.291 126.883 697.171 128.429 697.171 128.429C697.171 128.429 699.567 124.396 697.171 123.099C694.561 121.696 693.25 124.218 693.25 124.218C693.25 124.218 695.204 121.125 693.619 119.923C692.034 118.721 688.673 120.268 688.673 120.268C688.673 120.268 689.793 115.128 685.132 118.555Z" fill="#98B2D8"/>
<path d="M677.433 118.352C674.918 117.638 669.792 122.861 669.792 122.861C667.778 125.443 667.373 130.594 667.289 132.974C667.027 139.612 664.512 143.134 664.512 143.134L671.985 147.833C677.766 140.397 675.871 130.88 674.941 127.501C677.766 123.301 678.934 118.78 677.433 118.352Z" fill="#98B2D8"/>
<path d="M682.272 154.15C682.272 154.15 657.325 220.476 617.669 226.354C599.933 228.983 586.536 229.245 577.168 228.745C565.999 228.174 560.504 226.484 560.099 226.365C560.075 226.365 560.075 226.342 560.075 226.342C560.075 226.342 549.193 246.567 556.237 275.631C563.258 304.672 565.832 310.751 565.832 310.751C565.832 310.751 512.374 349.988 468.905 314.261L429.678 253.384L417.389 234.301C417.389 234.301 428.677 197.313 460.502 173.269L460.525 173.245C472.516 164.168 487.451 156.922 505.783 154.245C515.187 152.83 525.474 152.616 536.725 153.96C536.725 153.96 545.367 156.399 559.408 161.526C566.965 164.287 576.107 167.832 586.298 172.198C615.417 184.654 623.414 188.366 623.414 188.366C623.414 188.366 654.428 157.826 662.438 139.303C662.438 139.303 678.434 140.921 682.272 154.15Z" fill="#B7CAE5"/>
<path d="M482.087 184.439C481.944 199.299 478.762 213.706 477.355 224.889L502.016 219.905L540.385 257.761C540.385 257.761 545.248 268.849 535.355 270.765C527.595 272.264 491.36 277.296 491.36 277.296C483.005 288.646 479.239 305.992 475.067 322.838L438.284 259.034L482.087 184.439Z" fill="#97B3D1"/>
<path d="M536.726 188.009C519.55 183.654 510.503 168.236 505.783 154.257C515.187 152.841 525.474 152.627 536.726 153.971C536.726 153.971 545.367 156.41 559.408 161.538C561.065 173.768 560.469 194.005 536.726 188.009Z" fill="#CED9EA"/>
<path d="M581.828 201.572C581.828 201.572 578.145 215.98 577.168 228.757C565.999 228.186 560.505 226.497 560.099 226.378C560.075 226.378 560.075 226.354 560.075 226.354C560.075 226.354 569.837 209.71 581.828 201.572Z" fill="#97B3D1"/>
<path d="M538.955 264.079L496.105 270.29C494.841 270.468 493.661 269.6 493.471 268.327L484.007 203.238C483.828 201.977 484.698 200.799 485.973 200.608L528.823 194.398C530.087 194.22 531.267 195.088 531.445 196.361L540.909 261.45C541.1 262.723 540.218 263.889 538.955 264.079Z" fill="#F2F4F9"/>
<path d="M507.774 222.642L514.329 220.084C514.329 220.084 520.563 202.845 528.322 213.695C528.322 213.695 533.686 210.507 533.519 208.746C533.364 206.985 533.281 204.439 533.281 204.439C533.281 204.439 544.139 206.783 541.708 221.892C539.276 237.002 530.003 235.086 520.885 235.253L509.526 239.726L507.774 222.642Z" fill="#98B2D8"/>
<path d="M512.005 243.711C512.005 243.711 460.907 277.463 438.844 261.188C435.483 258.702 432.432 256.072 429.69 253.396L417.401 234.313C417.401 234.313 428.689 197.325 460.513 173.281L460.537 173.257C471.086 168.522 482.111 170.247 482.671 180.003C484.018 203.238 464.113 217.526 461.646 228.067L507.44 218.811C507.44 218.811 514.889 226.699 512.005 243.711Z" fill="#C1CFE5"/>
<path d="M572.066 118.614C572.066 118.614 579.372 103.04 576.381 94.07C573.389 85.0997 565.272 88.8948 565.272 88.8948C565.272 88.8948 561.374 66.4451 541.731 76.1293C541.731 76.1293 540.873 69.2171 536.38 70.2521C531.886 71.2991 526.773 83.0534 526.773 83.0534C526.773 83.0534 523.531 75.6891 520.813 78.0923C518.095 80.4955 518.668 88.6331 512.994 93.6893C507.32 98.7456 504.305 104.456 512.315 119.018C520.324 133.58 516.76 135.4 520.086 143.026C523.245 150.272 525.485 154.614 530.277 154.138C535.068 153.662 549.443 131.248 549.443 131.248L572.066 118.614Z" fill="#5D7CA0"/>
<path d="M518 155.03C518 155.03 529.3 182.81 547.048 178.265C553.091 176.719 553.126 170.247 552.364 165.976C551.35 160.42 547.941 154.316 550.695 150.961L532.184 133.104L528.108 129.166C528.096 129.166 526.356 141.242 518 155.03Z" fill="#98B2D8"/>
<path d="M552.363 165.975C551.35 160.419 547.941 154.316 550.695 150.961L532.184 133.104C531.219 134.793 530.825 137.541 531.242 141.646C533.4 163.334 545.641 166.13 552.363 165.975Z" fill="#799CBF"/>
<path d="M571.387 107.467C571.387 107.467 574.366 144.265 561.184 155.186C549.729 164.68 530.086 146.335 528.382 135.723C528.382 135.723 521.981 132.534 521.6 125.467C521.218 118.4 528.942 119.293 531.946 130.226C531.946 130.226 537.798 128.668 536.237 114.593C540.551 116.961 544.389 115.248 547.894 110.691C547.894 110.691 551.469 118.008 560.516 106.932C560.516 106.92 565.642 111.655 571.387 107.467Z" fill="#98B2D8"/>
<path d="M477.666 335.211V335.235C477.106 337.496 476.319 339.566 475.306 341.422C466.033 358.339 425.888 355.555 425.888 355.555H334.241C296.314 355.555 281.117 354.616 277.481 342.802C277.267 342.171 277.112 341.493 276.981 340.791C274.406 327.05 287.207 282.365 310.879 251.706C322.989 236.038 335.504 227.781 346.661 223.462C357.317 219.346 366.721 218.811 373.324 218.811C384.958 218.811 394.338 219.667 402.312 221.535C423.695 226.532 434.887 238.607 451.658 259.998C472.159 286.148 482.255 316.854 477.666 335.211Z" fill="url(#paint0_linear)"/>
<path opacity="0.22" d="M316.481 324.361C326.422 308.752 329.557 287.087 332.322 265.113L340.964 309.811H415.817L429.571 265.113C429.25 286.005 432.122 306.491 442.051 326.098C442.039 326.086 393.098 381.371 316.481 324.361Z" fill="#1F395E"/>
<path d="M339.212 355.556H334.241C296.314 355.556 281.117 354.616 277.482 342.802C275.503 333.511 278.018 323.743 289.365 320.828C307.137 316.272 338.079 334.236 338.079 334.236L339.212 355.556Z" fill="url(#paint1_linear)"/>
<path d="M477.666 335.212C477.666 335.212 477.689 335.212 477.666 335.235C477.105 337.496 476.319 339.566 475.306 341.422C466.032 358.34 425.888 355.556 425.888 355.556H398.688L402.145 332.57C402.145 332.57 450.358 310.287 467.629 317.247C476.08 320.626 478.667 327.681 477.666 335.212Z" fill="url(#paint2_linear)"/>
<path d="M402.3 221.535C401.49 232.278 397.044 251.861 375.351 251.861C352.49 251.861 347.651 232.563 346.661 223.474C357.317 219.358 366.721 218.822 373.325 218.822C384.946 218.81 394.338 219.667 402.3 221.535Z" fill="#1F395E"/>
<path d="M422.051 355.545H334.241C332.12 355.545 330.403 353.831 330.403 351.714C330.403 349.596 332.12 347.883 334.241 347.883H422.051C424.172 347.883 425.889 349.596 425.889 351.714C425.889 353.831 424.172 355.545 422.051 355.545Z" fill="white"/>
<path d="M432.682 289.658L432.361 291.645V291.669L423.266 347.894H333.764L324.765 289.623C324.324 286.767 326.553 284.186 329.426 284.186H428.022C430.93 284.174 433.147 286.779 432.682 289.658Z" fill="url(#paint3_linear)"/>
<path d="M432.36 291.668L423.266 347.893H334.253L364.42 344.753C395.387 341.552 421.776 320.899 432.36 291.668Z" fill="#3150BC"/>
<path d="M374.981 243.713H374.385C370.929 243.713 368.068 242.999 365.744 241.964C360.106 239.43 356.685 233.553 356.816 227.39C356.84 226.76 356.84 226.141 356.84 225.534C356.864 220.418 356.53 216.171 356.53 216.171V213.875L388.772 212.436C388.891 217.075 389.428 221.192 390.059 224.487C390.083 224.547 390.083 224.582 390.095 224.642C391.954 234.314 384.851 243.463 374.981 243.713Z" fill="#FEB19E"/>
<path d="M390.07 224.487C376.637 240.239 362.835 231.042 356.851 225.546C356.875 220.43 356.541 216.183 356.541 216.183V213.887L388.783 212.447C388.902 217.063 389.439 221.192 390.07 224.487Z" fill="#FF856A"/>
<path d="M346.673 198.23C346.673 198.23 356.673 226.355 373.348 226.355C390.023 226.355 396.96 196.065 396.96 196.065V169.725H345.41L346.673 198.23Z" fill="#FEB19E"/>
<path d="M341.309 182.359C341.309 182.359 336.398 183.252 337.232 188.879C338.067 194.506 343.192 201.335 347.352 197.742L341.309 182.359Z" fill="#FEB19E"/>
<path d="M400.846 180.004C400.846 180.004 405.828 180.23 405.769 185.917C405.709 191.604 401.561 199.063 396.949 196.065L400.846 180.004Z" fill="#FEB19E"/>
<path d="M400.846 180.003C400.846 180.003 399.118 189.842 396.948 196.064C396.948 196.064 393.003 195.267 391.716 184.893C391.716 184.893 383.182 186.559 377.818 178.504C377.818 178.504 376.542 186.487 368.306 180.824C362.811 185.297 356.315 185.773 348.949 182.74C348.949 182.74 350.189 193.209 346.673 198.23C346.673 198.23 345.397 194.101 341.309 182.359C341.309 182.359 339.557 182.418 338.437 184.013C338.437 184.013 329.604 166.762 333.764 158.47C337.924 150.177 343.526 153.366 343.526 153.366C343.526 153.366 341.452 142.028 353.765 137.876C366.077 133.724 366.077 128.132 367.996 129.25C369.915 130.369 370.714 134.521 370.714 134.521C370.714 134.521 391.99 132.284 397.747 155.115C397.747 155.115 413.111 155.602 403.993 181.312C403.981 181.3 403.385 180.241 400.846 180.003Z" fill="url(#paint4_linear)"/>
<path opacity="0.6" d="M318.65 203.904H238.266C235.656 203.904 233.534 206.022 233.534 208.627V256.513C233.534 259.119 235.656 261.236 238.266 261.236H293.715L308.173 274.026C309.27 274.989 310.938 273.883 310.462 272.503L306.552 261.236H318.65C321.26 261.236 323.382 259.119 323.382 256.513V208.627C323.394 206.022 321.272 203.904 318.65 203.904Z" fill="#9ABCED"/>
<path d="M263.201 216.718H244.679C243.987 216.718 243.415 216.158 243.415 215.456C243.415 214.766 243.976 214.195 244.679 214.195H263.201C263.905 214.195 264.465 214.754 264.465 215.456C264.465 216.158 263.905 216.718 263.201 216.718Z" fill="#FFE080"/>
<path d="M308.876 227.639H255.215C254.512 227.639 253.952 227.08 253.952 226.378C253.952 225.676 254.512 225.117 255.215 225.117H308.876C309.567 225.117 310.139 225.676 310.139 226.378C310.128 227.08 309.567 227.639 308.876 227.639Z" fill="#9ABCED"/>
<path d="M308.876 235.421H244.691C243.999 235.421 243.427 234.861 243.427 234.16C243.427 233.458 243.987 232.898 244.691 232.898H308.876C309.567 232.898 310.14 233.458 310.14 234.16C310.128 234.85 309.567 235.421 308.876 235.421Z" fill="#9ABCED"/>
<path d="M308.876 243.188H244.691C243.999 243.188 243.427 242.629 243.427 241.927C243.427 241.225 243.987 240.666 244.691 240.666H308.876C309.567 240.666 310.14 241.225 310.14 241.927C310.128 242.617 309.567 243.188 308.876 243.188Z" fill="#9ABCED"/>
<path d="M308.876 250.958H244.691C243.999 250.958 243.427 250.399 243.427 249.697C243.427 248.995 243.987 248.436 244.691 248.436H308.876C309.567 248.436 310.14 248.995 310.14 249.697C310.128 250.399 309.567 250.958 308.876 250.958Z" fill="#9ABCED"/>
<path d="M675.037 368.001H91.564C90.4198 368.001 89.4781 367.073 89.4781 365.919V357.627C89.4781 356.485 90.4078 355.545 91.564 355.545H675.037C676.181 355.545 677.123 356.473 677.123 357.627V365.919C677.111 367.073 676.181 368.001 675.037 368.001Z" fill="#C1C8D3"/>
<path d="M555.63 324.838H530.683V346.395C530.683 351.416 534.759 355.497 539.801 355.497H546.523C551.553 355.497 555.642 351.428 555.642 346.395V324.838H555.63Z" fill="#FFE080"/>
<path d="M538.597 324.838V318.188C538.597 317.093 539.479 316.213 540.576 316.213H543.091C544.187 316.213 545.069 315.332 545.069 314.238V311.727C545.069 310.633 544.187 309.752 543.091 309.752H534.997C529.431 309.752 524.925 305.255 524.925 299.699C524.925 294.144 529.431 289.646 534.997 289.646H545.737C546.833 289.646 547.715 288.766 547.715 287.672V286.779C547.715 281.021 552.388 276.357 558.157 276.357C563.925 276.357 568.598 281.021 568.598 286.779C568.598 292.99 563.544 298.034 557.322 298.034H538.43C537.333 298.034 536.451 298.914 536.451 300.009C536.451 301.103 537.333 301.984 538.43 301.984H548.752C552.566 301.984 555.653 305.065 555.653 308.872V313.179C555.653 316.986 552.566 320.067 548.752 320.067C547.656 320.067 546.774 320.948 546.774 322.042V324.862H538.597V324.838Z" fill="url(#paint5_linear)"/>
<path opacity="0.6" d="M520.634 289.576H455.138C452.623 289.576 450.585 287.541 450.585 285.031V202.418C450.585 199.907 452.623 197.873 455.138 197.873H520.634C523.149 197.873 525.188 199.907 525.188 202.418V285.031C525.199 287.541 523.161 289.576 520.634 289.576Z" fill="#9ABCED"/>
<path d="M524.794 286.542H459.297C456.258 286.542 453.779 284.067 453.779 281.034V198.42C453.779 195.387 456.258 192.912 459.297 192.912H524.794C527.834 192.912 530.313 195.387 530.313 198.42V281.034C530.313 284.067 527.834 286.542 524.794 286.542ZM459.297 194.828C457.307 194.828 455.698 196.434 455.698 198.42V281.034C455.698 283.02 457.307 284.627 459.297 284.627H524.794C526.785 284.627 528.394 283.02 528.394 281.034V198.42C528.394 196.434 526.785 194.828 524.794 194.828H459.297Z" fill="#4F7EB7"/>
<path opacity="0.71" d="M476.331 227.2H461.777V209.795H476.331V227.2ZM463.696 225.285H474.411V211.71H463.696V225.285Z" fill="#7CA6D8"/>
<path d="M472.671 221.811L468.345 216.993L469.775 215.708L472.397 218.635C473.732 216.886 476.986 213.376 483.172 210.83L483.899 212.603C476.188 215.767 473.363 220.598 473.339 220.645L472.671 221.811Z" fill="#FFE080"/>
<path d="M513.459 216.326H490.884C490.098 216.326 489.454 215.684 489.454 214.898C489.454 214.113 490.098 213.471 490.884 213.471H513.459C514.246 213.471 514.89 214.113 514.89 214.898C514.878 215.684 514.246 216.326 513.459 216.326Z" fill="#9ABCED"/>
<path d="M513.459 223.226H490.884C490.098 223.226 489.454 222.584 489.454 221.799C489.454 221.014 490.098 220.371 490.884 220.371H513.459C514.246 220.371 514.89 221.014 514.89 221.799C514.878 222.596 514.246 223.226 513.459 223.226Z" fill="#9ABCED"/>
<path opacity="0.71" d="M476.331 253.861H461.777V236.455H476.331V253.861ZM463.696 251.945H474.411V238.371H463.696V251.945Z" fill="#7CA6D8"/>
<path d="M472.671 248.471L468.345 243.653L469.775 242.368L472.397 245.295C473.732 243.546 476.986 240.036 483.172 237.49L483.899 239.263C476.188 242.428 473.363 247.258 473.339 247.305L472.671 248.471Z" fill="#FFE080"/>
<path d="M513.459 242.986H490.884C490.098 242.986 489.454 242.344 489.454 241.559C489.454 240.773 490.098 240.131 490.884 240.131H513.459C514.246 240.131 514.89 240.773 514.89 241.559C514.878 242.344 514.246 242.986 513.459 242.986Z" fill="#9ABCED"/>
<path d="M513.459 249.887H490.884C490.098 249.887 489.454 249.244 489.454 248.459C489.454 247.674 490.098 247.031 490.884 247.031H513.459C514.246 247.031 514.89 247.674 514.89 248.459C514.878 249.256 514.246 249.887 513.459 249.887Z" fill="#9ABCED"/>
<path opacity="0.71" d="M476.331 280.523H461.777V263.117H476.331V280.523ZM463.696 278.607H474.411V265.033H463.696V278.607Z" fill="#7CA6D8"/>
<path d="M472.671 275.133L468.345 270.315L469.775 269.03L472.397 271.957C473.732 270.208 476.986 266.698 483.172 264.152L483.899 265.925C476.188 269.09 473.363 273.92 473.339 273.967L472.671 275.133Z" fill="#FFE080"/>
<path d="M513.459 269.637H490.884C490.098 269.637 489.454 268.994 489.454 268.209C489.454 267.424 490.098 266.781 490.884 266.781H513.459C514.246 266.781 514.89 267.424 514.89 268.209C514.878 269.006 514.246 269.637 513.459 269.637Z" fill="#9ABCED"/>
<path d="M513.459 276.549H490.884C490.098 276.549 489.454 275.906 489.454 275.121C489.454 274.336 490.098 273.693 490.884 273.693H513.459C514.246 273.693 514.89 274.336 514.89 275.121C514.878 275.918 514.246 276.549 513.459 276.549Z" fill="#9ABCED"/>
<path opacity="0.6" d="M750.724 163.242H685.228C682.713 163.242 680.675 161.207 680.675 158.697V76.072C680.675 73.5617 682.713 71.5273 685.228 71.5273H750.724C753.239 71.5273 755.278 73.5617 755.278 76.072V158.685C755.29 161.196 753.239 163.242 750.724 163.242Z" fill="#9ABCED"/>
<path d="M756.481 158.97H690.985C687.945 158.97 685.466 156.495 685.466 153.461V70.8482C685.466 67.8144 687.945 65.3398 690.985 65.3398H756.481C759.521 65.3398 762 67.8144 762 70.8482V153.461C762 156.495 759.521 158.97 756.481 158.97ZM690.985 67.2553C688.994 67.2553 687.385 68.8614 687.385 70.8482V153.461C687.385 155.436 688.994 157.054 690.985 157.054H756.481C758.472 157.054 760.081 155.448 760.081 153.461V70.8482C760.081 68.8733 758.472 67.2553 756.481 67.2553H690.985Z" fill="#4F7EB7"/>
<g opacity="0.5">
<path opacity="0.5" d="M712.297 98.6907C713.764 92.5149 709.938 86.3214 703.75 84.8571C697.563 83.3928 691.358 87.2122 689.891 93.388C688.424 99.5638 692.25 105.757 698.438 107.222C704.625 108.686 710.83 104.866 712.297 98.6907Z" fill="#7CA6D8"/>
<path opacity="0.5" d="M704.144 94.5112L711.82 80.8652C718.853 82.626 722.214 89.2408 718.853 96.034L704.144 94.5112Z" fill="#FFE080"/>
<g opacity="0.5">
<path opacity="0.5" d="M696.944 119.97C696.944 121.826 695.443 123.325 693.583 123.325C691.724 123.325 690.222 121.826 690.222 119.97C690.222 118.114 691.724 116.615 693.583 116.615C695.443 116.615 696.944 118.114 696.944 119.97Z" fill="#9ABCED"/>
<path opacity="0.5" d="M696.944 134.818C696.944 136.674 695.443 138.173 693.583 138.173C691.724 138.173 690.222 136.674 690.222 134.818C690.222 132.962 691.724 131.463 693.583 131.463C695.443 131.463 696.944 132.962 696.944 134.818Z" fill="#9ABCED"/>
<path opacity="0.5" d="M740.772 123.325H713.906C712.046 123.325 710.544 121.826 710.544 119.97C710.544 118.114 712.046 116.615 713.906 116.615H740.772C742.631 116.615 744.133 118.114 744.133 119.97C744.133 121.826 742.631 123.325 740.772 123.325Z" fill="#9ABCED"/>
<path opacity="0.5" d="M740.772 138.173H713.906C712.046 138.173 710.544 136.674 710.544 134.818C710.544 132.962 712.046 131.463 713.906 131.463H740.772C742.631 131.463 744.133 132.962 744.133 134.818C744.133 136.674 742.631 138.173 740.772 138.173Z" fill="#9ABCED"/>
<path opacity="0.5" d="M696.944 149.904C696.944 151.76 695.443 153.259 693.583 153.259C691.724 153.259 690.222 151.76 690.222 149.904C690.222 148.048 691.724 146.549 693.583 146.549C695.443 146.549 696.944 148.048 696.944 149.904Z" fill="#9ABCED"/>
<path opacity="0.5" d="M740.772 153.259H713.906C712.046 153.259 710.544 151.76 710.544 149.904C710.544 148.048 712.046 146.549 713.906 146.549H740.772C742.631 146.549 744.133 148.048 744.133 149.904C744.133 151.76 742.631 153.259 740.772 153.259Z" fill="#9ABCED"/>
</g>
</g>
<path opacity="0.6" d="M190.542 136.317H125.045C122.53 136.317 120.492 134.283 120.492 131.773V33.824C120.492 31.3137 122.53 29.2793 125.045 29.2793H190.542C193.056 29.2793 195.095 31.3137 195.095 33.824V131.761C195.095 134.283 193.056 136.317 190.542 136.317Z" fill="#9ABCED"/>
<path d="M186.382 133.129H120.885C117.846 133.129 115.367 130.655 115.367 127.621V29.6841C115.367 26.6504 117.846 24.1758 120.885 24.1758H186.382C189.421 24.1758 191.9 26.6504 191.9 29.6841V127.621C191.9 130.655 189.421 133.129 186.382 133.129ZM120.885 26.0912C118.907 26.0912 117.286 27.6973 117.286 29.6841V127.621C117.286 129.596 118.895 131.214 120.885 131.214H186.382C188.36 131.214 189.981 129.608 189.981 127.621V29.6841C189.981 27.7092 188.372 26.0912 186.382 26.0912H120.885Z" fill="#4F7EB7"/>
<path d="M154.271 73.3348L153.33 74.1676C152.734 74.6911 151.828 74.6435 151.303 74.0486L141.696 63.2461L144.783 60.5098L154.39 71.3123C154.927 71.9071 154.867 72.8113 154.271 73.3348Z" fill="#FFE080"/>
<path d="M138.347 43.4141C132.268 43.4141 127.31 48.3394 127.31 54.4307C127.31 60.522 132.256 65.4474 138.347 65.4474C144.45 65.4474 149.384 60.522 149.384 54.4307C149.384 48.3394 144.45 43.4141 138.347 43.4141ZM138.347 61.9378C134.199 61.9378 130.826 58.5828 130.826 54.4307C130.826 50.2787 134.199 46.9237 138.347 46.9237C142.507 46.9237 145.868 50.2787 145.868 54.4307C145.868 58.5828 142.507 61.9378 138.347 61.9378Z" fill="#FFE080"/>
<path d="M183.056 49.4818H165.618C164.51 49.4818 163.616 48.5895 163.616 47.4831C163.616 46.3767 164.51 45.4844 165.618 45.4844H183.056C184.165 45.4844 185.059 46.3767 185.059 47.4831C185.059 48.5776 184.165 49.4818 183.056 49.4818Z" fill="#9ABCED"/>
<path d="M183.056 59.8548H165.618C164.51 59.8548 163.616 58.9626 163.616 57.8561C163.616 56.7497 164.51 55.8574 165.618 55.8574H183.056C184.165 55.8574 185.059 56.7497 185.059 57.8561C185.059 58.9626 184.165 59.8548 183.056 59.8548Z" fill="#9ABCED"/>
<path d="M183.056 69.433H165.618C164.51 69.433 163.616 68.5407 163.616 67.4343C163.616 66.3278 164.51 65.4355 165.618 65.4355H183.056C184.165 65.4355 185.059 66.3278 185.059 67.4343C185.059 68.5407 184.165 69.433 183.056 69.433Z" fill="#9ABCED"/>
<path d="M161.351 96.0935H134.485C133.221 96.0935 132.208 95.0704 132.208 93.8212C132.208 92.5601 133.233 91.5488 134.485 91.5488H161.351C162.614 91.5488 163.627 92.572 163.627 93.8212C163.627 95.0704 162.602 96.0935 161.351 96.0935Z" fill="#9ABCED"/>
<path d="M161.351 110.336H134.485C133.221 110.336 132.208 109.313 132.208 108.063C132.208 106.802 133.233 105.791 134.485 105.791H161.351C162.614 105.791 163.627 106.814 163.627 108.063C163.627 109.324 162.602 110.336 161.351 110.336Z" fill="#9ABCED"/>
<path d="M161.351 124.588H134.485C133.221 124.588 132.208 123.564 132.208 122.315C132.208 121.054 133.233 120.043 134.485 120.043H161.351C162.614 120.043 163.627 121.066 163.627 122.315C163.627 123.564 162.602 124.588 161.351 124.588Z" fill="#9ABCED"/>
<path d="M182.4 93.8223C182.4 95.8448 180.768 97.4747 178.741 97.4747C176.715 97.4747 175.082 95.8448 175.082 93.8223C175.082 91.7998 176.715 90.1699 178.741 90.1699C180.768 90.1699 182.4 91.7998 182.4 93.8223Z" fill="#9ABCED"/>
<path d="M182.4 108.063C182.4 110.085 180.768 111.715 178.741 111.715C176.715 111.715 175.082 110.085 175.082 108.063C175.082 106.04 176.715 104.41 178.741 104.41C180.768 104.41 182.4 106.052 182.4 108.063Z" fill="#9ABCED"/>
<path d="M182.4 122.315C182.4 124.337 180.768 125.967 178.741 125.967C176.715 125.967 175.082 124.337 175.082 122.315C175.082 120.292 176.715 118.662 178.741 118.662C180.768 118.662 182.4 120.292 182.4 122.315Z" fill="#9ABCED"/>
<path opacity="0.6" d="M510.563 137.817H390.607C386.233 137.817 382.693 134.284 382.693 129.918V50.4094C382.693 46.0432 386.233 42.5098 390.607 42.5098H510.563C514.937 42.5098 518.477 46.0432 518.477 50.4094V129.918C518.477 134.284 514.937 137.817 510.563 137.817Z" fill="#9ABCED"/>
<path d="M514.722 134.391H394.767C389.868 134.391 385.887 130.417 385.887 125.528V46.0196C385.887 41.1299 389.868 37.1562 394.767 37.1562H514.722C519.621 37.1562 523.602 41.1299 523.602 46.0196V125.528C523.602 130.417 519.609 134.391 514.722 134.391ZM394.767 39.0836C390.929 39.0836 387.806 42.2006 387.806 46.0315V125.54C387.806 129.37 390.929 132.487 394.767 132.487H514.722C518.56 132.487 521.683 129.37 521.683 125.54V46.0196C521.683 42.1887 518.56 39.0717 514.722 39.0717H394.767V39.0836Z" fill="#4F7EB7"/>
<path opacity="0.5" d="M466.175 61.9147H399.713C397.794 61.9147 396.233 60.3562 396.233 58.4407C396.233 56.5253 397.794 54.9668 399.713 54.9668H466.175C468.094 54.9668 469.656 56.5253 469.656 58.4407C469.656 60.3562 468.094 61.9147 466.175 61.9147Z" fill="#9ABCED"/>
<path opacity="0.71" d="M467.2 112.917H398.7C397.341 112.917 396.245 111.823 396.245 110.467V76.5719C396.245 75.2156 397.341 74.1211 398.7 74.1211H467.2C468.559 74.1211 469.656 75.2156 469.656 76.5719V110.455C469.656 111.811 468.559 112.917 467.2 112.917Z" fill="#7CA6D8"/>
<path opacity="0.5" d="M501.444 61.9147H481.777C479.858 61.9147 478.297 60.3562 478.297 58.4407C478.297 56.5253 479.858 54.9668 481.777 54.9668H501.456C503.375 54.9668 504.937 56.5253 504.937 58.4407C504.925 60.3562 503.363 61.9147 501.444 61.9147Z" fill="#9ABCED"/>
<path opacity="0.5" d="M502.767 80.3438H482.099C480.907 80.3438 479.942 79.3802 479.942 78.1905C479.942 77.0008 480.907 76.0371 482.099 76.0371H502.767C503.959 76.0371 504.925 77.0008 504.925 78.1905C504.925 79.3802 503.959 80.3438 502.767 80.3438Z" fill="#9ABCED"/>
<path opacity="0.5" d="M502.767 90.086H482.099C480.907 90.086 479.942 89.1224 479.942 87.9327C479.942 86.743 480.907 85.7793 482.099 85.7793H502.767C503.959 85.7793 504.925 86.743 504.925 87.9327C504.925 89.1224 503.959 90.086 502.767 90.086Z" fill="#9ABCED"/>
<path opacity="0.5" d="M502.767 99.8185H482.099C480.907 99.8185 479.942 98.8548 479.942 97.6651C479.942 96.4754 480.907 95.5117 482.099 95.5117H502.767C503.959 95.5117 504.925 96.4754 504.925 97.6651C504.925 98.8548 503.959 99.8185 502.767 99.8185Z" fill="#9ABCED"/>
<path opacity="0.5" d="M502.767 109.563H482.099C480.907 109.563 479.942 108.599 479.942 107.409C479.942 106.22 480.907 105.256 482.099 105.256H502.767C503.959 105.256 504.925 106.22 504.925 107.409C504.925 108.599 503.959 109.563 502.767 109.563Z" fill="#FFE080"/>
<path opacity="0.5" d="M488.727 128.086H412.193C410.608 128.086 409.309 126.801 409.309 125.207C409.309 123.625 410.596 122.328 412.193 122.328H488.727C490.312 122.328 491.611 123.613 491.611 125.207C491.611 126.79 490.324 128.086 488.727 128.086Z" fill="#9ABCED"/>
<path opacity="0.6" d="M125.57 235.359H12.015C8.48688 235.359 5.61433 232.504 5.61433 228.97V160.324C5.61433 156.803 8.47496 153.936 12.015 153.936H125.57C129.098 153.936 131.971 156.791 131.971 160.324V228.97C131.971 232.492 129.11 235.359 125.57 235.359Z" fill="#9ABCED"/>
<path d="M120.921 231.6H7.3542C3.30164 231.6 0 228.305 0 224.26V155.614C0 151.569 3.30164 148.273 7.3542 148.273H120.909C124.962 148.273 128.263 151.569 128.263 155.614V224.26C128.275 228.305 124.974 231.6 120.921 231.6ZM7.3542 150.189C4.35054 150.189 1.91901 152.628 1.91901 155.614V224.26C1.91901 227.258 4.36246 229.685 7.3542 229.685H120.909C123.913 229.685 126.344 227.246 126.344 224.26V155.614C126.344 152.616 123.901 150.189 120.909 150.189H7.3542Z" fill="#4F7EB7"/>
<g opacity="0.5">
<path opacity="0.5" d="M51.0858 191.519C48.1536 194.47 44.0772 196.29 39.5717 196.29C30.5846 196.29 23.29 189.009 23.29 180.05C23.29 171.068 30.5846 163.787 39.5717 163.787C41.3954 163.787 43.1594 164.096 44.7924 164.644L39.5717 180.05L51.0858 191.519Z" fill="#7CA6D8"/>
<path opacity="0.5" d="M58.0107 178.79C58.0107 182.597 56.4612 186.047 53.9582 188.533L44.1844 178.79L48.6183 165.715C54.0655 167.547 58.0107 172.71 58.0107 178.79Z" fill="#FFE080"/>
<path opacity="0.5" d="M113.019 197.253H75.5923V165.714C75.5923 165.19 76.0214 164.75 76.5577 164.75C77.0822 164.75 77.5232 165.178 77.5232 165.714V195.337H113.031C113.567 195.337 113.996 195.766 113.996 196.301C113.972 196.825 113.543 197.253 113.019 197.253Z" fill="#9ABCED"/>
<path opacity="0.5" d="M88.2262 181.002H83.4228V195.338H88.2262V181.002Z" fill="#9ABCED"/>
<path opacity="0.5" d="M98.1431 173.732H93.3396V195.337H98.1431V173.732Z" fill="#FFE080"/>
<path opacity="0.5" d="M107.905 184.535H103.102V195.338H107.905V184.535Z" fill="#9ABCED"/>
<path opacity="0.5" d="M46.7234 211.886H24.1722C23.2425 211.886 22.4915 211.137 22.4915 210.209C22.4915 209.281 23.2425 208.531 24.1722 208.531H46.7234C47.6532 208.531 48.4041 209.281 48.4041 210.209C48.4041 211.137 47.6532 211.886 46.7234 211.886Z" fill="#9ABCED"/>
<path opacity="0.5" d="M81.1105 211.886H58.5592C57.6295 211.886 56.8786 211.137 56.8786 210.209C56.8786 209.281 57.6295 208.531 58.5592 208.531H81.1105C82.0402 208.531 82.7911 209.281 82.7911 210.209C82.7911 211.137 82.0402 211.886 81.1105 211.886Z" fill="#9ABCED"/>
<path opacity="0.5" d="M113.412 211.886H90.8604C89.9307 211.886 89.1798 211.137 89.1798 210.209C89.1798 209.281 89.9307 208.531 90.8604 208.531H113.412C114.341 208.531 115.092 209.281 115.092 210.209C115.092 211.137 114.341 211.886 113.412 211.886Z" fill="#9ABCED"/>
<path opacity="0.5" d="M61.5153 223.855H38.964C38.0343 223.855 37.2834 223.105 37.2834 222.177C37.2834 221.25 38.0343 220.5 38.964 220.5H61.5153C62.445 220.5 63.196 221.25 63.196 222.177C63.196 223.105 62.445 223.855 61.5153 223.855Z" fill="#9ABCED"/>
<path opacity="0.5" d="M93.8283 223.855H71.277C70.3473 223.855 69.5964 223.105 69.5964 222.177C69.5964 221.25 70.3473 220.5 71.277 220.5H93.8283C94.758 220.5 95.5089 221.25 95.5089 222.177C95.5089 223.105 94.758 223.855 93.8283 223.855Z" fill="#9ABCED"/>
</g>
<defs>
<linearGradient id="paint0_linear" x1="377.711" y1="348.026" x2="377.711" y2="232.762" gradientUnits="userSpaceOnUse">
<stop stop-color="#1F3A65"/>
<stop offset="1" stop-color="#294A7A"/>
</linearGradient>
<linearGradient id="paint1_linear" x1="308.042" y1="356.967" x2="308.042" y2="325.981" gradientUnits="userSpaceOnUse">
<stop stop-color="#1F3A65"/>
<stop offset="1" stop-color="#294A7A"/>
</linearGradient>
<linearGradient id="paint2_linear" x1="438.281" y1="356.967" x2="438.281" y2="325.981" gradientUnits="userSpaceOnUse">
<stop stop-color="#1F3A65"/>
<stop offset="1" stop-color="#294A7A"/>
</linearGradient>
<linearGradient id="paint3_linear" x1="400.677" y1="345.322" x2="360.479" y2="281.397" gradientUnits="userSpaceOnUse">
<stop stop-color="#3855E1"/>
<stop offset="1" stop-color="#5C7EF7"/>
</linearGradient>
<linearGradient id="paint4_linear" x1="370.364" y1="189.134" x2="369.08" y2="138.982" gradientUnits="userSpaceOnUse">
<stop stop-color="#3F2323"/>
<stop offset="1" stop-color="#5E3434"/>
</linearGradient>
<linearGradient id="paint5_linear" x1="566.314" y1="254.619" x2="534.74" y2="317.407" gradientUnits="userSpaceOnUse">
<stop stop-color="#E2E8F7"/>
<stop offset="1" stop-color="white"/>
</linearGradient>
</defs>
</svg>
